<?xml version="1.0" encoding="UTF-8" standalone="no"?>
<!-- Created with Inkscape (http://www.inkscape.org/) -->

<svg
   xmlns:dc="http://purl.org/dc/elements/1.1/"
   xmlns:cc="http://creativecommons.org/ns#"
   xmlns:rdf="http://www.w3.org/1999/02/22-rdf-syntax-ns#"
   xmlns:svg="http://www.w3.org/2000/svg"
   xmlns="http://www.w3.org/2000/svg"
   xmlns:sodipodi="http://sodipodi.sourceforge.net/DTD/sodipodi-0.dtd"
   xmlns:inkscape="http://www.inkscape.org/namespaces/inkscape"
   width="48mm"
   height="48mm"
   viewBox="0 0 170.07874 170.07874"
   id="svg5074"
   version="1.1"
   inkscape:version="0.91 r13725"
   sodipodi:docname="note.svg">
  <defs
     id="defs5076" />
  <sodipodi:namedview
     id="base"
     pagecolor="#ffffff"
     bordercolor="#666666"
     borderopacity="1.0"
     inkscape:pageopacity="0.0"
     inkscape:pageshadow="2"
     inkscape:zoom="2.8"
     inkscape:cx="28.288522"
     inkscape:cy="78.198644"
     inkscape:document-units="px"
     inkscape:current-layer="layer1"
     showgrid="false"
     inkscape:window-width="1536"
     inkscape:window-height="801"
     inkscape:window-x="1536"
     inkscape:window-y="23"
     inkscape:window-maximized="0" />
  <metadata
     id="metadata5079">
    <rdf:RDF>
      <cc:Work
         rdf:about="">
        <dc:format>image/svg+xml</dc:format>
        <dc:type
           rdf:resource="http://purl.org/dc/dcmitype/StillImage" />
        <dc:title></dc:title>
      </cc:Work>
    </rdf:RDF>
  </metadata>
  <g
     inkscape:label="Layer 1"
     inkscape:groupmode="layer"
     id="layer1"
     transform="translate(0,-882.28346)">
    <rect
       style="opacity:1;fill:#e6e6e6;fill-opacity:1;fill-rule:evenodd;stroke:#000000;stroke-width:3;stroke-linejoin:miter;stroke-miterlimit:4;stroke-dasharray:none"
       id="rect5082"
       width="76.771591"
       height="111.11678"
       x="33.335033"
       y="909.93066" />
    <rect
       style="opacity:1;fill:#ececec;fill-opacity:1;fill-rule:evenodd;stroke:#000000;stroke-width:3;stroke-linejoin:miter;stroke-miterlimit:4;stroke-dasharray:none"
       id="rect5082-8"
       width="76.771591"
       height="111.11678"
       x="42.426407"
       y="921.04236" />
    <rect
       style="opacity:1;fill:#ffffff;fill-opacity:1;fill-rule:evenodd;stroke:#000000;stroke-width:3;stroke-linejoin:miter;stroke-miterlimit:4;stroke-dasharray:none"
       id="rect5082-8-4"
       width="76.771591"
       height="111.11678"
       x="51.517784"
       y="930.13373" />
    <path
       style="fill:none;fill-rule:evenodd;stroke:#000000;stroke-width:1px;stroke-linecap:butt;stroke-linejoin:miter;stroke-opacity:1"
       d="m 66.670068,958.41801 c 5.341779,8.581 3.817003,-2.91866 4.04061,-3.03046 0.602339,-0.30117 1.417967,0.30117 2.020305,0 0.30117,-0.15058 -0.238095,-0.77206 0,-1.01015 0.476191,-0.47619 1.719136,0.60234 2.020305,0 0.30117,-0.60234 -0.301169,-1.41797 0,-2.02031 0.150585,-0.30117 1.010153,-0.33671 1.010153,0 0,0.75293 -0.772057,1.30602 -1.010153,2.02031 -0.106479,0.31944 0.238096,0.77206 0,1.01015 -0.238095,0.2381 -0.772057,-0.23809 -1.010152,0 -0.238095,0.2381 0,0.67344 0,1.01015 0,0.33672 -0.238095,0.77206 0,1.01016 0.238095,0.23809 0.673435,0 1.010152,0 0.997738,0 4.652518,0.19912 5.050763,0 0.262993,-0.1315 1.230643,-1.79982 2.020305,-1.01016 0.238095,0.2381 0,0.67344 0,1.01016 0,0.33671 0.238095,0.77205 0,1.01015 -0.238095,0.23809 -0.772057,-0.2381 -1.010152,0 -0.238096,0.23809 0.150584,0.70898 0,1.01015 -0.212959,0.42592 -0.74601,0.61394 -1.010153,1.01015 -0.417647,0.62647 -0.477755,1.48791 -1.010152,2.02031 -0.238096,0.23809 -1.010153,0.33672 -1.010153,0 0,-0.33672 0.673435,0 1.010153,0 0.336717,0 0.673435,0 1.010152,0 0.673435,0 1.544115,0.47619 2.020305,0 0.476191,-0.47619 -0.560332,-1.64675 0,-2.02031 0.840498,-0.56033 2.072143,0.31944 3.030458,0 0.319438,-0.10648 -0.301169,-0.85956 0,-1.01015 0.903508,-0.45175 2.020305,0 3.030457,0 0.673435,0 2.020306,-0.67343 2.020306,0 0,0.67344 -2.693741,0 -2.020306,0 1.010153,0 2.020306,0 3.030458,0 2.69374,0 5.38748,0 8.08122,0 0.336718,0 0.673435,0 1.010151,0 0.33672,0 0.77206,-0.23809 1.01015,0 0.2381,0.2381 -0.23809,0.77206 0,1.01015 0.75293,0.75293 1.99746,-0.7519 3.03046,-1.01015 0.65333,-0.16333 1.35995,0.13207 2.02031,0 5.30326,-1.06065 1.46313,-0.30199 4.04061,-2.0203 0.62647,-0.41765 1.34687,-0.67344 2.0203,-1.01016 1.01016,0 2.12695,0.45176 3.03046,0 0.67344,-0.33671 0.47776,-1.4879 1.01015,-2.0203 0.2381,-0.2381 1.01016,-0.33672 1.01016,0 0,0.67343 -1.54412,-0.47619 -2.02031,0 -0.5324,0.5324 -0.47776,1.48791 -1.01015,2.0203 -0.2381,0.2381 -0.69072,-0.10648 -1.01015,0 -0.71429,0.2381 -1.30602,0.77206 -2.02031,1.01016 -0.31944,0.10648 -1.01015,0.33671 -1.01015,0 0,-0.33672 1.01015,-0.33672 1.01015,0 0,0.33671 -1.34687,0 -1.01015,0 1.01015,0 2.0203,0 3.03046,0 0.33671,0 -0.67344,0 -1.01016,0"
       id="path5674"
       inkscape:connector-curvature="0" />
    <path
       style="fill:none;fill-rule:evenodd;stroke:#000000;stroke-width:1px;stroke-linecap:butt;stroke-linejoin:miter;stroke-opacity:1"
       d="m 67.680221,978.62106 c 2.020305,-0.33672 4.04061,-0.67343 6.060915,-1.01015 0.336717,-0.33672 0.558398,-0.85957 1.010152,-1.01016 0.638877,-0.21295 1.381429,0.21296 2.020305,0 0.451754,-0.15058 0.584235,-0.79719 1.010153,-1.01015 0.301169,-0.15058 0.673435,0 1.010153,0 1.010152,0 2.126949,-0.45175 3.030457,0 0.301169,0.15059 0.238095,0.77206 0,1.01015 -0.532397,0.5324 -1.393835,0.59251 -2.020305,1.01016 -0.396214,0.26414 -0.584235,0.79719 -1.010152,1.01015 -0.30117,0.15058 -0.772058,-0.2381 -1.010153,0 -0.238095,0.23809 0.238095,0.77206 0,1.01015 -0.238095,0.2381 -1.010153,0.33672 -1.010153,0 0,-0.33672 0.673435,0 1.010153,0 0.673435,0 1.34687,0 2.020305,0 1.010153,0 2.072143,0.31944 3.030458,0 0.319438,-0.10648 -0.238096,-0.77206 0,-1.01015 0.238095,-0.2381 0.673435,0 1.010152,0 0.336718,0 0.772058,-0.2381 1.010153,0 0.238095,0.23809 -0.238095,0.77206 0,1.01015 0.238095,0.2381 0.673435,0 1.010152,0 0.336718,0 0.673435,0 1.010153,0 2.020305,0 4.04061,0 6.060915,0 0.336718,0 0.772057,0.2381 1.010153,0 0.238095,-0.23809 -0.238096,-0.77206 0,-1.01015 0.238095,-0.2381 0.673435,0 1.010152,0 1.010153,0 2.050466,0.245 3.030458,0 4.992993,-1.24825 -2.113971,-1.01015 2.020303,-1.01015 0.99572,0 3.01603,0 2.02031,0 -0.67344,0 -2.693743,0 -2.02031,0 1.68359,0 3.36718,0 5.05076,0 0.33672,0 0.69072,0.10648 1.01016,0 0.71428,-0.2381 1.28986,-0.82755 2.0203,-1.01016 0.65333,-0.16333 1.34687,0 2.02031,0 1.34687,0 2.69374,0 4.04061,0 0.33672,0 0.67343,0 1.01015,0 0.67344,0 2.02031,-0.67343 2.02031,0 0,0.75293 -1.48791,0.47776 -2.02031,1.01016 -0.47619,0.47619 0.47619,1.54411 0,2.0203 -0.2381,0.2381 -1.01015,0.33672 -1.01015,0 0,-0.33672 0.67343,0 1.01015,0"
       id="path5676"
       inkscape:connector-curvature="0" />
    <path
       style="fill:none;fill-rule:evenodd;stroke:#000000;stroke-width:1px;stroke-linecap:butt;stroke-linejoin:miter;stroke-opacity:1"
       d="m 71.720831,995.79365 c 5.38748,0 10.77496,0 16.16244,0 1.683588,0 3.390083,-0.27678 5.050763,0 0.742679,0.12378 1.289862,0.82754 2.020305,1.01016 0.653328,0.16333 1.417967,-0.30117 2.020305,0 0.30117,0.15058 0,0.67343 0,1.01015 0,0.33672 0.30117,0.85957 0,1.01015 -0.602338,0.30117 -1.544114,-0.47619 -2.020305,0 -0.47619,0.47619 0.30117,1.41799 0,2.02029 -0.150584,0.3012 -0.772057,-0.2381 -1.010152,0 -0.238096,0.2381 -0.336718,1.0102 0,1.0102 0.47619,0 0.54818,-0.8947 1.010152,-1.0102 7.659641,-1.9149 -0.310493,2.3308 4.04061,-2.02029 0.238096,-0.23809 0.673435,0 1.010151,0 2.02031,0 4.04061,0 6.06092,0 0.33671,0 0.67343,0 1.01015,0 0.33672,0 0.70898,-0.15058 1.01015,0 1.08588,0.54294 1.90324,1.56939 3.03046,2.02029 0.61987,0.248 6.06092,-0.6775 6.06092,1.0102 0,0.6734 -1.34687,0 -2.02031,0 -0.33672,0 0.67344,0 1.01015,0"
       id="path5678"
       inkscape:connector-curvature="0" />
    <path
       style="fill:none;fill-rule:evenodd;stroke:#000000;stroke-width:1px;stroke-linecap:butt;stroke-linejoin:miter;stroke-opacity:1"
       d="m 70.710678,1013.9764 c 4.04061,0 8.081221,0 12.121831,0 3.94611,0 0.106644,-0.3012 4.04061,1.0101 0.638876,0.213 1.417966,-0.3011 2.020305,0 1.077496,0.5388 1.588349,1.8741 1.010153,3.0305 -0.150585,0.3012 -1.346871,0 -1.010153,0 2.020305,0 4.04061,0 6.060915,0 0.673435,0 1.359948,-0.1321 2.020305,0 1.044117,0.2088 1.997456,0.7519 3.030456,1.0102 0.32667,0.082 0.70899,-0.1506 1.01015,0 0.42592,0.2129 0.5584,0.8595 1.01016,1.0101 0.95831,0.3195 2.0203,0 3.03045,0 2.69374,0 5.38748,0 8.08123,0 0.33671,0 0.67343,0 1.01015,0 0.33672,0 0.77205,0.2381 1.01015,0 0.74317,-0.7432 -0.81291,-1.8231 -1.01015,-2.0203"
       id="path5680"
       inkscape:connector-curvature="0" />
    <path
       style="fill:none;fill-rule:evenodd;stroke:#000000;stroke-width:1px;stroke-linecap:butt;stroke-linejoin:miter;stroke-opacity:1"
       d="m 104.55079,1011.9561 c 0,0.6734 0,1.3469 0,2.0203 -0.16836,0 -0.38603,-0.1191 -0.50508,0 -0.11905,0.1191 0.11905,0.386 0,0.5051 -0.11905,0.119 -0.33672,0 -0.50507,0 -0.16836,0 -0.33672,0 -0.50508,0"
       id="path5682"
       inkscape:connector-curvature="0" />
    <path
       style="fill:none;fill-rule:evenodd;stroke:#000000;stroke-width:1px;stroke-linecap:butt;stroke-linejoin:miter;stroke-opacity:1"
       d="m 86.368043,1008.9256 c -0.168359,0.6735 -0.01423,1.5295 -0.505077,2.0203 -0.01659,0.017 -2.591843,0 -3.030457,0"
       id="path5684"
       inkscape:connector-curvature="0" />
  </g>
</svg>
