<?xml version="1.0" encoding="UTF-8" standalone="no"?>
<!-- Created with Inkscape (http://www.inkscape.org/) -->

<svg
   xmlns:osb="http://www.openswatchbook.org/uri/2009/osb"
   xmlns:dc="http://purl.org/dc/elements/1.1/"
   xmlns:cc="http://creativecommons.org/ns#"
   xmlns:rdf="http://www.w3.org/1999/02/22-rdf-syntax-ns#"
   xmlns:svg="http://www.w3.org/2000/svg"
   xmlns="http://www.w3.org/2000/svg"
   xmlns:sodipodi="http://sodipodi.sourceforge.net/DTD/sodipodi-0.dtd"
   xmlns:inkscape="http://www.inkscape.org/namespaces/inkscape"
   width="48mm"
   height="48mm"
   viewBox="0 0 170.07874 170.07874"
   id="svg5705"
   version="1.1"
   inkscape:version="0.91 r13725"
   sodipodi:docname="myico_b_13_gas.svg">
  <defs
     id="defs5707">
    <inkscape:path-effect
       effect="spiro"
       id="path-effect5614"
       is_visible="true" />
    <inkscape:path-effect
       effect="spiro"
       id="path-effect5610"
       is_visible="true" />
    <inkscape:path-effect
       effect="spiro"
       id="path-effect5591"
       is_visible="true" />
    <inkscape:path-effect
       effect="spiro"
       id="path-effect5587"
       is_visible="true" />
    <inkscape:path-effect
       effect="spiro"
       id="path-effect5579"
       is_visible="true" />
    <inkscape:path-effect
       effect="spiro"
       id="path-effect5453"
       is_visible="true" />
    <inkscape:path-effect
       effect="spiro"
       id="path-effect5449"
       is_visible="true" />
    <inkscape:path-effect
       effect="spiro"
       id="path-effect5437"
       is_visible="true" />
    <inkscape:path-effect
       effect="spiro"
       id="path-effect5433"
       is_visible="true" />
    <inkscape:path-effect
       effect="spiro"
       id="path-effect5429"
       is_visible="true" />
    <inkscape:path-effect
       effect="spiro"
       id="path-effect5421"
       is_visible="true" />
    <inkscape:path-effect
       effect="spiro"
       id="path-effect5417"
       is_visible="true" />
    <inkscape:path-effect
       effect="spiro"
       id="path-effect5413"
       is_visible="true" />
    <inkscape:path-effect
       effect="spiro"
       id="path-effect5409"
       is_visible="true" />
    <inkscape:path-effect
       effect="spiro"
       id="path-effect5405"
       is_visible="true" />
    <inkscape:path-effect
       effect="spiro"
       id="path-effect5401"
       is_visible="true" />
    <inkscape:path-effect
       effect="spiro"
       id="path-effect5397"
       is_visible="true" />
    <inkscape:path-effect
       effect="spiro"
       id="path-effect5393"
       is_visible="true" />
    <inkscape:path-effect
       effect="spiro"
       id="path-effect5389"
       is_visible="true" />
    <inkscape:path-effect
       effect="spiro"
       id="path-effect5369"
       is_visible="true" />
    <inkscape:path-effect
       effect="spiro"
       id="path-effect5365"
       is_visible="true" />
    <inkscape:path-effect
       effect="spiro"
       id="path-effect5361"
       is_visible="true" />
    <inkscape:path-effect
       effect="spiro"
       id="path-effect5357"
       is_visible="true" />
    <inkscape:path-effect
       effect="skeletal"
       id="path-effect5347"
       is_visible="true"
       pattern="m 0,887.28346 c 0,-2.76 2.24,-5 5,-5 2.76,0 5,2.24 5,5 0,2.76 -2.24,5 -5,5 -2.76,0 -5,-2.24 -5,-5 z"
       copytype="single_stretched"
       prop_scale="1"
       scale_y_rel="false"
       spacing="0"
       normal_offset="0"
       tang_offset="0"
       prop_units="false"
       vertical_pattern="false"
       fuse_tolerance="0" />
    <inkscape:path-effect
       effect="spiro"
       id="path-effect5345"
       is_visible="true" />
    <inkscape:path-effect
       effect="skeletal"
       id="path-effect5319"
       is_visible="true"
       pattern="m 139,2746.0078 c 0,-2.76 2.24,-5 5,-5 2.76,0 5,2.24 5,5 0,2.76 -2.24,5 -5,5 -2.76,0 -5,-2.24 -5,-5 z"
       copytype="single_stretched"
       prop_scale="1"
       scale_y_rel="false"
       spacing="0"
       normal_offset="0"
       tang_offset="0"
       prop_units="false"
       vertical_pattern="false"
       fuse_tolerance="0" />
    <inkscape:path-effect
       effect="spiro"
       id="path-effect5317"
       is_visible="true" />
    <inkscape:path-effect
       effect="skeletal"
       id="path-effect5289"
       is_visible="true"
       pattern="m 0,887.28346 c 0,-2.76 2.24,-5 5,-5 2.76,0 5,2.24 5,5 0,2.76 -2.24,5 -5,5 -2.76,0 -5,-2.24 -5,-5 z"
       copytype="single_stretched"
       prop_scale="1"
       scale_y_rel="false"
       spacing="0"
       normal_offset="0"
       tang_offset="0"
       prop_units="false"
       vertical_pattern="false"
       fuse_tolerance="0" />
    <inkscape:path-effect
       effect="spiro"
       id="path-effect5287"
       is_visible="true" />
    <inkscape:path-effect
       effect="skeletal"
       id="path-effect5277"
       is_visible="true"
       pattern="m 109,2734.6837 c 0,-2.76 2.24,-5 5,-5 2.76,0 5,2.24 5,5 0,2.76 -2.24,5 -5,5 -2.76,0 -5,-2.24 -5,-5 z"
       copytype="single_stretched"
       prop_scale="1"
       scale_y_rel="false"
       spacing="0"
       normal_offset="0"
       tang_offset="0"
       prop_units="false"
       vertical_pattern="false"
       fuse_tolerance="0" />
    <inkscape:path-effect
       effect="spiro"
       id="path-effect5275"
       is_visible="true" />
    <inkscape:path-effect
       fuse_tolerance="0"
       vertical_pattern="false"
       prop_units="false"
       tang_offset="0"
       normal_offset="0"
       spacing="0"
       scale_y_rel="false"
       prop_scale="1"
       copytype="single_stretched"
       pattern="m 74.5,1789.1456 c 0,-2.76 2.24,-5 5,-5 2.76,0 5,2.24 5,5 0,2.76 -2.24,5 -5,5 -2.76,0 -5,-2.24 -5,-5 z"
       is_visible="true"
       id="path-effect5252"
       effect="skeletal" />
    <inkscape:path-effect
       is_visible="true"
       id="path-effect5250"
       effect="spiro" />
    <inkscape:path-effect
       effect="skeletal"
       id="path-effect5227"
       is_visible="true"
       pattern="m -45,837.28346 c 0,-2.76 2.24,-5 5,-5 2.76,0 5,2.24 5,5 0,2.76 -2.24,5 -5,5 -2.76,0 -5,-2.24 -5,-5 z"
       copytype="single_stretched"
       prop_scale="1"
       scale_y_rel="false"
       spacing="0"
       normal_offset="0"
       tang_offset="0"
       prop_units="false"
       vertical_pattern="false"
       fuse_tolerance="0" />
    <inkscape:path-effect
       effect="spiro"
       id="path-effect5225"
       is_visible="true" />
    <inkscape:path-effect
       effect="skeletal"
       id="path-effect5215"
       is_visible="true"
       pattern="m 0,887.28346 c 0,-2.76 2.24,-5 5,-5 2.76,0 5,2.24 5,5 0,2.76 -2.24,5 -5,5 -2.76,0 -5,-2.24 -5,-5 z"
       copytype="single_stretched"
       prop_scale="1"
       scale_y_rel="false"
       spacing="0"
       normal_offset="0"
       tang_offset="0"
       prop_units="false"
       vertical_pattern="false"
       fuse_tolerance="0" />
    <inkscape:path-effect
       effect="spiro"
       id="path-effect5213"
       is_visible="true" />
    <inkscape:path-effect
       effect="skeletal"
       id="path-effect5203"
       is_visible="true"
       pattern="m 65,917.28346 c 0,-2.76 2.24,-5 5,-5 2.76,0 5,2.24 5,5 0,2.76 -2.24,5 -5,5 -2.76,0 -5,-2.24 -5,-5 z"
       copytype="single_stretched"
       prop_scale="1"
       scale_y_rel="false"
       spacing="0"
       normal_offset="0"
       tang_offset="0"
       prop_units="false"
       vertical_pattern="false"
       fuse_tolerance="0" />
    <inkscape:path-effect
       effect="spiro"
       id="path-effect5201"
       is_visible="true" />
    <inkscape:path-effect
       effect="skeletal"
       id="path-effect5197"
       is_visible="true"
       pattern="m 0,887.28346 c 0,-2.76 2.24,-5 5,-5 2.76,0 5,2.24 5,5 0,2.76 -2.24,5 -5,5 -2.76,0 -5,-2.24 -5,-5 z"
       copytype="single_stretched"
       prop_scale="1"
       scale_y_rel="false"
       spacing="0"
       normal_offset="0"
       tang_offset="0"
       prop_units="false"
       vertical_pattern="false"
       fuse_tolerance="0" />
    <inkscape:path-effect
       effect="spiro"
       id="path-effect5195"
       is_visible="true" />
    <inkscape:path-effect
       effect="spiro"
       id="path-effect5191"
       is_visible="true" />
    <inkscape:path-effect
       effect="spiro"
       id="path-effect5138"
       is_visible="true" />
    <inkscape:path-effect
       effect="spiro"
       id="path-effect5134"
       is_visible="true" />
    <inkscape:path-effect
       effect="spiro"
       id="path-effect5126"
       is_visible="true" />
    <inkscape:path-effect
       effect="spiro"
       id="path-effect4719"
       is_visible="true" />
    <inkscape:path-effect
       effect="spiro"
       id="path-effect4715"
       is_visible="true" />
    <inkscape:path-effect
       effect="spiro"
       id="path-effect4711"
       is_visible="true" />
    <inkscape:path-effect
       effect="spiro"
       id="path-effect4707"
       is_visible="true" />
    <inkscape:path-effect
       effect="spiro"
       id="path-effect4703"
       is_visible="true" />
    <inkscape:path-effect
       effect="spiro"
       id="path-effect4441"
       is_visible="true" />
    <inkscape:path-effect
       effect="spiro"
       id="path-effect4429"
       is_visible="true" />
    <inkscape:path-effect
       effect="spiro"
       id="path-effect4425"
       is_visible="true" />
    <inkscape:path-effect
       effect="spiro"
       id="path-effect4360"
       is_visible="true" />
    <inkscape:path-effect
       effect="spiro"
       id="path-effect4337"
       is_visible="true" />
    <inkscape:path-effect
       effect="spiro"
       id="path-effect4333"
       is_visible="true" />
    <inkscape:path-effect
       effect="spiro"
       id="path-effect4329"
       is_visible="true" />
    <linearGradient
       id="linearGradient4303"
       osb:paint="solid">
      <stop
         style="stop-color:#000000;stop-opacity:1;"
         offset="0"
         id="stop4305" />
    </linearGradient>
    <inkscape:path-effect
       effect="spiro"
       id="path-effect4360-9"
       is_visible="true" />
    <inkscape:path-effect
       effect="spiro"
       id="path-effect4441-7"
       is_visible="true" />
    <inkscape:path-effect
       effect="spiro"
       id="path-effect4441-7-5"
       is_visible="true" />
    <inkscape:path-effect
       effect="spiro"
       id="path-effect4441-7-5-0"
       is_visible="true" />
    <inkscape:path-effect
       effect="spiro"
       id="path-effect4441-7-5-0-1"
       is_visible="true" />
    <inkscape:path-effect
       effect="spiro"
       id="path-effect4441-7-5-0-1-2"
       is_visible="true" />
    <inkscape:path-effect
       effect="spiro"
       id="path-effect4441-7-5-0-1-2-4"
       is_visible="true" />
    <inkscape:path-effect
       effect="spiro"
       id="path-effect4441-7-5-0-1-2-4-9"
       is_visible="true" />
    <inkscape:path-effect
       effect="spiro"
       id="path-effect4441-7-5-0-1-2-9"
       is_visible="true" />
    <inkscape:path-effect
       effect="spiro"
       id="path-effect4441-7-5-0-1-8"
       is_visible="true" />
    <inkscape:path-effect
       effect="spiro"
       id="path-effect4441-7-5-0-5"
       is_visible="true" />
    <inkscape:path-effect
       effect="spiro"
       id="path-effect4441-7-5-6"
       is_visible="true" />
    <inkscape:path-effect
       effect="spiro"
       id="path-effect4441-7-5-6-0"
       is_visible="true" />
    <inkscape:path-effect
       effect="spiro"
       id="path-effect4441-7-5-0-5-8"
       is_visible="true" />
    <inkscape:path-effect
       effect="spiro"
       id="path-effect4441-7-5-0-1-8-2"
       is_visible="true" />
    <inkscape:path-effect
       effect="spiro"
       id="path-effect4441-7-5-0-1-2-9-4"
       is_visible="true" />
    <inkscape:path-effect
       effect="spiro"
       id="path-effect4441-7-5-0-1-2-4-9-8"
       is_visible="true" />
    <inkscape:path-effect
       effect="spiro"
       id="path-effect4441-7-5-6-09"
       is_visible="true" />
    <inkscape:path-effect
       effect="spiro"
       id="path-effect4441-7-5-0-5-5"
       is_visible="true" />
    <inkscape:path-effect
       effect="spiro"
       id="path-effect4441-7-5-0-1-8-1"
       is_visible="true" />
    <inkscape:path-effect
       effect="spiro"
       id="path-effect4441-7-5-0-1-2-9-0"
       is_visible="true" />
    <inkscape:path-effect
       effect="spiro"
       id="path-effect4441-7-5-0-1-2-4-9-6"
       is_visible="true" />
    <inkscape:path-effect
       effect="spiro"
       id="path-effect4441-7-5-0-1-2-4-1"
       is_visible="true" />
    <inkscape:path-effect
       effect="spiro"
       id="path-effect4441-7-5-0-1-2-46"
       is_visible="true" />
    <inkscape:path-effect
       effect="spiro"
       id="path-effect4441-7-5-0-1-82"
       is_visible="true" />
    <inkscape:path-effect
       effect="spiro"
       id="path-effect4441-7-5-0-8"
       is_visible="true" />
    <inkscape:path-effect
       effect="spiro"
       id="path-effect4441-7-5-7"
       is_visible="true" />
    <inkscape:path-effect
       effect="spiro"
       id="path-effect5225-9"
       is_visible="true" />
    <inkscape:path-effect
       effect="skeletal"
       id="path-effect5227-9"
       is_visible="true"
       pattern="m -74.5,-119.57874 c 0,-2.76 2.24,-5 5,-5 2.76,0 5,2.24 5,5 0,2.76 -2.24,5 -5,5 -2.76,0 -5,-2.24 -5,-5 z"
       copytype="single_stretched"
       prop_scale="1"
       scale_y_rel="false"
       spacing="0"
       normal_offset="0"
       tang_offset="0"
       prop_units="false"
       vertical_pattern="false"
       fuse_tolerance="0" />
    <inkscape:path-effect
       is_visible="true"
       id="path-effect5250-9"
       effect="spiro" />
    <inkscape:path-effect
       fuse_tolerance="0"
       vertical_pattern="false"
       prop_units="false"
       tang_offset="0"
       normal_offset="0"
       spacing="0"
       scale_y_rel="false"
       prop_scale="1"
       copytype="single_stretched"
       pattern="m -45,832.2834 c 0,-2.76 2.24,-5 5,-5 2.76,0 5,2.24 5,5 0,2.76 -2.24,5 -5,5 -2.76,0 -5,-2.24 -5,-5 z"
       is_visible="true"
       id="path-effect5252-9"
       effect="skeletal" />
    <inkscape:path-effect
       is_visible="true"
       id="path-effect5250-6"
       effect="spiro" />
    <inkscape:path-effect
       fuse_tolerance="0"
       vertical_pattern="false"
       prop_units="false"
       tang_offset="0"
       normal_offset="0"
       spacing="0"
       scale_y_rel="false"
       prop_scale="1"
       copytype="single_stretched"
       pattern="m -45,832.2834 c 0,-2.76 2.24,-5 5,-5 2.76,0 5,2.24 5,5 0,2.76 -2.24,5 -5,5 -2.76,0 -5,-2.24 -5,-5 z"
       is_visible="true"
       id="path-effect5252-94"
       effect="skeletal" />
    <inkscape:path-effect
       effect="spiro"
       id="path-effect5453-0"
       is_visible="true" />
    <inkscape:path-effect
       effect="spiro"
       id="path-effect5449-4"
       is_visible="true" />
    <inkscape:path-effect
       effect="spiro"
       id="path-effect5433-0"
       is_visible="true" />
    <inkscape:path-effect
       effect="spiro"
       id="path-effect5429-1"
       is_visible="true" />
    <inkscape:path-effect
       effect="spiro"
       id="path-effect5429-1-4"
       is_visible="true" />
    <inkscape:path-effect
       effect="spiro"
       id="path-effect5433-0-4"
       is_visible="true" />
    <inkscape:path-effect
       effect="spiro"
       id="path-effect5449-4-6"
       is_visible="true" />
    <inkscape:path-effect
       effect="spiro"
       id="path-effect5453-0-7"
       is_visible="true" />
  </defs>
  <sodipodi:namedview
     id="base"
     pagecolor="#ffffff"
     bordercolor="#666666"
     borderopacity="1.0"
     inkscape:pageopacity="0.0"
     inkscape:pageshadow="2"
     inkscape:zoom="2.8"
     inkscape:cx="101.20586"
     inkscape:cy="78.530024"
     inkscape:document-units="px"
     inkscape:current-layer="layer1"
     showgrid="true"
     inkscape:object-paths="false"
     inkscape:window-width="1536"
     inkscape:window-height="801"
     inkscape:window-x="1536"
     inkscape:window-y="23"
     inkscape:window-maximized="0"
     inkscape:snap-bbox="true"
     inkscape:snap-global="true"
     inkscape:bbox-paths="false"
     showguides="false"
     inkscape:snap-intersection-paths="false"
     inkscape:object-nodes="false"
     inkscape:snap-grids="false"
     inkscape:snap-to-guides="false">
    <inkscape:grid
       type="xygrid"
       id="grid9441" />
  </sodipodi:namedview>
  <metadata
     id="metadata5710">
    <rdf:RDF>
      <cc:Work
         rdf:about="">
        <dc:format>image/svg+xml</dc:format>
        <dc:type
           rdf:resource="http://purl.org/dc/dcmitype/StillImage" />
        <dc:title></dc:title>
      </cc:Work>
    </rdf:RDF>
  </metadata>
  <g
     inkscape:label="Layer 1"
     inkscape:groupmode="layer"
     id="layer1"
     transform="translate(0,-882.28346)"
     style="display:inline">
    <rect
       style="opacity:1;fill:#000000;fill-opacity:1;fill-rule:evenodd;stroke:#000000;stroke-width:4;stroke-linecap:round;stroke-linejoin:round;stroke-miterlimit:4;stroke-dasharray:none;stroke-dashoffset:0;stroke-opacity:1"
       id="rect4458"
       width="85"
       height="81.785713"
       x="35"
       y="899.86218" />
    <rect
       style="display:inline;opacity:1;fill:#000000;fill-opacity:1;fill-rule:evenodd;stroke:#000000;stroke-width:3.23384643;stroke-linecap:round;stroke-linejoin:round;stroke-miterlimit:4;stroke-dasharray:none;stroke-dashoffset:0;stroke-opacity:1"
       id="rect4458-4"
       width="61.123295"
       height="74.337578"
       x="46.759777"
       y="964.65778" />
    <rect
       style="opacity:1;fill:#ffffff;fill-opacity:1;fill-rule:evenodd;stroke:#ffffff;stroke-width:3.13688827;stroke-linecap:round;stroke-linejoin:round;stroke-miterlimit:4;stroke-dasharray:none;stroke-dashoffset:0;stroke-opacity:1"
       id="rect4475"
       width="66.93454"
       height="37.291683"
       x="43.497013"
       y="908.00208" />
    <path
       style="fill:none;fill-rule:evenodd;stroke:#000000;stroke-width:1.42504954;stroke-linecap:butt;stroke-linejoin:miter;stroke-miterlimit:4;stroke-dasharray:none;stroke-opacity:1"
       d="m 111.39462,996.37518 c 0.47689,0.32187 0.95378,0.64375 1.43066,0.96562 0.35768,0.10729 0.75931,0.13367 1.073,0.32187 0.42087,0.2525 0.63383,0.73977 1.073,0.96562 0.42679,0.21948 0.97884,0.14761 1.43066,0.32187 0.39511,0.15239 0.70848,0.43872 1.073,0.64375 0.58951,0.33156 1.18474,0.65519 1.78832,0.96559 1.79854,0.9249 -0.7165,-0.64442 2.50366,1.2875 0.49599,0.2976 0.94559,0.6539 1.43067,0.9656 0.34979,0.2249 0.7291,0.4117 1.07299,0.6438 0.61072,0.4122 1.16713,0.8881 1.78833,1.2875 0.21693,0.1394 0.50716,0.1719 0.71532,0.3218 0.39498,0.2844 0.68442,0.6742 1.073,0.9657 0.33023,0.2476 0.74278,0.3961 1.073,0.6437 0.38858,0.2914 0.68442,0.6742 1.073,0.9657 0.33023,0.2476 0.73732,0.402 1.07299,0.6437 0.26332,0.1895 0.45931,0.4462 0.71533,0.6437 0.74144,0.5719 2.20389,1.4642 2.86133,2.2531 0.4171,0.5005 0.61522,1.1386 1.073,1.6094 0.39253,0.4037 0.97806,0.6165 1.43066,0.9656 2.70147,2.0839 -0.92329,-0.1974 2.86132,1.9312 1.34865,0.7586 1.03466,0.6651 2.50366,1.6095 0.34979,0.2247 0.67789,0.4913 1.07299,0.6436 0.45182,0.1743 0.97884,0.1476 1.43066,0.3219 1.80879,1.0852 0.295,0.2994 2.146,0.9656 0.24752,0.089 0.45391,0.2748 0.71532,0.322 0.35073,0.063 0.71534,0 1.073,0 0.71534,0 1.43066,0 2.146,0 0.12294,0 2.305,0.059 2.50366,0 0.2529,-0.076 0.45669,-0.2637 0.71532,-0.322 0.23133,-0.052 0.50206,0.096 0.71534,0 0.10663,-0.048 -0.0843,-0.2459 0,-0.3218 0.1885,-0.1697 0.52682,-0.1522 0.71533,-0.3219 0.0843,-0.076 -0.10664,-0.2739 0,-0.3219 1.37019,-0.6165 0.17742,1.2901 1.43066,-0.9655 0.0533,-0.096 -0.0533,-0.226 0,-0.322 0.0754,-0.1357 0.31677,-0.1746 0.35766,-0.3218 0.0665,-0.2395 0,-2.6056 0,-2.8969 0,-1.003 0.10072,-1.9343 -0.35766,-2.8968 -0.16934,-0.3556 -0.46548,-0.6508 -0.71533,-0.9656 -1.75994,-2.2174 -0.40748,-0.3817 -2.50366,-2.8969 -0.61535,-0.7384 -1.2002,-1.497 -1.78832,-2.2531 -0.24651,-0.3169 -0.43559,-0.6719 -0.71534,-0.9656 -0.4389,-0.4608 -0.95377,-0.8584 -1.43066,-1.2875 -0.8483,-0.7634 -1.2977,-1.1679 -2.146,-1.9313 -0.95377,-0.8583 -1.90754,-1.71663 -2.86132,-2.57495 -0.35766,-0.32188 -0.71533,-0.64375 -1.07299,-0.96562 -0.35767,-0.32188 -0.79242,-0.58688 -1.073,-0.96562 -0.20913,-0.28231 -0.091,-0.72571 -0.35766,-0.96562 -0.26659,-0.23991 -0.73579,-0.17014 -1.073,-0.32187 -0.1508,-0.0679 -0.23844,-0.21459 -0.35766,-0.32188 -0.35767,-0.32187 -0.71534,-0.64374 -1.073,-0.96561 -0.11923,-0.1073 -0.28226,-0.18617 -0.35766,-0.32188 -0.0533,-0.096 0.0289,-0.21779 0,-0.32187 -0.0914,-0.32916 -0.18907,-0.66216 -0.35768,-0.96562 -0.1508,-0.27143 -0.56452,-0.37232 -0.71532,-0.64374 -0.0533,-0.096 0.10663,-0.2739 0,-0.32188 -0.21327,-0.096 -0.48913,0.0679 -0.71534,0 -0.71864,-0.21558 -0.12349,-0.75489 -0.35766,-0.96562 -0.0843,-0.0759 -0.23845,0 -0.35766,0 0,-0.21458 0.0754,-0.44017 0,-0.64374 -0.10664,-0.2879 -0.56453,-0.37233 -0.71534,-0.64375 -0.10663,-0.19193 0.10664,-0.45182 0,-0.64374 -0.1508,-0.27143 -0.60869,-0.35586 -0.71532,-0.64375 -5.4e-4,-0.002 3.4e-4,-0.96532 0,-0.96562 -0.43564,-0.39204 -0.79911,-0.15077 -1.073,-0.64375 -0.0533,-0.096 0.0533,-0.22591 0,-0.32187 -0.0754,-0.13571 -0.28226,-0.18616 -0.35767,-0.32187 -0.0533,-0.096 0.0377,-0.22009 0,-0.32187 -0.86357,-2.33147 0.10312,0.50746 -0.71533,-0.96562 -0.0533,-0.096 0.0533,-0.22591 0,-0.32188 -0.0754,-0.13571 -0.28226,-0.18616 -0.35766,-0.32187 -0.0533,-0.096 0.0533,-0.22591 0,-0.32187 -0.2739,-0.49298 -0.63737,-0.25171 -1.073,-0.64375 -0.0843,-0.0759 0.0377,-0.22009 0,-0.32187 -0.0843,-0.2276 -0.20979,-0.44413 -0.35767,-0.64375 -0.21706,-0.293 -0.91449,-0.68033 -1.07299,-0.96562 -0.0533,-0.096 0.0533,-0.2259 0,-0.32187 -0.0754,-0.13571 -0.23845,-0.21458 -0.35767,-0.32188 -0.11921,-0.10729 -0.20686,-0.25401 -0.35766,-0.32187 -0.10664,-0.0479 -0.25847,0.0595 -0.35767,0 -0.82933,-0.49755 -0.78282,-0.98586 -1.78833,-1.28749 -0.20718,-0.0622 -1.12071,0 -1.43066,0 -0.62955,0 -0.71532,-0.26621 -0.71532,0.32187"
       id="path4477"
       inkscape:connector-curvature="0" />
    <rect
       style="opacity:1;fill:#000000;fill-opacity:1;fill-rule:evenodd;stroke:none;stroke-width:2.06153536;stroke-linecap:round;stroke-linejoin:round;stroke-miterlimit:4;stroke-dasharray:none;stroke-dashoffset:0;stroke-opacity:1"
       id="rect4479"
       width="7.6527486"
       height="48.367039"
       x="123.67362"
       y="928.89301" />
    <path
       style="fill:none;fill-rule:evenodd;stroke:#000000;stroke-width:3.31615281;stroke-linecap:butt;stroke-linejoin:miter;stroke-miterlimit:4;stroke-dasharray:none;stroke-opacity:1"
       d="m 128.92139,955.60338 c 0.0477,0.0695 1.66676,-0.55228 2.14314,-0.36816 1.98204,0.76608 -0.28745,-0.0255 1.19062,0.7363 0.0753,0.0388 0.15875,0 0.23813,0 0.23813,0 0.48847,-0.11642 0.71437,0 0.27151,0.13992 0.45841,0.53844 0.71438,0.7363 0.071,0.0548 0.15875,0 0.23813,0 0.15875,0 0.32564,-0.0776 0.47625,0 0.10649,0.0548 0.13772,0.29054 0.23812,0.36816 0.22451,0.17355 0.48988,0.1946 0.71438,0.36815 0.72618,0.56135 -0.43551,0.29186 0.71438,0.73631 0.15401,0.0595 0.34416,-0.13615 0.47625,0 0.14768,0.15221 0.11262,0.54226 0.23813,0.7363 2.2e-4,3.5e-4 0.71329,-5.6e-4 0.71438,0 0.74326,0.38304 -0.0794,0.24543 0.23812,0.7363 0.0561,0.0868 0.16283,-0.0388 0.23812,0 0.16838,0.0868 0.32858,0.21594 0.47626,0.36815 0.0654,0.0674 0.69765,1.02687 0.71437,1.10446 0.0502,0.23284 -0.0502,0.50346 0,0.7363 0.0355,0.16464 0.18793,0.21292 0.23813,0.36815 0.071,0.21953 -0.0502,0.50347 0,0.7363 0.0561,0.26033 0.19508,0.4701 0.23812,0.73631 0.0385,0.23811 -0.0881,0.53209 0,0.7363 0.0985,0.22833 0.35075,0.17412 0.47626,0.36816 0.0561,0.0868 0,0.24543 0,0.36815 0,0.0693 0.009,1.8196 0,1.84075 -0.0985,0.22832 -0.3778,0.13984 -0.47626,0.36816 -0.0264,0.0613 0.0209,2.04693 0,2.2089 -0.0348,0.26908 -0.19508,0.4701 -0.23812,0.73631 -0.2062,1.27516 0.30153,0.22111 -0.23813,1.4726 -0.12453,0.28881 -0.37584,0.42586 -0.47625,0.73631 -0.084,0.25986 0.084,1.21275 0,1.47261 -0.0794,0.24543 -0.32857,0.21593 -0.47625,0.36815 -0.0978,0.10081 -0.64916,0.95321 -0.71437,1.10445 -0.14502,0.33631 -0.20326,0.89343 -0.47626,1.10446 -0.071,0.0548 -0.15875,0 -0.23812,0 -0.15876,0.12272 -0.32858,0.21594 -0.47626,0.36815 -0.0934,0.0963 -0.13771,0.29054 -0.23812,0.36815 -0.14967,0.1157 -0.80284,-0.11569 -0.9525,0 -0.1004,0.0776 -0.13163,0.31327 -0.23813,0.36816 -0.17232,0.0888 -0.87401,-0.12136 -0.9525,0 -0.0561,0.0868 0.071,0.31326 0,0.36814 -0.14199,0.10977 -0.3175,0 -0.47625,0 -0.39688,0 -0.79376,0 -1.19063,0 -0.55563,0 -1.11125,0 -1.66688,0 -0.23813,0 -0.48088,0.0722 -0.71438,0 -0.24613,-0.0761 -0.47086,-0.27403 -0.71437,-0.36814 -0.81179,-0.31377 0.85749,1.03101 -0.95251,-0.36816 -0.25598,-0.19787 -0.45839,-0.53842 -0.71437,-0.7363 -0.19051,-0.14726 -0.52388,0.14726 -0.71438,0 -0.28352,-0.21916 -0.3323,-0.73631 -0.23813,-0.73631 0.0794,0 0,0.49087 0,0.36816 0,-0.24544 0,-0.49088 0,-0.73631 0,-0.12272 0,-0.24544 0,-0.36815 0,-0.12272 -0.0561,-0.28138 0,-0.36816 0.0561,-0.0868 0.20263,0.10977 0.23813,0 0.071,-0.21951 0,-0.49086 0,-0.73629 0,-0.1658 -0.0362,-0.99242 0,-1.10446 0.0502,-0.15522 0.15875,-0.24544 0.23812,-0.36815"
       id="path4481"
       inkscape:connector-curvature="0" />
  </g>
</svg>
