<?xml version="1.0" encoding="UTF-8" standalone="no"?>
<!-- Created with Inkscape (http://www.inkscape.org/) -->

<svg
   xmlns:osb="http://www.openswatchbook.org/uri/2009/osb"
   xmlns:dc="http://purl.org/dc/elements/1.1/"
   xmlns:cc="http://creativecommons.org/ns#"
   xmlns:rdf="http://www.w3.org/1999/02/22-rdf-syntax-ns#"
   xmlns:svg="http://www.w3.org/2000/svg"
   xmlns="http://www.w3.org/2000/svg"
   xmlns:sodipodi="http://sodipodi.sourceforge.net/DTD/sodipodi-0.dtd"
   xmlns:inkscape="http://www.inkscape.org/namespaces/inkscape"
   width="48mm"
   height="48mm"
   viewBox="0 0 170.07874 170.07874"
   id="svg5705"
   version="1.1"
   inkscape:version="0.91 r13725"
   sodipodi:docname="myico_b_7_calc.svg">
  <defs
     id="defs5707">
    <inkscape:path-effect
       effect="spiro"
       id="path-effect4719"
       is_visible="true" />
    <inkscape:path-effect
       effect="spiro"
       id="path-effect4715"
       is_visible="true" />
    <inkscape:path-effect
       effect="spiro"
       id="path-effect4711"
       is_visible="true" />
    <inkscape:path-effect
       effect="spiro"
       id="path-effect4707"
       is_visible="true" />
    <inkscape:path-effect
       effect="spiro"
       id="path-effect4703"
       is_visible="true" />
    <inkscape:path-effect
       effect="spiro"
       id="path-effect4441"
       is_visible="true" />
    <inkscape:path-effect
       effect="spiro"
       id="path-effect4429"
       is_visible="true" />
    <inkscape:path-effect
       effect="spiro"
       id="path-effect4425"
       is_visible="true" />
    <inkscape:path-effect
       effect="spiro"
       id="path-effect4360"
       is_visible="true" />
    <inkscape:path-effect
       effect="spiro"
       id="path-effect4337"
       is_visible="true" />
    <inkscape:path-effect
       effect="spiro"
       id="path-effect4333"
       is_visible="true" />
    <inkscape:path-effect
       effect="spiro"
       id="path-effect4329"
       is_visible="true" />
    <linearGradient
       id="linearGradient4303"
       osb:paint="solid">
      <stop
         style="stop-color:#000000;stop-opacity:1;"
         offset="0"
         id="stop4305" />
    </linearGradient>
    <inkscape:path-effect
       effect="spiro"
       id="path-effect4360-9"
       is_visible="true" />
    <inkscape:path-effect
       effect="spiro"
       id="path-effect4441-7"
       is_visible="true" />
    <inkscape:path-effect
       effect="spiro"
       id="path-effect4441-7-5"
       is_visible="true" />
    <inkscape:path-effect
       effect="spiro"
       id="path-effect4441-7-5-0"
       is_visible="true" />
    <inkscape:path-effect
       effect="spiro"
       id="path-effect4441-7-5-0-1"
       is_visible="true" />
    <inkscape:path-effect
       effect="spiro"
       id="path-effect4441-7-5-0-1-2"
       is_visible="true" />
    <inkscape:path-effect
       effect="spiro"
       id="path-effect4441-7-5-0-1-2-4"
       is_visible="true" />
    <inkscape:path-effect
       effect="spiro"
       id="path-effect4441-7-5-0-1-2-4-9"
       is_visible="true" />
    <inkscape:path-effect
       effect="spiro"
       id="path-effect4441-7-5-0-1-2-9"
       is_visible="true" />
    <inkscape:path-effect
       effect="spiro"
       id="path-effect4441-7-5-0-1-8"
       is_visible="true" />
    <inkscape:path-effect
       effect="spiro"
       id="path-effect4441-7-5-0-5"
       is_visible="true" />
    <inkscape:path-effect
       effect="spiro"
       id="path-effect4441-7-5-6"
       is_visible="true" />
    <inkscape:path-effect
       effect="spiro"
       id="path-effect4441-7-5-6-0"
       is_visible="true" />
    <inkscape:path-effect
       effect="spiro"
       id="path-effect4441-7-5-0-5-8"
       is_visible="true" />
    <inkscape:path-effect
       effect="spiro"
       id="path-effect4441-7-5-0-1-8-2"
       is_visible="true" />
    <inkscape:path-effect
       effect="spiro"
       id="path-effect4441-7-5-0-1-2-9-4"
       is_visible="true" />
    <inkscape:path-effect
       effect="spiro"
       id="path-effect4441-7-5-0-1-2-4-9-8"
       is_visible="true" />
    <inkscape:path-effect
       effect="spiro"
       id="path-effect4441-7-5-6-09"
       is_visible="true" />
    <inkscape:path-effect
       effect="spiro"
       id="path-effect4441-7-5-0-5-5"
       is_visible="true" />
    <inkscape:path-effect
       effect="spiro"
       id="path-effect4441-7-5-0-1-8-1"
       is_visible="true" />
    <inkscape:path-effect
       effect="spiro"
       id="path-effect4441-7-5-0-1-2-9-0"
       is_visible="true" />
    <inkscape:path-effect
       effect="spiro"
       id="path-effect4441-7-5-0-1-2-4-9-6"
       is_visible="true" />
    <inkscape:path-effect
       effect="spiro"
       id="path-effect4441-7-5-0-1-2-4-1"
       is_visible="true" />
    <inkscape:path-effect
       effect="spiro"
       id="path-effect4441-7-5-0-1-2-46"
       is_visible="true" />
    <inkscape:path-effect
       effect="spiro"
       id="path-effect4441-7-5-0-1-82"
       is_visible="true" />
    <inkscape:path-effect
       effect="spiro"
       id="path-effect4441-7-5-0-8"
       is_visible="true" />
    <inkscape:path-effect
       effect="spiro"
       id="path-effect4441-7-5-7"
       is_visible="true" />
  </defs>
  <sodipodi:namedview
     id="base"
     pagecolor="#ffffff"
     bordercolor="#666666"
     borderopacity="1.0"
     inkscape:pageopacity="0.0"
     inkscape:pageshadow="2"
     inkscape:zoom="2.8"
     inkscape:cx="37.066384"
     inkscape:cy="66.716601"
     inkscape:document-units="px"
     inkscape:current-layer="layer1"
     showgrid="true"
     inkscape:object-paths="true"
     inkscape:window-width="1536"
     inkscape:window-height="801"
     inkscape:window-x="0"
     inkscape:window-y="23"
     inkscape:window-maximized="0"
     inkscape:snap-bbox="true"
     inkscape:snap-global="true"
     inkscape:bbox-paths="true"
     showguides="false"
     inkscape:snap-intersection-paths="true">
    <inkscape:grid
       type="xygrid"
       id="grid9441" />
  </sodipodi:namedview>
  <metadata
     id="metadata5710">
    <rdf:RDF>
      <cc:Work
         rdf:about="">
        <dc:format>image/svg+xml</dc:format>
        <dc:type
           rdf:resource="http://purl.org/dc/dcmitype/StillImage" />
        <dc:title />
      </cc:Work>
    </rdf:RDF>
  </metadata>
  <g
     inkscape:groupmode="layer"
     id="layer2"
     inkscape:label="Layer 2" />
  <g
     inkscape:label="Layer 1"
     inkscape:groupmode="layer"
     id="layer1"
     transform="translate(0,-882.28346)"
     style="display:inline">
    <path
       style="fill:#ffffff;fill-rule:evenodd;stroke:#000000;stroke-width:4;stroke-linecap:butt;stroke-linejoin:miter;stroke-opacity:1;stroke-miterlimit:4;stroke-dasharray:none"
       d="m 30.477375,892.24267 109.931885,0 0,147.00403 -109.931885,0 0,-147.00403 z"
       id="path4423"
       inkscape:path-effect="#path-effect4425"
       inkscape:original-d="m 30.477375,892.24267 109.931885,0 0,147.00403 -109.931885,0 z"
       inkscape:connector-curvature="0" />
    <path
       style="fill:none;fill-rule:evenodd;stroke:#000000;stroke-width:4;stroke-linecap:butt;stroke-linejoin:miter;stroke-opacity:1;stroke-miterlimit:4;stroke-dasharray:none"
       d="m 43.081816,902.81999 85.419664,0 0,45.11628 -85.419664,0 0,-45.11628 z"
       id="path4439"
       inkscape:path-effect="#path-effect4441"
       inkscape:original-d="m 43.081816,902.81999 85.419664,0 0,45.11628 -85.419664,0 z"
       inkscape:connector-curvature="0" />
    <path
       style="display:inline;fill:#000000;fill-rule:evenodd;stroke:#000000;stroke-width:0.65743107px;stroke-linecap:butt;stroke-linejoin:miter;stroke-opacity:1"
       d="m 100.557,1002.1509 27.62927,0 0,27.376 -27.62927,0 0,-27.376 z"
       id="path4439-1"
       inkscape:path-effect="#path-effect4441-7"
       inkscape:original-d="m 100.557,1002.1509 27.62927,0 0,27.376 -27.62927,0 z"
       inkscape:connector-curvature="0" />
    <path
       style="display:inline;fill:#000000;fill-rule:evenodd;stroke:#000000;stroke-width:0.27486485px;stroke-linecap:butt;stroke-linejoin:miter;stroke-opacity:1"
       d="m 44.033856,971.18294 12.644421,0 0,10.45628 -12.644421,0 0,-10.45628 z"
       id="path4439-1-8"
       inkscape:path-effect="#path-effect4441-7-5"
       inkscape:original-d="m 44.033856,971.18294 12.644421,0 0,10.45628 -12.644421,0 z"
       inkscape:connector-curvature="0" />
    <path
       style="display:inline;fill:#000000;fill-rule:evenodd;stroke:#000000;stroke-width:0.27486485px;stroke-linecap:butt;stroke-linejoin:miter;stroke-opacity:1"
       d="m 62.512576,971.18294 12.644422,0 0,10.45628 -12.644422,0 0,-10.45628 z"
       id="path4439-1-8-8"
       inkscape:path-effect="#path-effect4441-7-5-0"
       inkscape:original-d="m 62.512576,971.18294 12.644422,0 0,10.45628 -12.644422,0 z"
       inkscape:connector-curvature="0" />
    <path
       style="display:inline;fill:#000000;fill-rule:evenodd;stroke:#000000;stroke-width:0.27486485px;stroke-linecap:butt;stroke-linejoin:miter;stroke-opacity:1"
       d="m 81.871236,970.80744 12.644422,0 0,10.45628 -12.644422,0 0,-10.45628 z"
       id="path4439-1-8-8-8"
       inkscape:path-effect="#path-effect4441-7-5-0-1"
       inkscape:original-d="m 81.871236,970.80744 12.644422,0 0,10.45628 -12.644422,0 z"
       inkscape:connector-curvature="0" />
    <path
       style="display:inline;fill:#000000;fill-rule:evenodd;stroke:#000000;stroke-width:0.27486485px;stroke-linecap:butt;stroke-linejoin:miter;stroke-opacity:1"
       d="m 99.030048,970.80744 12.644422,0 0,10.45628 -12.644422,0 0,-10.45628 z"
       id="path4439-1-8-8-8-3"
       inkscape:path-effect="#path-effect4441-7-5-0-1-2"
       inkscape:original-d="m 99.030048,970.80744 12.644422,0 0,10.45628 -12.644422,0 z"
       inkscape:connector-curvature="0" />
    <path
       style="display:inline;fill:#000000;fill-rule:evenodd;stroke:#000000;stroke-width:0.27486485px;stroke-linecap:butt;stroke-linejoin:miter;stroke-opacity:1"
       d="m 116.36953,970.62621 12.64442,0 0,10.45628 -12.64442,0 0,-10.45628 z"
       id="path4439-1-8-8-8-3-4"
       inkscape:path-effect="#path-effect4441-7-5-0-1-2-4"
       inkscape:original-d="m 116.36953,970.62621 12.64442,0 0,10.45628 -12.64442,0 z"
       inkscape:connector-curvature="0" />
    <path
       style="display:inline;fill:#000000;fill-rule:evenodd;stroke:#000000;stroke-width:0.27486485px;stroke-linecap:butt;stroke-linejoin:miter;stroke-opacity:1"
       d="m 44.473825,987.32955 12.644422,0 0,10.45628 -12.644422,0 0,-10.45628 z"
       id="path4439-1-8-0"
       inkscape:path-effect="#path-effect4441-7-5-6"
       inkscape:original-d="m 44.473825,987.32955 12.644422,0 0,10.45628 -12.644422,0 z"
       inkscape:connector-curvature="0" />
    <path
       style="display:inline;fill:#000000;fill-rule:evenodd;stroke:#000000;stroke-width:0.27486485px;stroke-linecap:butt;stroke-linejoin:miter;stroke-opacity:1"
       d="m 62.952543,987.32955 12.644422,0 0,10.45628 -12.644422,0 0,-10.45628 z"
       id="path4439-1-8-8-7"
       inkscape:path-effect="#path-effect4441-7-5-0-5"
       inkscape:original-d="m 62.952543,987.32955 12.644422,0 0,10.45628 -12.644422,0 z"
       inkscape:connector-curvature="0" />
    <path
       style="display:inline;fill:#000000;fill-rule:evenodd;stroke:#000000;stroke-width:0.27486485px;stroke-linecap:butt;stroke-linejoin:miter;stroke-opacity:1"
       d="m 82.311208,986.95405 12.644422,0 0,10.45628 -12.644422,0 0,-10.45628 z"
       id="path4439-1-8-8-8-5"
       inkscape:path-effect="#path-effect4441-7-5-0-1-8"
       inkscape:original-d="m 82.311208,986.95405 12.644422,0 0,10.45628 -12.644422,0 z"
       inkscape:connector-curvature="0" />
    <path
       style="display:inline;fill:#000000;fill-rule:evenodd;stroke:#000000;stroke-width:0.27486485px;stroke-linecap:butt;stroke-linejoin:miter;stroke-opacity:1"
       d="m 99.470018,986.95405 12.644422,0 0,10.45628 -12.644422,0 0,-10.45628 z"
       id="path4439-1-8-8-8-3-0"
       inkscape:path-effect="#path-effect4441-7-5-0-1-2-9"
       inkscape:original-d="m 99.470018,986.95405 12.644422,0 0,10.45628 -12.644422,0 z"
       inkscape:connector-curvature="0" />
    <path
       style="display:inline;fill:#000000;fill-rule:evenodd;stroke:#000000;stroke-width:0.27486485px;stroke-linecap:butt;stroke-linejoin:miter;stroke-opacity:1"
       d="m 116.8095,986.77282 12.64442,0 0,10.45628 -12.64442,0 0,-10.45628 z"
       id="path4439-1-8-8-8-3-4-5"
       inkscape:path-effect="#path-effect4441-7-5-0-1-2-4-9"
       inkscape:original-d="m 116.8095,986.77282 12.64442,0 0,10.45628 -12.64442,0 z"
       inkscape:connector-curvature="0" />
    <path
       style="display:inline;fill:#000000;fill-rule:evenodd;stroke:#000000;stroke-width:0.27486485px;stroke-linecap:butt;stroke-linejoin:miter;stroke-opacity:1"
       d="m 44.473825,1004.2272 12.644416,0 0,10.4563 -12.644416,0 0,-10.4563 z"
       id="path4439-1-8-0-1"
       inkscape:path-effect="#path-effect4441-7-5-6-0"
       inkscape:original-d="m 44.473825,1004.2272 12.644416,0 0,10.4563 -12.644416,0 z"
       inkscape:connector-curvature="0" />
    <path
       style="display:inline;fill:#000000;fill-rule:evenodd;stroke:#000000;stroke-width:0.27486485px;stroke-linecap:butt;stroke-linejoin:miter;stroke-opacity:1"
       d="m 62.95254,1004.2272 12.644422,0 0,10.4563 -12.644422,0 0,-10.4563 z"
       id="path4439-1-8-8-7-0"
       inkscape:path-effect="#path-effect4441-7-5-0-5-8"
       inkscape:original-d="m 62.95254,1004.2272 12.644422,0 0,10.4563 -12.644422,0 z"
       inkscape:connector-curvature="0" />
    <path
       style="display:inline;fill:#000000;fill-rule:evenodd;stroke:#000000;stroke-width:0.27486485px;stroke-linecap:butt;stroke-linejoin:miter;stroke-opacity:1"
       d="m 82.311205,1003.8517 12.644421,0 0,10.4562 -12.644421,0 0,-10.4562 z"
       id="path4439-1-8-8-8-5-7"
       inkscape:path-effect="#path-effect4441-7-5-0-1-8-2"
       inkscape:original-d="m 82.311205,1003.8517 12.644421,0 0,10.4562 -12.644421,0 z"
       inkscape:connector-curvature="0" />
    <path
       style="display:inline;fill:#000000;fill-rule:evenodd;stroke:#000000;stroke-width:0.27486485px;stroke-linecap:butt;stroke-linejoin:miter;stroke-opacity:1"
       d="m 43.593893,1019.6228 12.64441,0 0,10.4563 -12.64441,0 0,-10.4563 z"
       id="path4439-1-8-0-9"
       inkscape:path-effect="#path-effect4441-7-5-6-09"
       inkscape:original-d="m 43.593893,1019.6228 12.64441,0 0,10.4563 -12.64441,0 z"
       inkscape:connector-curvature="0" />
    <path
       style="display:inline;fill:#000000;fill-rule:evenodd;stroke:#000000;stroke-width:0.27486485px;stroke-linecap:butt;stroke-linejoin:miter;stroke-opacity:1"
       d="m 62.072602,1019.6228 12.644421,0 0,10.4563 -12.644421,0 0,-10.4563 z"
       id="path4439-1-8-8-7-2"
       inkscape:path-effect="#path-effect4441-7-5-0-5-5"
       inkscape:original-d="m 62.072602,1019.6228 12.644421,0 0,10.4563 -12.644421,0 z"
       inkscape:connector-curvature="0" />
    <path
       style="display:inline;fill:#000000;fill-rule:evenodd;stroke:#000000;stroke-width:0.27486485px;stroke-linecap:butt;stroke-linejoin:miter;stroke-opacity:1"
       d="m 81.431266,1019.2473 12.644422,0 0,10.4564 -12.644422,0 0,-10.4564 z"
       id="path4439-1-8-8-8-5-2"
       inkscape:path-effect="#path-effect4441-7-5-0-1-8-1"
       inkscape:original-d="m 81.431266,1019.2473 12.644422,0 0,10.4564 -12.644422,0 z"
       inkscape:connector-curvature="0" />
    <path
       style="display:inline;fill:#000000;fill-rule:evenodd;stroke:#000000;stroke-width:0.27486485px;stroke-linecap:butt;stroke-linejoin:miter;stroke-opacity:1"
       d="m 44.033853,956.16283 12.644422,0 0,10.45628 -12.644422,0 0,-10.45628 z"
       id="path4439-1-8-09"
       inkscape:path-effect="#path-effect4441-7-5-7"
       inkscape:original-d="m 44.033853,956.16283 12.644422,0 0,10.45628 -12.644422,0 z"
       inkscape:connector-curvature="0" />
    <path
       style="display:inline;fill:#000000;fill-rule:evenodd;stroke:#000000;stroke-width:0.27486485px;stroke-linecap:butt;stroke-linejoin:miter;stroke-opacity:1"
       d="m 62.512574,956.16283 12.644422,0 0,10.45628 -12.644422,0 0,-10.45628 z"
       id="path4439-1-8-8-4"
       inkscape:path-effect="#path-effect4441-7-5-0-8"
       inkscape:original-d="m 62.512574,956.16283 12.644422,0 0,10.45628 -12.644422,0 z"
       inkscape:connector-curvature="0" />
    <path
       style="display:inline;fill:#000000;fill-rule:evenodd;stroke:#000000;stroke-width:0.27486485px;stroke-linecap:butt;stroke-linejoin:miter;stroke-opacity:1"
       d="m 81.871239,955.78734 12.644421,0 0,10.45627 -12.644421,0 0,-10.45627 z"
       id="path4439-1-8-8-8-2"
       inkscape:path-effect="#path-effect4441-7-5-0-1-82"
       inkscape:original-d="m 81.871239,955.78734 12.644421,0 0,10.45627 -12.644421,0 z"
       inkscape:connector-curvature="0" />
    <path
       style="display:inline;fill:#000000;fill-rule:evenodd;stroke:#000000;stroke-width:0.27486485px;stroke-linecap:butt;stroke-linejoin:miter;stroke-opacity:1"
       d="m 99.030049,955.78734 12.644421,0 0,10.45627 -12.644421,0 0,-10.45627 z"
       id="path4439-1-8-8-8-3-9"
       inkscape:path-effect="#path-effect4441-7-5-0-1-2-46"
       inkscape:original-d="m 99.030049,955.78734 12.644421,0 0,10.45627 -12.644421,0 z"
       inkscape:connector-curvature="0" />
    <path
       style="display:inline;fill:#000000;fill-rule:evenodd;stroke:#000000;stroke-width:0.27486485px;stroke-linecap:butt;stroke-linejoin:miter;stroke-opacity:1"
       d="m 116.36953,955.6061 12.64442,0 0,10.45628 -12.64442,0 0,-10.45628 z"
       id="path4439-1-8-8-8-3-4-6"
       inkscape:path-effect="#path-effect4441-7-5-0-1-2-4-1"
       inkscape:original-d="m 116.36953,955.6061 12.64442,0 0,10.45628 -12.64442,0 z"
       inkscape:connector-curvature="0" />
    <path
       style="fill:none;fill-rule:evenodd;stroke:#000000;stroke-width:1.13808799px;stroke-linecap:butt;stroke-linejoin:miter;stroke-opacity:1"
       d="m 49.054189,913.17429 c 0.529818,0.54528 1.313009,0.83349 2.0699,0.76171 0.756891,-0.0718 1.471946,-0.50206 1.889825,-1.13721 0.05537,-0.0842 0.10633,-0.17234 0.176211,-0.2449 0.03494,-0.0363 0.07457,-0.0684 0.11914,-0.0919 0.04457,-0.0235 0.09425,-0.038 0.144619,-0.0387 0.07663,-0.001 0.149701,0.0296 0.224797,0.0449 0.03755,0.008 0.07635,0.0115 0.114207,0.006 0.03785,-0.006 0.07487,-0.0223 0.100965,-0.0504 0.02218,-0.0238 0.0355,-0.0551 0.04112,-0.0871 0.0056,-0.0321 0.0039,-0.0651 -0.0012,-0.0972 -0.01026,-0.0643 -0.03398,-0.12625 -0.0399,-0.19112 -0.0065,-0.0715 0.0093,-0.14446 0.04255,-0.20808 0.03322,-0.0636 0.08348,-0.11787 0.142916,-0.15811 0.118865,-0.0805 0.27107,-0.10281 0.412768,-0.0799 0.141698,0.0229 0.27382,0.0881 0.391894,0.1697 0.118073,0.0816 0.223616,0.17977 0.329786,0.27637 0.137066,0.12472 0.276587,0.24798 0.432067,0.34881 0.155481,0.10083 0.328449,0.17908 0.511851,0.20562 0.183402,0.0265 0.378097,-0.002 0.535447,-0.0996 0.07867,-0.0489 0.147167,-0.11478 0.196653,-0.19311 0.04949,-0.0783 0.07966,-0.16921 0.08386,-0.26177 0.004,-0.0881 -0.01477,-0.17552 -0.02378,-0.26329 -0.009,-0.0878 -0.0071,-0.17889 0.02601,-0.26068 0.03309,-0.0818 0.0981,-0.15011 0.178397,-0.18668 0.08029,-0.0366 0.171104,-0.0403 0.259335,-0.0403 l 0.879939,0 c 0.07378,0 0.147462,-0.004 0.220897,-0.0114 0.07344,-0.007 0.149929,-0.0143 0.219073,0.0114 0.06742,0.0251 0.120811,0.0815 0.149649,0.14741 0.02884,0.0659 0.03447,0.14047 0.02408,0.21165 -0.02078,0.14236 -0.101496,0.26752 -0.173725,0.39194 -0.03502,0.0603 -0.06914,0.12364 -0.07683,0.19297 -0.0038,0.0347 -7.73e-4,0.0704 0.01182,0.10297 0.0126,0.0325 0.03508,0.0616 0.065,0.0796 0.0324,0.0194 0.07165,0.0249 0.109334,0.0222 0.03768,-0.003 0.07437,-0.0129 0.110761,-0.023 0.0364,-0.0101 0.07313,-0.0202 0.11083,-0.0226 0.0377,-0.002 0.07692,0.004 0.109043,0.0234 0.02948,0.0182 0.05137,0.0475 0.06347,0.08 0.01209,0.0325 0.01476,0.068 0.01077,0.1025 -0.008,0.0689 -0.04138,0.13186 -0.07418,0.19296 -0.0328,0.0611 -0.06621,0.12407 -0.07421,0.19296 -0.004,0.0344 -0.0013,0.07 0.01073,0.1025 0.01208,0.0325 0.03396,0.0618 0.06343,0.0801 0.03211,0.0199 0.07132,0.0258 0.109025,0.0235 0.0377,-0.002 0.07444,-0.0124 0.110835,-0.0226 0.0364,-0.0101 0.07308,-0.0204 0.110755,-0.023 0.03768,-0.003 0.07692,0.003 0.109355,0.0221 0.02997,0.0179 0.05251,0.047 0.06517,0.0795 0.01265,0.0325 0.01578,0.0683 0.01195,0.10301 -0.0076,0.0694 -0.04184,0.13274 -0.07712,0.19297 -0.111188,0.18982 -0.242887,0.37658 -0.278239,0.5937 -0.01768,0.10857 -0.0093,0.22329 0.03742,0.32287 0.02336,0.0498 0.05613,0.0953 0.09718,0.13195 0.04105,0.0366 0.09043,0.0641 0.143646,0.078 0.07118,0.0186 0.146135,0.0132 0.219518,0.008 0.07338,-0.005 0.146895,-0.008 0.220452,-0.008 l 0.43997,0 c 0.131732,0 0.265028,-0.004 0.391782,-0.0397 0.126753,-0.0359 0.243811,-0.10245 0.344138,-0.18782 0.100327,-0.0854 0.184201,-0.18797 0.273266,-0.28503 0.08907,-0.0971 0.187907,-0.19078 0.310721,-0.23842 0.137936,-0.0535 0.291711,-0.043 0.438406,-0.0238 0.146695,0.0192 0.29533,0.0464 0.441534,0.0238 0.158497,-0.0246 0.301703,-0.10583 0.440554,-0.18612 0.13885,-0.0803 0.281262,-0.16251 0.439385,-0.18939 0.111648,-0.019 0.226413,-0.009 0.337833,0.0109 0.111421,0.0203 0.220652,0.051 0.33142,0.0746 0.110768,0.0236 0.224222,0.04 0.337118,0.0311 0.112895,-0.009 0.225946,-0.0448 0.313537,-0.11663 0.07657,-0.0628 0.129654,-0.14884 0.193696,-0.22433 0.03202,-0.0378 0.06726,-0.0733 0.108372,-0.10081 0.04112,-0.0276 0.08852,-0.047 0.137902,-0.0504 0.03844,-0.003 0.07693,0.004 0.1142,0.0141 0.03727,0.01 0.07381,0.0223 0.111331,0.031 0.03753,0.009 0.07653,0.0136 0.114618,0.008 0.03809,-0.006 0.07539,-0.0232 0.09982,-0.053 0.02043,-0.0249 0.03075,-0.057 0.03344,-0.0891 0.0027,-0.0321 -0.0018,-0.0644 -0.0084,-0.0959 -0.0132,-0.0631 -0.03493,-0.12676 -0.02502,-0.19043 0.0051,-0.0325 0.01843,-0.0636 0.03776,-0.0902 0.01933,-0.0266 0.04455,-0.0489 0.07293,-0.0655 0.05675,-0.0334 0.125118,-0.044 0.19058,-0.0371 0.06546,0.007 0.128284,0.0306 0.186217,0.0619 0.05793,0.0313 0.111428,0.07 0.164379,0.10914 0.105902,0.0782 0.215789,0.1607 0.345425,0.18367 0.06482,0.0115 0.133513,0.007 0.193439,-0.0204 0.05992,-0.0272 0.110101,-0.0785 0.129183,-0.14148 0.01833,-0.0605 0.0075,-0.12553 -0.0025,-0.18796 -0.01008,-0.0624 -0.01905,-0.12811 0.0025,-0.18755 0.01551,-0.0427 0.04652,-0.0793 0.08524,-0.10308 0.03872,-0.0238 0.08484,-0.0348 0.130232,-0.0329 0.04539,0.002 0.08996,0.0167 0.128523,0.0407 0.03856,0.024 0.07116,0.0572 0.09597,0.0953 0.03616,0.0555 0.0558,0.12155 0.0558,0.18776 0,0.0662 -0.01964,0.13229 -0.0558,0.18775 0.01653,-0.10358 0.07102,-0.20067 0.150818,-0.26874 0.0798,-0.0681 0.184262,-0.10658 0.289151,-0.10658 0.104889,0 0.209353,0.0385 0.289151,0.10658 0.0798,0.0681 0.134286,0.16516 0.150818,0.26874 0.0099,0.0619 0.007,0.125 0.0043,0.1876 -0.0027,0.0626 -0.0043,0.12524 -0.0043,0.1879 l 0,0.3755 c 0,0.0541 0.0025,0.10964 0.02439,0.15909 0.02192,0.0494 0.06225,0.0898 0.110396,0.11448 0.04815,0.0247 0.102338,0.0341 0.155458,0.0443 0.05312,0.0102 0.108276,0.0229 0.149724,0.0576 0.02607,0.0219 0.04509,0.0516 0.05608,0.0838 0.01099,0.0322 0.01414,0.0668 0.01134,0.10071 -0.0056,0.0678 -0.03436,0.13155 -0.06742,0.19102 -0.07321,0.1317 -0.171387,0.25474 -0.199902,0.4027 -0.01426,0.074 -0.0094,0.15336 0.0248,0.22051 0.01708,0.0336 0.04134,0.0637 0.07146,0.0863 0.03013,0.0226 0.06617,0.0376 0.103635,0.0415 0.03899,0.004 0.0783,-0.004 0.115841,-0.015 0.03754,-0.0113 0.07399,-0.0261 0.111771,-0.0365 0.03779,-0.0104 0.0776,-0.0164 0.11622,-0.01 0.01931,0.003 0.03815,0.01 0.05485,0.0202 0.01671,0.0102 0.03124,0.0242 0.04129,0.0411 0.01669,0.028 0.02016,0.0622 0.01633,0.0946 -0.0038,0.0323 -0.01443,0.0634 -0.0243,0.0945 -0.0099,0.031 -0.01915,0.0627 -0.0202,0.0953 -0.001,0.0326 0.0069,0.0665 0.02816,0.0912 0.01237,0.0144 0.02874,0.0251 0.04642,0.032 0.01768,0.007 0.03667,0.0101 0.05564,0.0109 0.03794,0.001 0.07554,-0.007 0.112545,-0.0152 0.07401,-0.017 0.149432,-0.0277 0.225369,-0.0277 l 0.43997,0 c 0.0735,0 0.146963,0.003 0.220332,0.007 0.07337,0.004 0.147907,0.009 0.219637,-0.007 0.09609,-0.0215 0.180392,-0.08 0.250379,-0.14926 0.06999,-0.0693 0.127751,-0.14963 0.18959,-0.22625 0.163601,-0.2027 0.358677,-0.38155 0.582632,-0.51457 0.223955,-0.13303 0.47735,-0.2194 0.737277,-0.23643 0.146382,-0.01 0.293297,0.003 0.43997,0 0.461448,-0.008 0.910039,-0.16334 1.319907,-0.3755 0.284652,-0.14734 0.563294,-0.3258 0.87994,-0.37551 0.218421,-0.0343 0.441093,-0.005 0.660949,0.0187 0.219856,0.0234 0.445817,0.0401 0.65896,-0.0187 0.170993,-0.0471 0.325973,-0.14116 0.464689,-0.2517 0.138716,-0.11055 0.262873,-0.23796 0.389999,-0.36165 0.127127,-0.12369 0.258504,-0.24471 0.40825,-0.33978 0.149745,-0.0951 0.319831,-0.16369 0.49694,-0.17338 0.14669,-0.008 0.295067,0.0242 0.439969,0 0.07549,-0.0126 0.147976,-0.0403 0.223779,-0.0509 0.0379,-0.005 0.07673,-0.006 0.11426,0.001 0.03753,0.007 0.07381,0.0237 0.101931,0.0496 0.02477,0.0229 0.0426,0.0528 0.05289,0.0849 0.01029,0.0321 0.01319,0.0663 0.01053,0.1 -0.0053,0.0672 -0.03235,0.1308 -0.06341,0.19065 -0.03265,0.0629 -0.07084,0.12517 -0.08119,0.19528 -0.0052,0.0351 -0.0029,0.0717 0.01037,0.10453 0.01331,0.0328 0.03833,0.0616 0.07082,0.0757 0.02389,0.0104 0.05097,0.0126 0.07661,0.008 0.02564,-0.005 0.04987,-0.0158 0.07105,-0.031 0.04237,-0.0303 0.07191,-0.0752 0.09652,-0.12118 0.02461,-0.0459 0.04542,-0.0941 0.07521,-0.13688 0.02979,-0.0427 0.07036,-0.0806 0.120568,-0.0945 0.03726,-0.0104 0.07712,-0.007 0.114744,0.002 0.03763,0.009 0.07379,0.023 0.110837,0.0341 0.03705,0.0111 0.07574,0.0191 0.114226,0.0154 0.01924,-0.002 0.03828,-0.007 0.05563,-0.0153 0.01735,-0.009 0.03296,-0.0208 0.04453,-0.0363 0.01935,-0.0259 0.02638,-0.0594 0.02541,-0.0917 -9.7e-4,-0.0323 -0.0093,-0.0639 -0.01826,-0.095 -0.0089,-0.0311 -0.01848,-0.0622 -0.02192,-0.0944 -0.0034,-0.0322 -3.86e-4,-0.0659 0.01477,-0.0944 0.01868,-0.0352 0.05449,-0.0594 0.09299,-0.0697 0.0385,-0.0103 0.07949,-0.008 0.118417,7.1e-4 0.07785,0.0171 0.14965,0.0578 0.228564,0.069 0.08127,0.0116 0.163905,-0.009 0.240398,-0.0389 0.07649,-0.0298 0.149281,-0.0687 0.226666,-0.0961 0.07738,-0.0274 0.161835,-0.0429 0.24167,-0.0238 0.03992,0.01 0.07804,0.0279 0.10872,0.0551 0.03068,0.0273 0.05365,0.0637 0.06249,0.10376 0.0069,0.0314 0.0052,0.0642 -9.1e-5,0.0959 -0.0052,0.0317 -0.01392,0.0628 -0.02083,0.0942 -0.0069,0.0314 -0.01209,0.0635 -0.01019,0.0956 0.0019,0.0321 0.01131,0.0644 0.0311,0.0898 0.02379,0.0305 0.06098,0.0486 0.09913,0.0548 0.03814,0.006 0.07733,0.002 0.114972,-0.007 0.07528,-0.0176 0.148673,-0.0515 0.225873,-0.0475 0.05479,0.003 0.107895,0.0252 0.150178,0.0602 0.04228,0.035 0.07393,0.082 0.09346,0.13327 0.03907,0.10254 0.02956,0.21822 -0.0024,0.32319 -0.03197,0.10497 -0.08506,0.20199 -0.133703,0.30035 -0.04864,0.0984 -0.09366,0.20063 -0.107521,0.30948 -0.01406,0.11041 0.0055,0.22522 0.05743,0.32364 0.05197,0.0984 0.136476,0.17974 0.237861,0.22566 0.101384,0.0459 0.219133,0.0557 0.326045,0.0248 0.106912,-0.0309 0.201865,-0.1028 0.258608,-0.19855 0.03372,-0.0569 0.05411,-0.12215 0.05527,-0.18829 0.0012,-0.0661 -0.01736,-0.133 -0.05527,-0.18721 -0.04626,-0.0662 -0.121226,-0.11148 -0.201306,-0.12171 -0.08008,-0.0102 -0.164029,0.0148 -0.225435,0.0672 -0.06141,0.0524 -0.09931,0.13138 -0.101797,0.21207 -0.0025,0.0807 0.0305,0.16185 0.08857,0.21793 l -2.199847,-1.12651"
       id="path4701"
       inkscape:path-effect="#path-effect4703"
       inkscape:original-d="m 49.054189,913.17429 c 3.727159,0 2.690142,0.70806 3.959725,-0.3755 0.146657,-0.12517 0.254463,-0.29634 0.43997,-0.37551 0.131174,-0.0559 0.336268,0.0885 0.439969,0 0.103703,-0.0885 -0.131173,-0.31952 0,-0.3755 0.393521,-0.16793 0.87994,0 1.31991,0 0.48196,0 1.737666,0.038 1.759877,0 0.513298,-0.87617 -0.549961,-0.751 0.43997,-0.751 0.293313,0 0.586625,0 0.879939,0 0.146656,0 0.374383,-0.11195 0.43997,0 0.131173,0.22391 0,0.50067 0,0.751 0,0.12517 -0.103703,0.28701 0,0.3755 0.103703,0.0885 0.336267,-0.0885 0.439968,0 0.207404,0.17702 -0.207402,0.574 0,0.75101 0.103703,0.0885 0.336269,-0.0885 0.43997,0 0.103703,0.0885 0,0.25034 0,0.3755 0,0.37551 -0.13913,0.77029 0,1.12651 0.04638,0.11875 0.293313,0 0.43997,0 0.146657,0 0.293313,0 0.43997,0 1.028661,0 -0.155553,0.0885 1.319907,-0.751 0.244053,-0.13887 0.601679,0.0792 0.87994,0 0.311105,-0.0885 0.568834,-0.287 0.879939,-0.37551 0.417392,-0.11874 0.902517,0.11875 1.319908,0 0.196762,-0.0559 0.254463,-0.29634 0.43997,-0.3755 0.131174,-0.0559 0.336268,0.0885 0.43997,0 0.103702,-0.0885 -0.103703,-0.28699 0,-0.3755 0.219985,-0.18775 1.099923,0.18775 1.319909,0 0.103702,-0.0885 -0.103703,-0.287 0,-0.37551 0.103702,-0.0885 0.336267,-0.0885 0.43997,0 0.103702,0.0885 0,0.25034 0,0.37551 0.293312,0 0.61759,-0.11195 0.879938,0 0.131174,0.0559 0,0.25033 0,0.3755 0,0.12517 0,0.25034 0,0.3755 0,1.00135 -0.146656,-0.12516 0.439969,0.37551 0.103703,0.0885 0,0.25033 0,0.3755 0,0.25034 -0.131173,0.52711 0,0.751 0.06559,0.11197 0.336269,-0.0885 0.43997,0 0.103703,0.0885 -0.103702,0.28701 0,0.37551 0.103703,0.0885 0.293313,0 0.43997,0 0.146656,0 0.293313,0 0.43997,0 0.146655,0 0.308795,0.0559 0.439969,0 0.185507,-0.0792 0.274046,-0.26929 0.439969,-0.37551 0.423022,-0.27077 0.846956,-0.54917 1.319909,-0.751 0.131173,-0.0559 0.297692,0.0304 0.43997,0 0.449921,-0.096 0.88931,-0.2285 1.319907,-0.3755 0.304481,-0.10398 0.558374,-0.32061 0.87994,-0.37551 0.431426,-0.0736 0.902517,0.11875 1.319909,0 4.732442,-1.34633 -0.324813,-0.23689 1.759878,-1.12651 0.131174,-0.0559 0.293312,0 0.439969,0 0.146657,0 0.336267,-0.0885 0.43997,0 0.103703,0.0885 0,0.25034 0,0.37551 0,0.12517 -0.146657,0.3755 0,0.3755 0.207404,0 0.254462,-0.29634 0.43997,-0.3755 0.131173,-0.0559 0.336267,0.0885 0.439969,0 0.103703,-0.0885 -0.103702,-0.287 0,-0.37551 0.103703,-0.0885 0.293313,0 0.439969,0 0.293314,0 0.617592,-0.11194 0.879939,0 0.131175,0.0559 -0.103702,0.28701 0,0.37551 0.103703,0.0885 0.336269,-0.0885 0.43997,0 4.2e-4,3.6e-4 -6.65e-4,1.12481 0,1.12651 0.04296,0.10998 0.586626,0.62584 0.87994,0.3755 0.103702,-0.0885 0.146655,-0.3755 0,-0.3755 -0.207404,0 -0.293314,0.25033 -0.43997,0.3755 -0.733283,-0.3755 -1.466565,-0.75101 -2.199847,-1.12651"
       inkscape:connector-curvature="0" />
    <path
       style="fill:none;fill-rule:evenodd;stroke:#000000;stroke-width:1.13808799px;stroke-linecap:butt;stroke-linejoin:miter;stroke-opacity:1"
       d="m 49.054189,923.68837 c 0.03104,0.49192 0.201204,0.9743 0.48568,1.37682 0.284476,0.40252 0.682396,0.72394 1.135741,0.9174 0.453345,0.19346 0.960729,0.25836 1.448174,0.18525 0.487445,-0.0731 0.953461,-0.28401 1.3301,-0.60196 0.295486,-0.24944 0.540667,-0.56546 0.879939,-0.751 0.393735,-0.21533 0.863382,-0.22776 1.312125,-0.22292 0.448744,0.005 0.913045,0.0191 1.327692,-0.15258 0.324035,-0.13414 0.592072,-0.37173 0.861854,-0.5958 0.269781,-0.22408 0.558229,-0.44393 0.898025,-0.53071 0.214011,-0.0547 0.438261,-0.0535 0.658664,-0.039 0.220404,0.0145 0.440384,0.0421 0.661244,0.039 0.550559,-0.007 1.081051,-0.20403 1.579534,-0.43788 0.498483,-0.23385 0.980006,-0.50831 1.500253,-0.68863 0.43231,-0.14984 0.885303,-0.23246 1.319909,-0.3755 0.784246,-0.25812 1.489429,-0.70583 2.199847,-1.12651 0.07121,-0.0422 0.145172,-0.085 0.227313,-0.0951 0.04107,-0.005 0.08367,-0.001 0.121963,0.0142 0.0383,0.0157 0.072,0.044 0.09069,0.0809 0.01428,0.0282 0.01949,0.0603 0.02005,0.0919 5.61e-4,0.0316 -0.0032,0.0631 -0.0072,0.0945 -0.0079,0.0627 -0.01284,0.12586 -0.01284,0.1891 l 0,0.3755 c 0,0.32103 0.0388,0.64045 0.10078,0.95544 0.03099,0.1575 0.06073,0.31681 0.05581,0.47725 -0.0049,0.16044 -0.04894,0.32576 -0.156588,0.44483 -0.0651,0.072 -0.149505,0.12306 -0.230063,0.17723 -0.08056,0.0542 -0.160509,0.1147 -0.209907,0.19827 -0.03341,0.0565 -0.05134,0.12209 -0.05134,0.18775 0,0.0657 0.01793,0.13123 0.05134,0.18775 -0.01581,0.30104 -0.1851,0.59002 -0.43997,0.75101 -0.07706,0.0487 -0.160642,0.0859 -0.241407,0.12817 -0.08076,0.0422 -0.159947,0.0904 -0.222472,0.15673 -0.06253,0.0663 -0.107426,0.15303 -0.10821,0.24417 -3.92e-4,0.0456 0.01041,0.0915 0.03307,0.13102 0.02266,0.0395 0.05739,0.0724 0.09905,0.0909 0.03379,0.015 0.07119,0.0204 0.108152,0.0209 0.03697,5.7e-4 0.07384,-0.003 0.110578,-0.008 0.07348,-0.008 0.147297,-0.0134 0.221239,-0.0134 l 0.43997,0 c 0.0737,0 0.147335,0.004 0.220753,0.0105 0.07342,0.006 0.149415,0.0132 0.219217,-0.0105 0.07104,-0.0241 0.128548,-0.0791 0.168201,-0.14275 0.03965,-0.0637 0.06315,-0.13596 0.08298,-0.2083 0.01983,-0.0723 0.03646,-0.14583 0.06398,-0.21561 0.02752,-0.0698 0.06694,-0.13662 0.124809,-0.18434 0.05832,-0.0481 0.132629,-0.0742 0.207706,-0.083 0.07508,-0.009 0.151234,-0.001 0.225604,0.0123 0.148741,0.0271 0.295624,0.0782 0.446629,0.0707 0.128805,-0.006 0.252597,-0.0557 0.362354,-0.12341 0.109757,-0.0677 0.207036,-0.15354 0.30294,-0.23976 0.0959,-0.0862 0.191503,-0.17365 0.298798,-0.2452 0.107296,-0.0716 0.227785,-0.12717 0.355817,-0.14264 0.145804,-0.0176 0.294127,0.0173 0.43997,0 0.130901,-0.0155 0.253112,-0.0723 0.369583,-0.13403 0.116471,-0.0617 0.230846,-0.12964 0.356143,-0.17059 0.125298,-0.0409 0.265473,-0.0529 0.387067,-0.002 0.0608,0.0254 0.115577,0.0666 0.153624,0.12037 0.03805,0.0538 0.05868,0.12054 0.05349,0.18625 -0.0052,0.0664 -0.03566,0.12814 -0.04927,0.19337 -0.0068,0.0326 -0.0093,0.0666 -0.0023,0.0992 0.007,0.0326 0.02441,0.0637 0.05158,0.0829 0.01586,0.0113 0.03457,0.0182 0.05376,0.0213 0.01919,0.003 0.03888,0.003 0.05809,-5e-4 0.03842,-0.006 0.07465,-0.0213 0.110942,-0.0353 0.03629,-0.014 0.07382,-0.0269 0.112697,-0.0277 0.01944,-4.2e-4 0.03907,0.002 0.05725,0.009 0.01819,0.007 0.03491,0.0181 0.04723,0.0331 0.02071,0.0253 0.02761,0.0596 0.02551,0.0922 -0.0021,0.0326 -0.01236,0.0641 -0.02277,0.095 -0.01041,0.031 -0.02113,0.0622 -0.02419,0.0947 -0.0031,0.0325 0.0023,0.067 0.02145,0.0935 0.0114,0.0157 0.02726,0.028 0.04489,0.0361 0.01762,0.008 0.03696,0.0123 0.05635,0.0132 0.03878,0.002 0.07709,-0.009 0.113778,-0.0212 0.03668,-0.0127 0.07273,-0.0279 0.110718,-0.0359 0.03799,-0.008 0.07892,-0.008 0.11424,0.008 0.03181,0.0145 0.05696,0.0418 0.07177,0.0735 0.01481,0.0317 0.01968,0.0675 0.01714,0.10234 -0.0051,0.0697 -0.03842,0.13395 -0.07244,0.19505 -0.03402,0.0611 -0.07004,0.12314 -0.0814,0.19215 -0.0057,0.0345 -0.0049,0.0704 0.0055,0.10381 0.01039,0.0334 0.03077,0.0641 0.05944,0.0841 0.0306,0.0214 0.06875,0.0296 0.106055,0.0305 0.03731,9e-4 0.07442,-0.005 0.11125,-0.0109 0.07365,-0.0121 0.14803,-0.0196 0.222665,-0.0196 l 2.199847,0 3.079787,0 c 0.07465,0 0.149045,0.008 0.222703,0.0197 0.03683,0.006 0.07395,0.0119 0.111268,0.011 0.03732,-9.1e-4 0.07548,-0.009 0.105998,-0.0307 0.02874,-0.0203 0.04899,-0.0513 0.05904,-0.085 0.01005,-0.0337 0.01034,-0.0698 0.0041,-0.10443 -0.01245,-0.0692 -0.04967,-0.131 -0.08445,-0.19211 -0.03478,-0.0611 -0.06852,-0.12576 -0.0728,-0.19595 -0.0021,-0.0351 0.0035,-0.0711 0.01925,-0.10246 0.01579,-0.0314 0.0422,-0.058 0.07485,-0.071 0.03688,-0.0147 0.07875,-0.0114 0.116992,-7.9e-4 0.03825,0.0107 0.07413,0.0283 0.111254,0.0424 0.03713,0.0141 0.07674,0.0247 0.11621,0.0204 0.01974,-0.002 0.0392,-0.008 0.05609,-0.0185 0.01689,-0.0104 0.03112,-0.0255 0.03943,-0.0435 0.0104,-0.0226 0.01103,-0.0492 0.0031,-0.0727 -0.0079,-0.0236 -0.02412,-0.044 -0.04439,-0.0584 -0.02027,-0.0144 -0.04447,-0.0228 -0.06915,-0.0257 -0.02468,-0.003 -0.04984,-3.1e-4 -0.07388,0.006 -0.04807,0.0126 -0.091,0.0397 -0.131502,0.0685 -0.04051,0.0288 -0.07976,0.0599 -0.124137,0.0823 -0.06721,0.0339 -0.143916,0.0464 -0.219145,0.0436 -0.07523,-0.003 -0.149276,-0.0202 -0.220824,-0.0436 -0.241104,-0.0789 -0.458992,-0.22737 -0.620587,-0.42292 -0.161594,-0.19555 -0.266359,-0.43752 -0.298389,-0.68916 -0.03203,-0.25165 0.0088,-0.51215 0.116235,-0.74195 0.107456,-0.22979 0.2812,-0.42813 0.494856,-0.56489 0.213657,-0.13676 0.466516,-0.2115 0.720191,-0.21287 0.253676,-0.001 0.507325,0.0707 0.722442,0.2051 0.215117,0.13446 0.390987,0.33091 0.500911,0.55953 0.109924,0.22863 0.153537,0.48867 0.124219,0.74065"
       id="path4705"
       inkscape:path-effect="#path-effect4707"
       inkscape:original-d="m 49.054189,923.68837 c 1.466565,0.62584 2.808982,1.5381 4.399695,1.87751 0.402422,0.0859 0.524245,-0.56886 0.879939,-0.751 3.735236,-1.91275 -1.039268,0.97021 2.639817,-0.3755 0.673993,-0.24654 1.085885,-0.87999 1.759879,-1.12651 0.404396,-0.14792 0.884361,0.0531 1.319908,0 2.563876,-0.31261 1.002275,-0.23996 3.079787,-1.12651 0.414807,-0.17702 0.922229,-0.17186 1.319909,-0.3755 2.223409,-1.13858 -0.648986,-0.51866 2.199847,-1.12651 0.142278,-0.0304 0.336267,-0.0885 0.43997,0 0.103702,0.0885 0,0.25033 0,0.3755 0,0.12517 0,0.25034 0,0.3755 0,0.14845 0.09395,1.71715 0,1.87752 -0.09275,0.15832 -0.347217,0.21718 -0.43997,0.3755 -0.06559,0.11195 0.06559,0.26354 0,0.3755 -1.001433,0.8547 -0.11628,-0.0778 -0.43997,0.75101 -0.103702,0.26552 -0.439969,0.47112 -0.439969,0.751 0,0.12517 0.293312,0 0.439969,0 0.146657,0 0.293313,0 0.43997,0 0.146657,0 0.336267,0.0885 0.43997,0 0.231884,-0.19791 0.167111,-0.59575 0.439969,-0.751 0.244051,-0.13886 0.595384,0.0608 0.879939,0 2.124588,-0.45333 -0.02181,-0.17845 1.319909,-0.75101 0.131173,-0.0559 0.293313,0 0.43997,0 0.439969,0 0.926387,-0.16793 1.319907,0 0.131175,0.0559 -0.103702,0.287 0,0.37551 0.103703,0.0885 0.336269,-0.0885 0.43997,0 0.103703,0.0885 -0.103702,0.28699 0,0.3755 0.103703,0.0885 0.374383,-0.11196 0.43997,0 0.131173,0.22391 -0.131173,0.5271 0,0.751 0.06559,0.11195 0.293313,0 0.43997,0 0.733282,0 1.466564,0 2.199847,0 1.026595,0 2.053191,0 3.079787,0 0.146657,0 0.374382,0.11195 0.439969,0 0.131173,-0.2239 -0.131173,-0.52709 0,-0.751 0.06559,-0.11196 0.43997,-0.12517 0.43997,0 0,0.12517 -0.293313,0 -0.43997,0 -0.146657,0 -0.543671,0.0885 -0.439969,0 0.518509,-0.44254 1.173252,-0.75101 1.759878,-1.12651"
       inkscape:connector-curvature="0" />
    <path
       style="fill:none;fill-rule:evenodd;stroke:#000000;stroke-width:1.13808799px;stroke-linecap:butt;stroke-linejoin:miter;stroke-opacity:1"
       d="m 55.213763,939.45948 c -0.306394,-0.29484 -0.514115,-0.69051 -0.582806,-1.11014 -0.06869,-0.41962 0.002,-0.86087 0.198426,-1.23801 0.196394,-0.37714 0.517368,-0.68808 0.900559,-0.87239 0.38319,-0.18431 0.826465,-0.24098 1.243698,-0.15899 0.07361,0.0145 0.146715,0.0331 0.22152,0.0388 0.0748,0.006 0.152806,-0.003 0.21845,-0.0388 0.06537,-0.0362 0.113769,-0.0977 0.146904,-0.16468 0.03314,-0.067 0.05242,-0.13975 0.07165,-0.21194 0.01923,-0.0722 0.03883,-0.14494 0.07253,-0.21161 0.03369,-0.0667 0.08292,-0.1277 0.148886,-0.16277 0.06606,-0.0351 0.143913,-0.0418 0.218476,-0.0357 0.07456,0.006 0.147577,0.0241 0.221493,0.0357 0.231382,0.0361 0.470205,0.008 0.693526,-0.0626 0.223322,-0.0705 0.431964,-0.18229 0.626382,-0.31285 0.212269,-0.14255 0.408656,-0.3077 0.621195,-0.44984 0.212538,-0.14215 0.445954,-0.26257 0.698714,-0.30117 0.218521,-0.0334 0.441058,-0.004 0.660923,0.0186 0.219865,0.0229 0.445611,0.0392 0.658985,-0.0186 0.246046,-0.0666 0.454888,-0.22566 0.657821,-0.37991 0.202933,-0.15426 0.414406,-0.31086 0.662088,-0.3711 0.28611,-0.0696 0.585502,-0.003 0.87994,0 0.373284,0.003 0.738749,-0.097 1.099114,-0.19438 0.360366,-0.0974 0.727637,-0.19343 1.100733,-0.18112 0.146936,0.005 0.295349,0.0264 0.43997,0 0.157831,-0.0288 0.299296,-0.11265 0.437993,-0.19331 0.138697,-0.0807 0.282883,-0.16117 0.441945,-0.18219 0.145513,-0.0192 0.293192,0 0.43997,0 l 1.319909,0 c 0.07588,0 0.151259,-0.0106 0.225258,-0.0274 0.037,-0.008 0.07458,-0.0165 0.112492,-0.015 0.01896,7.1e-4 0.03793,0.004 0.05562,0.0107 0.0177,0.007 0.03411,0.0174 0.04659,0.0317 0.0211,0.0241 0.02966,0.0571 0.03061,0.0892 9.55e-4,0.0321 -0.0049,0.0639 -0.01092,0.0954 -0.01211,0.063 -0.01969,0.1268 -0.01969,0.19093 l 0,0.3755 0,1.50202 c 0,0.12605 -0.008,0.25193 -0.02105,0.37731 -0.0065,0.0627 -0.01275,0.12558 -0.01186,0.1886 8.95e-4,0.063 0.0093,0.12666 0.0329,0.18509 0.03738,0.0925 0.111034,0.16648 0.193825,0.2221 0.08279,0.0556 0.175233,0.0949 0.26615,0.13586 0.09092,0.041 0.181871,0.0847 0.259218,0.14769 0.07735,0.063 0.140867,0.14762 0.160745,0.24536 0.01251,0.0615 0.0074,0.12514 0.0016,0.18768 -0.0057,0.0625 -0.012,0.12589 -0.0016,0.18782 0.01223,0.0731 0.04722,0.14074 0.09065,0.20075 0.04343,0.06 0.09535,0.11328 0.145962,0.16738 0.05061,0.0541 0.100418,0.10969 0.138694,0.17312 0.03828,0.0634 0.06473,0.13568 0.06466,0.20976 -6.4e-5,0.0642 -0.01981,0.12662 -0.02958,0.1901 -0.0049,0.0317 -0.0073,0.0641 -0.0034,0.096 0.0039,0.0319 0.01419,0.0634 0.033,0.0894 0.0232,0.0321 0.05845,0.0545 0.0964,0.0658 0.03795,0.0113 0.0785,0.0122 0.117721,0.007 0.07844,-0.0111 0.150911,-0.0467 0.225846,-0.0724 0.280288,-0.0961 0.586938,-0.0521 0.87952,-0.005 0.292583,0.0468 0.597857,0.0946 0.880359,0.005 0.278519,-0.0881 0.499611,-0.29903 0.69495,-0.51624 0.195339,-0.21722 0.379983,-0.45113 0.624958,-0.61027 0.26794,-0.17406 0.587993,-0.24566 0.879939,-0.3755 0.292502,-0.13003 0.564478,-0.32121 0.87994,-0.37551 0.232819,-0.0477 0.474087,-0.0275 0.710097,-0.0553 0.118005,-0.0139 0.235626,-0.0402 0.342945,-0.0912 0.107318,-0.051 0.204235,-0.12796 0.266866,-0.22894 0.05058,0.0395 0.116897,0.0571 0.180873,0.0518 0.06397,-0.005 0.125321,-0.0326 0.174797,-0.0735 0.04948,-0.0409 0.08734,-0.0949 0.112825,-0.15386 0.02549,-0.0589 0.03889,-0.12263 0.04361,-0.18665 0.0094,-0.12804 -0.01527,-0.25583 -0.03893,-0.38202 -0.02365,-0.12619 -0.04646,-0.2546 -0.03321,-0.3823 -0.0163,0.002 -0.03308,-0.002 -0.04716,-0.0106 -0.01407,-0.008 -0.02538,-0.0213 -0.032,-0.0363 -0.0066,-0.015 -0.0085,-0.032 -0.0056,-0.0481 0.003,-0.0161 0.01076,-0.0313 0.02203,-0.0432 0.01127,-0.0119 0.02597,-0.0205 0.04182,-0.0246 0.01586,-0.004 0.03282,-0.004 0.04856,7.6e-4 0.01573,0.005 0.0302,0.0134 0.04162,0.0251 0.01142,0.0118 0.01977,0.0264 0.0242,0.0422 0.0089,0.0316 0.0013,0.067 -0.01884,0.0929 -0.0201,0.0259 -0.05201,0.0419 -0.08472,0.0437 -0.03272,0.002 -0.06578,-0.0102 -0.09046,-0.0317 -0.02469,-0.0216 -0.04095,-0.0522 -0.04615,-0.0846 -0.0052,-0.0324 4.81e-4,-0.0662 0.01486,-0.0956 0.01438,-0.0294 0.03726,-0.0545 0.06461,-0.0725 0.0547,-0.0361 0.125493,-0.043 0.189103,-0.0272 0.06361,0.0158 0.120521,0.0525 0.168528,0.0971 0.04801,0.0446 0.08791,0.0971 0.126889,0.1498 0.0367,0.054 0.0729,0.1086 0.116564,0.1571 0.04366,0.0485 0.0955,0.0911 0.156072,0.11536 0.06057,0.0243 0.130624,0.029 0.190847,0.004 0.03011,-0.0126 0.05732,-0.0324 0.07749,-0.0581 0.02017,-0.0256 0.03315,-0.0571 0.03567,-0.0896 0.0025,-0.0325 -0.0056,-0.066 -0.02379,-0.0931 -0.0182,-0.0271 -0.04653,-0.0474 -0.0783,-0.0549 -0.03177,-0.007 -0.06667,-0.002 -0.09361,0.0168 -0.02694,0.0184 -0.04524,0.0493 -0.04725,0.0819 -0.001,0.0163 0.0019,0.0328 0.0086,0.0477 0.0067,0.0149 0.01716,0.0281 0.03022,0.0378 0.01306,0.01 0.0287,0.0161 0.0449,0.018 0.0162,0.002 0.03293,-6.1e-4 0.04778,-0.007 0.01485,-0.007 0.02777,-0.0177 0.03669,-0.0314 0.0089,-0.0137 0.0138,-0.03 0.01369,-0.0463 -1.06e-4,-0.0163 -0.0052,-0.0326 -0.01458,-0.0459 -0.0094,-0.0134 -0.02297,-0.0237 -0.03839,-0.0291 0.118656,-0.1351 0.207389,-0.29323 0.30821,-0.44211 0.100821,-0.14888 0.218335,-0.2927 0.375163,-0.38065 0.07841,-0.044 0.165961,-0.073 0.255715,-0.0782 0.08975,-0.005 0.181685,0.0142 0.258648,0.0607 0.07696,0.0465 0.13796,0.12077 0.162741,0.20719 0.02478,0.0864 0.01142,0.18425 -0.04057,0.2576 0.04409,0.0173 0.08535,0.043 0.11709,0.0782 0.03174,0.0351 0.05354,0.08 0.05727,0.12724 0.0037,0.0472 -0.0116,0.0964 -0.04456,0.13043 -0.01648,0.017 -0.0371,0.03 -0.05969,0.0371 -0.02259,0.007 -0.04712,0.008 -0.07011,0.003 -0.0039,0.0639 -0.01964,0.12749 -0.04934,0.18424 -0.0297,0.0568 -0.07357,0.10644 -0.127849,0.14044 -0.05428,0.034 -0.11885,0.0519 -0.182823,0.0487 -0.06397,-0.003 -0.126742,-0.0276 -0.175893,-0.0687 -0.04915,-0.0411 -0.0842,-0.0983 -0.100246,-0.1603 -0.01605,-0.062 -0.01332,-0.12814 0.0034,-0.18997 0.01673,-0.0618 0.04701,-0.11926 0.08217,-0.1728 0.03516,-0.0535 0.07535,-0.10363 0.110606,-0.15711 l 0.879939,0.75101 c 0.0739,0.0631 0.143473,0.13097 0.210134,0.20165 0.03333,0.0353 0.06692,0.0706 0.104334,0.1016 0.03742,0.031 0.07916,0.0577 0.125502,0.0722 0.07027,0.0221 0.145912,0.0158 0.219319,0.01 0.07341,-0.006 0.146997,-0.01 0.220651,-0.01 l 0.43997,0 c 0.0735,0 0.146968,0.003 0.220337,0.007 0.07337,0.004 0.147928,0.009 0.219632,-0.007 0.05258,-0.0118 0.103128,-0.0357 0.142225,-0.0728 0.0391,-0.0371 0.06603,-0.0881 0.06951,-0.14185 0.0017,-0.0269 -0.0024,-0.0542 -0.01255,-0.0792 -0.01019,-0.0249 -0.0265,-0.0475 -0.04748,-0.0644 -0.02098,-0.0169 -0.04661,-0.0281 -0.07336,-0.0314 -0.02675,-0.003 -0.05453,0.001 -0.07835,0.0141 -0.03092,0.0164 -0.0542,0.0454 -0.06677,0.0781 -0.01257,0.0327 -0.01493,0.0687 -0.01033,0.10338 0.0092,0.0694 0.04481,0.13194 0.07709,0.19403 0.224318,0.43138 0.314945,0.93111 0.256391,1.41378 -0.05855,0.48268 -0.266039,0.94624 -0.586994,1.31147 -0.320955,0.36523 -0.754014,0.63057 -1.225162,0.75066 -0.471148,0.1201 -0.978382,0.0944 -1.435008,-0.0726 -0.456626,-0.16702 -0.860702,-0.4747 -1.143167,-0.87045 -0.282465,-0.39575 -0.442117,-0.87788 -0.451669,-1.364 -0.0096,-0.48612 0.131035,-0.97416 0.397734,-1.3807 0.266699,-0.40654 0.658376,-0.72986 1.108088,-0.91469"
       id="path4709"
       inkscape:path-effect="#path-effect4711"
       inkscape:original-d="m 55.213763,939.45948 c 1.186785,0.33674 0.467968,-2.82821 1.759877,-3.37953 0.131174,-0.0559 0.336268,0.0885 0.43997,0 0.231884,-0.1979 0.208085,-0.55309 0.43997,-0.751 0.103702,-0.0885 0.29769,0.0304 0.439969,0 0.449921,-0.096 0.905102,-0.19849 1.319908,-0.3755 1.117763,-0.47699 -0.450581,-0.44879 1.319909,-0.75101 0.431425,-0.0736 0.902517,0.11875 1.319908,0 0.501643,-0.1427 0.828952,-0.58339 1.319909,-0.75101 0.272335,-0.0929 0.589574,0.0354 0.87994,0 0.740288,-0.0903 1.462217,-0.27057 2.199847,-0.3755 0.144661,-0.0206 0.300839,0.0396 0.43997,0 0.311105,-0.0885 0.568833,-0.28699 0.879938,-0.3755 0.139131,-0.0395 0.293314,0 0.43997,0 0.439969,0 0.879939,0 1.319909,0 0.146656,0 0.336267,-0.0885 0.43997,0 0.103702,0.0885 0,0.25034 0,0.3755 0,0.12517 0,0.25034 0,0.3755 0,0.50068 0,1.00135 0,1.50202 0,0.25033 -0.09275,0.51351 0,0.751 0.131173,0.33586 0.694431,0.43436 0.879938,0.75101 0.06559,0.11196 -0.04638,0.25676 0,0.3755 0.103702,0.26552 0.336268,0.48549 0.439969,0.75101 0.04638,0.11875 -0.103702,0.28699 0,0.3755 0.103703,0.0885 0.293314,0 0.43997,0 0.10916,0 1.723687,0.0206 1.759879,0 0.51771,-0.29457 0.802197,-0.83193 1.319908,-1.12651 0.272858,-0.15525 0.586627,-0.25033 0.879939,-0.3755 0.293313,-0.12517 0.57546,-0.27155 0.87994,-0.37551 0.430597,-0.14699 0.991974,-0.0956 1.319908,-0.3755 0.327934,-0.27988 0.182717,-0.79716 0.439969,-1.12651 0.06542,-0.0838 0.645938,0.0666 0.87994,0 0.444005,-0.12631 1.066238,-0.59199 1.319908,-0.3755 0.103702,0.0885 0.146657,0.3755 0,0.3755 -0.207404,0 -0.586626,-0.50067 -0.43997,-0.3755 0.293314,0.25034 0.586627,0.50067 0.879939,0.75101 0.146657,0.12516 0.254462,0.29634 0.43997,0.3755 0.131173,0.0559 0.293313,0 0.43997,0 0.146656,0 0.293313,0 0.43997,0 0.146655,0 0.336267,0.0885 0.439969,0 0.103703,-0.0885 -0.146657,-0.3755 0,-0.3755 0.146656,0 0.141014,0.40988 0,0.3755 -1.073929,-0.26187 -2.053191,-0.75101 -3.079787,-1.12651"
       inkscape:connector-curvature="0" />
    <path
       style="fill:none;fill-rule:evenodd;stroke:#000000;stroke-width:1.13808799px;stroke-linecap:butt;stroke-linejoin:miter;stroke-opacity:1"
       d="m 92.171203,918.43133 c 0.48577,-0.43028 1.113114,-0.69799 1.759878,-0.75101 0.438639,-0.036 0.879797,0 1.319908,0 l 2.199849,0 c 0.06365,0 0.127839,6.9e-4 0.190004,0.0144 0.06216,0.0137 0.121975,0.0406 0.170099,0.0823 0.04812,0.0417 0.08368,0.0975 0.101587,0.15859 0.0179,0.0611 0.01829,0.12652 0.0064,0.18904 -0.02386,0.12505 -0.09725,0.23482 -0.135271,0.35631 -0.01901,0.0608 -0.02818,0.12637 -0.01274,0.18812 0.0077,0.0309 0.02166,0.0604 0.04208,0.0848 0.02042,0.0244 0.04745,0.0436 0.07785,0.053 0.03715,0.0115 0.07745,0.008 0.115208,-0.001 0.03776,-0.009 0.07386,-0.0242 0.11091,-0.036 0.03705,-0.0118 0.07592,-0.0205 0.114618,-0.0167 0.01935,0.002 0.03848,0.007 0.05575,0.0159 0.01726,0.009 0.03261,0.0218 0.04349,0.038 0.01826,0.027 0.0229,0.0614 0.01958,0.0939 -0.0033,0.0325 -0.01396,0.0636 -0.02415,0.0946 -0.01019,0.031 -0.02007,0.0625 -0.02179,0.0951 -0.0017,0.0326 0.0055,0.0668 0.02636,0.0919 0.0124,0.0149 0.02912,0.0261 0.04729,0.0329 0.01817,0.007 0.03776,0.01 0.05718,0.009 0.03883,-7.2e-4 0.07637,-0.0134 0.112681,-0.0272 0.0363,-0.0138 0.07253,-0.029 0.110901,-0.035 0.01919,-0.003 0.03883,-0.004 0.05802,-6.9e-4 0.01919,0.003 0.03792,0.01 0.05391,0.0208 0.02753,0.019 0.04549,0.0499 0.0531,0.0824 0.0076,0.0326 0.0056,0.0668 -9.7e-4,0.0996 -0.01312,0.0656 -0.04397,0.12711 -0.05213,0.1935 -0.0064,0.0517 0.0015,0.10485 0.02093,0.1532 0.01938,0.0484 0.05008,0.0919 0.08783,0.1278 0.07549,0.0718 0.177584,0.11174 0.281034,0.12404 0.10345,0.0123 0.208672,-0.001 0.309467,-0.0278 0.100796,-0.0263 0.197912,-0.065 0.293853,-0.10563 0.19188,-0.0812 0.383162,-0.16709 0.585842,-0.21539 0.20269,-0.0483 0.41253,-0.0562 0.62089,-0.0562 l 2.63982,0 c 0.29367,0 0.58727,0.008 0.88066,0.0204 0.2934,0.0126 0.58925,0.0261 0.87922,-0.0204 0.45219,-0.0724 0.86966,-0.29185 1.31991,-0.3755 0.36106,-0.0671 0.73193,-0.0477 1.09871,-0.0295 0.36679,0.0182 0.7339,0.0295 1.10114,0.0295 l 4.83966,0 5.27963,0 0.87994,0 c 0.0384,0 0.077,8.9e-4 0.11497,0.007 0.038,0.006 0.0752,0.0158 0.11231,0.0256 0.0371,0.01 0.0751,0.0193 0.11348,0.0175 0.0192,-9.1e-4 0.0384,-0.005 0.0558,-0.0129 0.0174,-0.008 0.033,-0.0206 0.0434,-0.0368 0.0139,-0.0216 0.0175,-0.0492 0.0114,-0.0741 -0.006,-0.025 -0.0216,-0.0472 -0.0419,-0.063 -0.0203,-0.0157 -0.0452,-0.0251 -0.0707,-0.0283 -0.0255,-0.003 -0.0516,-5.2e-4 -0.0763,0.006 -0.0496,0.0136 -0.0933,0.0427 -0.13461,0.0733 -0.0413,0.0306 -0.0816,0.0634 -0.12778,0.0858 -0.0673,0.0328 -0.14416,0.0419 -0.21891,0.0379 -0.0747,-0.004 -0.14815,-0.0209 -0.22105,-0.0379 -0.89132,-0.20775 -1.77262,-0.45847 -2.63982,-0.75101"
       id="path4713"
       inkscape:path-effect="#path-effect4715"
       inkscape:original-d="m 92.171203,918.43133 c 0.586626,-0.25034 1.150921,-0.54311 1.759878,-0.75101 0.197348,-0.0674 1.071299,0 1.319908,0 0.733284,0 1.466566,0 2.199849,0 1.18766,0 -0.01239,0.35435 0.439969,1.12651 0.06559,0.11195 0.336267,-0.0885 0.439969,0 0.103702,0.0885 -0.103703,0.287 0,0.37551 0.103702,0.0885 0.336268,-0.0885 0.439969,0 0.103703,0.0885 -0.103702,0.28699 0,0.3755 0.03533,0.0302 1.853545,0 2.199845,0 0.87994,0 1.75988,0 2.63982,0 0.287,0 1.41323,0.0739 1.75988,0 0.44992,-0.096 0.86515,-0.29787 1.31991,-0.3755 0.4962,-0.0847 1.62407,0 2.19985,0 1.61322,0 3.22644,0 4.83966,0 1.75988,0 3.51975,0 5.27963,0 0.29332,0 0.58663,0 0.87994,0 0.14666,0 0.43997,-0.12517 0.43997,0 0,0.12516 -0.29331,0 -0.43997,0 -0.14666,0 -0.29896,0.0344 -0.43996,0 -0.89186,-0.21748 -1.75988,-0.50067 -2.63982,-0.75101"
       inkscape:connector-curvature="0" />
    <path
       style="fill:none;fill-rule:evenodd;stroke:#000000;stroke-width:1.13808799px;stroke-linecap:butt;stroke-linejoin:miter;stroke-opacity:1"
       d="m 92.171203,928.94541 c 1.319238,1.177 3.071813,1.8569 4.839665,1.87751 0.44006,0.005 0.880774,-0.029 1.319908,0 0.146755,0.01 0.29527,0.0263 0.439969,0 0.157565,-0.0287 0.301231,-0.10656 0.441206,-0.18438 0.139975,-0.0778 0.282101,-0.15774 0.438734,-0.19112 0.143738,-0.0306 0.292605,-0.0218 0.439335,-0.0135 0.14673,0.008 0.29363,0.0135 0.4406,0.0135 l 3.07979,0 c 0.52209,0 1.04244,-0.0515 1.55793,-0.13432 0.25774,-0.0414 0.51743,-0.0812 0.7784,-0.075 0.26097,0.006 0.52764,0.0625 0.74346,0.20931 0.15954,0.10857 0.28421,0.26157 0.43997,0.3755 0.18993,0.13892 0.42464,0.2156 0.65996,0.2156 0.23531,0 0.47002,-0.0767 0.65995,-0.2156 0.32151,0.0358 0.63165,0.16813 0.87993,0.37551 0.1482,0.12379 0.27565,0.27407 0.43997,0.3755 0.18994,0.11724 0.41737,0.16136 0.64053,0.16616 0.22316,0.005 0.44537,-0.0268 0.66615,-0.0596 0.44156,-0.0657 0.88672,-0.10654 1.33314,-0.10654 l 3.07979,0 c 0.0736,0 0.14716,0.003 0.22055,0.009 0.0734,0.006 0.1487,0.0114 0.21941,-0.009 0.0514,-0.0149 0.0984,-0.0439 0.13629,-0.0816 0.0379,-0.0378 0.0669,-0.0842 0.0862,-0.13406 0.0388,-0.0998 0.0388,-0.21144 0.0169,-0.31622 -0.0438,-0.20955 -0.16982,-0.39214 -0.23945,-0.59458 -0.10712,-0.31146 -0.0715,-0.66893 0.095,-0.95311 0.16649,-0.28419 0.4609,-0.49005 0.78496,-0.5489"
       id="path4717"
       inkscape:path-effect="#path-effect4719"
       inkscape:original-d="m 92.171203,928.94541 c 1.613222,0.62584 3.170844,1.36883 4.839665,1.87751 0.414337,0.1263 0.879939,0 1.319908,0 0.146657,0 0.300839,0.0395 0.439969,0 0.311106,-0.0885 0.561797,-0.30763 0.87994,-0.3755 0.284555,-0.0607 0.586625,0 0.879935,0 1.0266,0 2.05319,0 3.07979,0 0.46541,0 2.85313,-0.0645 3.07979,0 0.19676,0.0559 0.25446,0.29633 0.43997,0.3755 0.35197,0.1502 0.96793,-0.1502 1.31991,0 1.45919,1.24539 -0.41481,-0.17701 0.87993,0.37551 0.18551,0.0792 0.24321,0.31952 0.43997,0.3755 0.24332,0.0692 2.19675,0 2.63982,0 1.02659,0 2.0532,0 3.07979,0 0.14666,0 0.33626,0.0885 0.43996,0 0.0785,-0.067 -0.0703,-0.97634 0,-1.12651 0.24359,-0.51974 0.58663,-1.00134 0.87995,-1.50201"
       inkscape:connector-curvature="0" />
  </g>
</svg>
