<?xml version="1.0" encoding="UTF-8" standalone="no"?>
<!-- Created with Inkscape (http://www.inkscape.org/) -->

<svg
   xmlns:dc="http://purl.org/dc/elements/1.1/"
   xmlns:cc="http://creativecommons.org/ns#"
   xmlns:rdf="http://www.w3.org/1999/02/22-rdf-syntax-ns#"
   xmlns:svg="http://www.w3.org/2000/svg"
   xmlns="http://www.w3.org/2000/svg"
   xmlns:sodipodi="http://sodipodi.sourceforge.net/DTD/sodipodi-0.dtd"
   xmlns:inkscape="http://www.inkscape.org/namespaces/inkscape"
   width="48mm"
   height="48mm"
   viewBox="0 0 170.07874 170.07874"
   id="svg5705"
   version="1.1"
   inkscape:version="0.91 r13725"
   sodipodi:docname="myico_b_5_shit.svg">
  <defs
     id="defs5707" />
  <sodipodi:namedview
     id="base"
     pagecolor="#ffffff"
     bordercolor="#666666"
     borderopacity="1.0"
     inkscape:pageopacity="0.0"
     inkscape:pageshadow="2"
     inkscape:zoom="1.4"
     inkscape:cx="277.69556"
     inkscape:cy="91.272877"
     inkscape:document-units="px"
     inkscape:current-layer="layer1"
     showgrid="true"
     inkscape:object-paths="true"
     inkscape:window-width="1536"
     inkscape:window-height="801"
     inkscape:window-x="1536"
     inkscape:window-y="23"
     inkscape:window-maximized="0"
     inkscape:snap-bbox="true"
     inkscape:snap-global="true">
    <inkscape:grid
       type="xygrid"
       id="grid9441" />
  </sodipodi:namedview>
  <metadata
     id="metadata5710">
    <rdf:RDF>
      <cc:Work
         rdf:about="">
        <dc:format>image/svg+xml</dc:format>
        <dc:type
           rdf:resource="http://purl.org/dc/dcmitype/StillImage" />
        <dc:title />
      </cc:Work>
    </rdf:RDF>
  </metadata>
  <g
     inkscape:groupmode="layer"
     id="layer2"
     inkscape:label="Layer 2" />
  <g
     inkscape:label="Layer 1"
     inkscape:groupmode="layer"
     id="layer1"
     transform="translate(0,-882.28346)"
     style="display:inline">
    <rect
       style="opacity:0;fill:#ffffff;fill-opacity:1;fill-rule:evenodd;stroke:#ff0000;stroke-width:2;stroke-linejoin:miter;stroke-miterlimit:4;stroke-dasharray:none;stroke-opacity:1"
       id="rect9560"
       width="285"
       height="185"
       x="-50"
       y="877.36218" />
    <rect
       style="opacity:0;fill:#ffffff;fill-opacity:1;fill-rule:evenodd;stroke:#ff0000;stroke-width:2;stroke-linejoin:miter;stroke-miterlimit:4;stroke-dasharray:none;stroke-opacity:1"
       id="rect9562"
       width="250"
       height="155"
       x="-25"
       y="902.36218" />
    <path
       sodipodi:type="star"
       style="opacity:0;fill:#999999;fill-opacity:1;fill-rule:evenodd;stroke:#ff0000;stroke-width:2;stroke-linejoin:miter;stroke-miterlimit:4;stroke-dasharray:none;stroke-opacity:1"
       id="path9568"
       sodipodi:sides="5"
       sodipodi:cx="-90"
       sodipodi:cy="877.36218"
       sodipodi:r1="374.43289"
       sodipodi:r2="187.21645"
       sodipodi:arg1="0.59540988"
       sodipodi:arg2="1.2237284"
       inkscape:flatsided="false"
       inkscape:rounded="0"
       inkscape:randomized="0"
       d="M 219.99999,1087.3622 -26.319818,1053.4157 -193.9266,1237.0833 -237.75856,992.32916 -464.23016,889.68204 -245,772.36219 -217.36036,525.2552 -38.036703,697.50164 205.51713,647.42824 97.115079,871.20225 Z"
       inkscape:transform-center-x="32.115086"
       inkscape:transform-center-y="3.8070459" />
    <path
       sodipodi:type="star"
       style="opacity:0;fill:#999999;fill-opacity:1;fill-rule:evenodd;stroke:#ff0000;stroke-width:2;stroke-linejoin:miter;stroke-miterlimit:4;stroke-dasharray:none;stroke-opacity:1"
       id="path9570"
       sodipodi:sides="5"
       sodipodi:cx="-25"
       sodipodi:cy="892.36218"
       sodipodi:r1="292.06165"
       sodipodi:r2="146.03082"
       sodipodi:arg1="0.66404616"
       sodipodi:arg2="1.2923647"
       inkscape:flatsided="false"
       inkscape:rounded="0"
       inkscape:randomized="0"
       d="M 205.00001,1072.3622 15.136282,1032.769 -125.11627,1166.7282 -146.13204,973.92215 -316.87526,881.92973 -140,802.36218 -105.27257,611.54851 25.058134,755.17915 217.26409,729.24224 120.93763,897.57841 Z"
       inkscape:transform-center-x="24.805586"
       inkscape:transform-center-y="-3.2238046" />
    <path
       sodipodi:type="star"
       style="opacity:0;fill:#999999;fill-opacity:1;fill-rule:evenodd;stroke:#ff0000;stroke-width:2;stroke-linejoin:miter;stroke-miterlimit:4;stroke-dasharray:none;stroke-opacity:1"
       id="path9572"
       sodipodi:sides="5"
       sodipodi:cx="-25"
       sodipodi:cy="977.3622"
       sodipodi:r1="169.70563"
       sodipodi:r2="84.852814"
       sodipodi:arg1="0.78539816"
       sodipodi:arg2="1.4137167"
       inkscape:flatsided="false"
       inkscape:rounded="0"
       inkscape:randomized="0"
       d="m 95,1097.3622 -106.726096,-36.1919 -90.318644,67.4007 1.44033,-112.6864 -92.01186,-65.07023 L -85,917.36218 -51.54781,809.74591 13.522372,901.75777 126.20882,900.31744 58.808135,990.63609 Z"
       inkscape:transform-center-x="8.2037242"
       inkscape:transform-center-y="-8.2037242" />
    <path
       style="opacity:0;fill:#000000;fill-opacity:1;fill-rule:evenodd;stroke:#ff0000;stroke-width:1.01015258;stroke-linejoin:miter;stroke-miterlimit:4;stroke-dasharray:none;stroke-opacity:1"
       d="M -378.93945 -124.36523 L -378.93945 138.52734 L -378.93945 401.41992 L 184.72461 401.41992 L 748.39062 401.41992 L 748.39062 138.52734 L 748.39062 -124.36523 L 184.72461 -124.36523 L -378.93945 -124.36523 z M 91.058594 86.142578 C 91.725059 86.061598 91.743703 86.394952 91.935547 86.8125 C 91.935832 86.835999 91.936848 86.85931 91.9375 86.882812 C 92.008518 86.919362 92.064036 86.937279 92.056641 86.888672 C 92.128401 86.908142 92.2005 86.925136 92.271484 86.947266 C 92.312154 86.959946 92.34849 86.987851 92.390625 86.994141 C 92.453165 87.003441 92.518795 86.994055 92.582031 86.994141 C 92.87626 86.994538 93.168661 86.994393 93.462891 86.994141 C 94.717053 86.991941 95.972443 86.98449 97.226562 87 C 97.953024 87.0073 98.677863 87.013967 99.404297 86.998047 C 99.68928 86.991747 99.97483 86.980956 100.25977 86.972656 C 100.49518 86.962956 100.73126 86.949179 100.9668 86.943359 C 101.20129 86.937559 101.43537 86.9394 101.66992 86.9375 C 102.50483 86.9904 102.38259 86.96999 103.26367 87.087891 C 103.50353 87.119981 103.74126 87.17524 103.98242 87.195312 C 104.29305 87.221163 104.60481 87.206949 104.91602 87.224609 C 105.68018 87.267969 106.12714 87.329213 106.88281 87.414062 C 107.72826 87.559716 108.61287 87.67705 109.42969 87.955078 C 109.72519 88.055661 110.00948 88.18676 110.29688 88.308594 C 110.56546 88.422456 110.69079 88.489566 110.86523 88.566406 C 110.8434 88.447983 110.81383 88.332689 110.80664 88.208984 C 110.75543 87.32755 111.28624 87.013316 111.68359 87.330078 C 111.70631 87.272787 111.72077 87.210554 111.75586 87.160156 C 111.82946 87.054416 111.94754 86.986953 112.04297 86.900391 L 112.35547 86.779297 C 112.33877 86.795437 112.28384 86.832975 112.30664 86.828125 C 112.34864 86.819225 112.37843 86.784298 112.41797 86.767578 C 112.77176 86.617897 112.68191 86.676143 112.92383 86.603516 C 113.03019 86.585796 113.13436 86.551351 113.24219 86.550781 C 113.61354 86.548881 114.22718 86.881314 114.50781 87.097656 C 114.60919 87.174616 114.71848 87.254515 114.80859 87.34375 C 114.85259 87.38734 114.86261 87.466436 114.91797 87.494141 C 115.04675 87.558531 115.19059 87.591826 115.32031 87.654297 C 115.37091 87.678637 115.4116 87.719053 115.45703 87.751953 C 115.32795 87.729883 115.41509 87.741514 115.58984 87.808594 C 115.65504 87.833604 115.71709 87.866292 115.7832 87.888672 C 116.14933 88.012624 116.16394 87.9719 116.49414 88.15625 C 116.5957 88.21295 116.68849 88.284935 116.78516 88.349609 C 117.00256 88.532131 117.19953 88.721842 117.37695 88.945312 C 117.46025 89.050297 117.53601 89.1614 117.61523 89.269531 C 117.63773 89.312861 117.65214 89.361561 117.68164 89.400391 C 117.75044 89.490731 117.83293 89.571227 117.9082 89.65625 C 117.9979 89.756401 118.09535 89.848838 118.17773 89.955078 C 118.30335 90.1171 118.51176 90.479953 118.60547 90.650391 C 118.69457 90.812473 118.79772 90.967668 118.86328 91.140625 C 118.96078 91.39783 118.94481 91.549384 118.94531 91.798828 C 118.94631 92.150914 118.98517 92.555951 118.8418 92.886719 C 118.784 93.020113 118.66893 93.119781 118.58203 93.236328 L 118.23438 93.505859 C 118.19888 93.516529 118.15929 93.515909 118.12891 93.537109 C 118.05491 93.588719 117.99918 93.663683 117.92773 93.71875 C 117.75615 93.850999 117.55364 93.914265 117.37109 94.029297 C 117.42059 93.962317 117.59756 93.798978 117.51953 93.828125 C 117.30605 93.907865 117.14225 94.083732 116.94141 94.191406 C 116.88091 94.223816 116.40044 94.150619 116.34961 94.193359 C 116.02323 94.196759 115.69872 94.193042 115.37305 94.169922 C 115.33275 94.170236 115.18831 94.166387 115.13086 94.179688 C 115.05076 94.198206 114.97418 94.235684 114.89258 94.246094 C 114.45833 94.301474 114.11724 94.17783 113.79492 93.882812 C 113.62705 93.676975 113.60953 93.670143 113.46875 93.445312 C 113.44245 93.403342 113.42874 93.353602 113.39844 93.314453 C 113.29894 93.186002 113.17611 93.076359 113.08008 92.945312 C 113.00938 92.848833 112.96083 92.737982 112.90039 92.634766 L 112.55273 92.167969 C 112.42879 91.975717 112.29631 91.789713 112.18164 91.591797 C 111.94604 91.185178 111.83855 90.891196 111.63086 90.474609 C 111.59224 90.397142 111.55685 90.319304 111.51758 90.242188 C 110.85874 89.936659 110.55794 89.79161 109.79102 89.466797 C 109.51348 89.349251 109.23852 89.221914 108.95312 89.125 C 108.74246 89.05346 108.52347 89.012782 108.30664 88.962891 C 107.69671 88.822543 107.32209 88.77002 106.66992 88.658203 C 105.97339 88.581693 105.52355 88.522002 104.81641 88.482422 C 104.52589 88.466162 104.2333 88.481541 103.94336 88.457031 C 103.65475 88.432621 103.3712 88.373259 103.08398 88.335938 C 102.19855 88.220898 102.40411 88.246356 101.5918 88.197266 C 100.13249 88.247096 98.673204 88.276349 97.212891 88.261719 C 95.963749 88.246319 94.71598 88.255612 93.466797 88.257812 C 93.171087 88.258033 92.873835 88.256258 92.578125 88.255859 C 92.515245 88.255774 92.45295 88.264228 92.390625 88.255859 C 92.12055 88.219609 91.974253 88.173461 91.728516 88.107422 C 91.35461 87.980282 90.957829 87.95989 90.742188 87.541016 C 90.640068 87.342652 90.680211 87.098062 90.675781 86.875 C 90.752611 87.200414 90.721117 87.387081 91.269531 87.386719 C 91.426577 87.386615 91.53932 87.225593 91.673828 87.144531 C 91.789411 87.074874 91.835608 87.028927 91.863281 86.988281 C 91.852817 86.946836 91.838182 86.909099 91.814453 86.876953 C 91.424167 86.782984 89.841748 87.06607 90.587891 86.5 C 90.745022 86.38079 90.862799 86.166368 91.058594 86.142578 z M 113.10352 87.777344 C 113.08332 87.773744 113.13615 87.806447 113.15625 87.810547 C 113.16262 87.811842 113.16934 87.809845 113.17578 87.810547 C 113.15008 87.800818 113.12473 87.781144 113.10352 87.777344 z M 113.21094 87.828125 C 113.16665 87.84349 113.2976 87.80036 112.9043 87.888672 C 112.872 87.895872 112.99831 87.852146 113.00391 87.884766 C 113.00829 87.91048 112.90038 87.939682 112.78711 87.964844 C 112.73175 88.133625 112.47295 88.391757 112.40234 88.484375 C 112.39722 88.491089 112.39611 88.50017 112.39258 88.507812 C 112.39224 88.516323 112.39504 88.516504 112.39453 88.525391 C 112.37857 88.803958 112.38195 88.904557 112.28125 88.939453 C 112.33663 89.070347 112.40501 89.193675 112.4707 89.324219 C 112.62357 89.418464 112.73749 89.519314 112.80664 89.626953 C 113.11934 89.368375 113.62506 89.321787 113.89453 89.898438 C 113.91341 89.938868 114.29518 90.4577 114.51758 90.861328 C 114.67102 90.799876 114.69184 90.794867 114.52344 90.871094 C 114.64046 91.085192 114.7238 91.273425 114.65234 91.318359 C 114.3649 91.499126 114.00636 91.506736 113.66211 91.546875 L 113.91211 91.880859 C 113.99631 92.019658 114.06921 92.165092 114.16406 92.296875 C 114.21176 92.363185 114.2856 92.406352 114.33594 92.470703 C 114.48958 92.667117 114.59933 92.886092 114.76367 93.074219 C 114.77867 93.071819 114.80139 93.079706 114.80859 93.066406 C 114.83139 93.024196 114.73302 92.998051 114.72852 92.994141 C 114.72352 92.990241 114.73493 92.981899 114.74023 92.980469 C 114.82603 92.959309 114.91232 92.938474 115 92.927734 C 115.10589 92.914764 115.21187 92.914533 115.31836 92.908203 C 115.65813 92.925253 115.9958 92.933207 116.33594 92.929688 C 116.46855 92.928213 116.60174 92.927732 116.73438 92.927734 C 116.81202 92.900259 116.8957 92.876092 116.95508 92.837891 C 117.06787 92.737991 116.9403 92.843211 117.1875 92.705078 C 117.32059 92.630688 117.11774 92.720276 117.24414 92.634766 C 117.63306 92.371667 117.62751 92.390643 117.67578 92.349609 C 117.67281 92.32555 117.68359 92.277638 117.68359 92.248047 C 117.68559 92.09988 117.68403 91.952813 117.68359 91.804688 C 117.68341 91.720067 117.69413 91.634741 117.68359 91.550781 C 117.67019 91.444027 117.56976 91.374386 117.51758 91.292969 C 117.33909 91.014444 117.22023 90.749688 116.98438 90.517578 C 116.90178 90.424498 116.81166 90.33733 116.73633 90.238281 C 116.66163 90.140071 116.60743 90.029125 116.53711 89.927734 C 116.37873 89.699359 116.19656 89.496033 115.98047 89.322266 C 115.92197 89.285666 115.86626 89.244107 115.80469 89.212891 C 115.70639 89.163041 115.52689 89.134029 115.43555 89.103516 C 115.17326 89.015896 114.96871 88.925459 114.73242 88.787109 C 114.68172 88.750449 114.6369 88.702012 114.58008 88.675781 C 114.56628 88.669381 114.55256 88.690246 114.53906 88.697266 C 114.41355 88.622826 114.27891 88.56207 114.16211 88.474609 C 114.01588 88.365123 113.89686 88.218205 113.74805 88.107422 C 113.70235 88.068652 113.6631 88.020422 113.61133 87.990234 C 113.58163 87.972924 113.54318 87.98259 113.51172 87.96875 C 113.45774 87.944918 113.3236 87.87728 113.21094 87.828125 z M 114.52344 90.871094 C 114.52165 90.867819 114.51939 90.86462 114.51758 90.861328 C 114.4796 90.876538 114.54896 90.845977 114.48242 90.873047 C 114.14856 91.008879 113.78116 91.083917 113.47461 91.269531 C 113.49377 91.297573 113.51009 91.327451 113.5293 91.355469 C 113.85496 91.1818 114.26454 90.988282 114.52344 90.871094 z M 112.71289 87.982422 C 112.55657 88.014718 112.43064 88.036424 112.61523 88.027344 C 112.64582 88.067138 112.68119 88.02927 112.71289 87.982422 z M 117.77734 92.205078 C 117.75624 92.228973 117.74782 92.264845 117.73633 92.296875 C 117.75869 92.276389 117.74162 92.293729 117.78125 92.257812 C 117.78025 92.240223 117.78834 92.191858 117.77734 92.205078 z "
       transform="translate(0,882.28346)"
       id="path9574" />
    <path
       style="opacity:0;fill:#00ff00;fill-opacity:1;fill-rule:evenodd;stroke:#ff0000;stroke-width:1.01015258;stroke-linejoin:miter;stroke-miterlimit:4;stroke-dasharray:none;stroke-opacity:1"
       d="M -378.93945 -124.21289 L -378.93945 138.17383 L -378.93945 400.56055 L 184.72461 400.56055 L 748.39062 400.56055 L 748.39062 138.17383 L 748.39062 -124.21289 L 184.72461 -124.21289 L -378.93945 -124.21289 z M 91.058594 86.142578 C 91.725059 86.061598 91.743703 86.394952 91.935547 86.8125 C 91.935832 86.835999 91.936848 86.85931 91.9375 86.882812 C 92.008518 86.919362 92.064036 86.937279 92.056641 86.888672 C 92.128401 86.908142 92.2005 86.925136 92.271484 86.947266 C 92.312154 86.959946 92.34849 86.987851 92.390625 86.994141 C 92.453165 87.003441 92.518795 86.994055 92.582031 86.994141 C 92.87626 86.994538 93.168661 86.994393 93.462891 86.994141 C 94.717053 86.991941 95.972443 86.98449 97.226562 87 C 97.953024 87.0073 98.677863 87.013967 99.404297 86.998047 C 99.68928 86.991747 99.97483 86.980956 100.25977 86.972656 C 100.49518 86.962956 100.73126 86.949179 100.9668 86.943359 C 101.20129 86.937559 101.43537 86.9394 101.66992 86.9375 C 102.50483 86.9904 102.38259 86.96999 103.26367 87.087891 C 103.50353 87.119981 103.74126 87.17524 103.98242 87.195312 C 104.29305 87.221163 104.60481 87.206949 104.91602 87.224609 C 105.68018 87.267969 106.12714 87.329213 106.88281 87.414062 C 107.72826 87.559716 108.61287 87.67705 109.42969 87.955078 C 109.72519 88.055661 110.00948 88.18676 110.29688 88.308594 C 110.56546 88.422456 110.69079 88.489566 110.86523 88.566406 C 110.8434 88.447983 110.81383 88.332689 110.80664 88.208984 C 110.75543 87.32755 111.28624 87.013316 111.68359 87.330078 C 111.70631 87.272787 111.72077 87.210554 111.75586 87.160156 C 111.82946 87.054416 111.94754 86.986953 112.04297 86.900391 L 112.35547 86.779297 C 112.33877 86.795437 112.28384 86.832975 112.30664 86.828125 C 112.34864 86.819225 112.37843 86.784298 112.41797 86.767578 C 112.77176 86.617897 112.68191 86.676143 112.92383 86.603516 C 113.03019 86.585796 113.13436 86.551351 113.24219 86.550781 C 113.61354 86.548881 114.22718 86.881314 114.50781 87.097656 C 114.60919 87.174616 114.71848 87.254515 114.80859 87.34375 C 114.85259 87.38734 114.86261 87.466436 114.91797 87.494141 C 115.04675 87.558531 115.19059 87.591826 115.32031 87.654297 C 115.37091 87.678637 115.4116 87.719053 115.45703 87.751953 C 115.32795 87.729883 115.41509 87.741514 115.58984 87.808594 C 115.65504 87.833604 115.71709 87.866292 115.7832 87.888672 C 116.14933 88.012624 116.16394 87.9719 116.49414 88.15625 C 116.5957 88.21295 116.68849 88.284935 116.78516 88.349609 C 117.00256 88.532131 117.19953 88.721842 117.37695 88.945312 C 117.46025 89.050297 117.53601 89.1614 117.61523 89.269531 C 117.63773 89.312861 117.65214 89.361561 117.68164 89.400391 C 117.75044 89.490731 117.83293 89.571227 117.9082 89.65625 C 117.9979 89.756401 118.09535 89.848838 118.17773 89.955078 C 118.30335 90.1171 118.51176 90.479953 118.60547 90.650391 C 118.69457 90.812473 118.79772 90.967668 118.86328 91.140625 C 118.96078 91.39783 118.94481 91.549384 118.94531 91.798828 C 118.94631 92.150914 118.98517 92.555951 118.8418 92.886719 C 118.784 93.020113 118.66893 93.119781 118.58203 93.236328 L 118.23438 93.505859 C 118.19888 93.516529 118.15929 93.515909 118.12891 93.537109 C 118.05491 93.588719 117.99918 93.663683 117.92773 93.71875 C 117.75615 93.850999 117.55364 93.914265 117.37109 94.029297 C 117.42059 93.962317 117.59756 93.798978 117.51953 93.828125 C 117.30605 93.907865 117.14225 94.083732 116.94141 94.191406 C 116.88091 94.223816 116.40044 94.150619 116.34961 94.193359 C 116.02323 94.196759 115.69872 94.193042 115.37305 94.169922 C 115.33275 94.170236 115.18831 94.166387 115.13086 94.179688 C 115.05076 94.198206 114.97418 94.235684 114.89258 94.246094 C 114.45833 94.301474 114.11724 94.17783 113.79492 93.882812 C 113.62705 93.676975 113.60953 93.670143 113.46875 93.445312 C 113.44245 93.403342 113.42874 93.353602 113.39844 93.314453 C 113.29894 93.186002 113.17611 93.076359 113.08008 92.945312 C 113.00938 92.848833 112.96083 92.737982 112.90039 92.634766 L 112.55273 92.167969 C 112.42879 91.975717 112.29631 91.789713 112.18164 91.591797 C 111.94604 91.185178 111.83855 90.891196 111.63086 90.474609 C 111.59224 90.397142 111.55685 90.319304 111.51758 90.242188 C 110.85874 89.936659 110.55794 89.79161 109.79102 89.466797 C 109.51348 89.349251 109.23852 89.221914 108.95312 89.125 C 108.74246 89.05346 108.52347 89.012782 108.30664 88.962891 C 107.69671 88.822543 107.32209 88.77002 106.66992 88.658203 C 105.97339 88.581693 105.52355 88.522002 104.81641 88.482422 C 104.52589 88.466162 104.2333 88.481541 103.94336 88.457031 C 103.65475 88.432621 103.3712 88.373259 103.08398 88.335938 C 102.19855 88.220898 102.40411 88.246356 101.5918 88.197266 C 100.13249 88.247096 98.673204 88.276349 97.212891 88.261719 C 95.963749 88.246319 94.71598 88.255612 93.466797 88.257812 C 93.171087 88.258033 92.873835 88.256258 92.578125 88.255859 C 92.515245 88.255774 92.45295 88.264228 92.390625 88.255859 C 92.12055 88.219609 91.974253 88.173461 91.728516 88.107422 C 91.35461 87.980282 90.957829 87.95989 90.742188 87.541016 C 90.640068 87.342652 90.680211 87.098062 90.675781 86.875 C 90.752611 87.200414 90.721117 87.387081 91.269531 87.386719 C 91.426577 87.386615 91.53932 87.225593 91.673828 87.144531 C 91.789411 87.074874 91.835608 87.028927 91.863281 86.988281 C 91.852817 86.946836 91.838182 86.909099 91.814453 86.876953 C 91.424167 86.782984 89.841748 87.06607 90.587891 86.5 C 90.745022 86.38079 90.862799 86.166368 91.058594 86.142578 z M 113.10352 87.777344 C 113.08332 87.773744 113.13615 87.806447 113.15625 87.810547 C 113.16262 87.811842 113.16934 87.809845 113.17578 87.810547 C 113.15008 87.800818 113.12473 87.781144 113.10352 87.777344 z M 113.21094 87.828125 C 113.16665 87.84349 113.2976 87.80036 112.9043 87.888672 C 112.872 87.895872 112.99831 87.852146 113.00391 87.884766 C 113.00829 87.91048 112.90038 87.939682 112.78711 87.964844 C 112.73175 88.133625 112.47295 88.391757 112.40234 88.484375 C 112.39722 88.491089 112.39611 88.50017 112.39258 88.507812 C 112.39224 88.516323 112.39504 88.516504 112.39453 88.525391 C 112.37857 88.803958 112.38195 88.904557 112.28125 88.939453 C 112.33663 89.070347 112.40501 89.193675 112.4707 89.324219 C 112.62357 89.418464 112.73749 89.519314 112.80664 89.626953 C 113.11934 89.368375 113.62506 89.321787 113.89453 89.898438 C 113.91341 89.938868 114.29518 90.4577 114.51758 90.861328 C 114.67102 90.799876 114.69184 90.794867 114.52344 90.871094 C 114.64046 91.085192 114.7238 91.273425 114.65234 91.318359 C 114.3649 91.499126 114.00636 91.506736 113.66211 91.546875 L 113.91211 91.880859 C 113.99631 92.019658 114.06921 92.165092 114.16406 92.296875 C 114.21176 92.363185 114.2856 92.406352 114.33594 92.470703 C 114.48958 92.667117 114.59933 92.886092 114.76367 93.074219 C 114.77867 93.071819 114.80139 93.079706 114.80859 93.066406 C 114.83139 93.024196 114.73302 92.998051 114.72852 92.994141 C 114.72352 92.990241 114.73493 92.981899 114.74023 92.980469 C 114.82603 92.959309 114.91232 92.938474 115 92.927734 C 115.10589 92.914764 115.21187 92.914533 115.31836 92.908203 C 115.65813 92.925253 115.9958 92.933207 116.33594 92.929688 C 116.46855 92.928213 116.60174 92.927732 116.73438 92.927734 C 116.81202 92.900259 116.8957 92.876092 116.95508 92.837891 C 117.06787 92.737991 116.9403 92.843211 117.1875 92.705078 C 117.32059 92.630688 117.11774 92.720276 117.24414 92.634766 C 117.63306 92.371667 117.62751 92.390643 117.67578 92.349609 C 117.67281 92.32555 117.68359 92.277638 117.68359 92.248047 C 117.68559 92.09988 117.68403 91.952813 117.68359 91.804688 C 117.68341 91.720067 117.69413 91.634741 117.68359 91.550781 C 117.67019 91.444027 117.56976 91.374386 117.51758 91.292969 C 117.33909 91.014444 117.22023 90.749688 116.98438 90.517578 C 116.90178 90.424498 116.81166 90.33733 116.73633 90.238281 C 116.66163 90.140071 116.60743 90.029125 116.53711 89.927734 C 116.37873 89.699359 116.19656 89.496033 115.98047 89.322266 C 115.92197 89.285666 115.86626 89.244107 115.80469 89.212891 C 115.70639 89.163041 115.52689 89.134029 115.43555 89.103516 C 115.17326 89.015896 114.96871 88.925459 114.73242 88.787109 C 114.68172 88.750449 114.6369 88.702012 114.58008 88.675781 C 114.56628 88.669381 114.55256 88.690246 114.53906 88.697266 C 114.41355 88.622826 114.27891 88.56207 114.16211 88.474609 C 114.01588 88.365123 113.89686 88.218205 113.74805 88.107422 C 113.70235 88.068652 113.6631 88.020422 113.61133 87.990234 C 113.58163 87.972924 113.54318 87.98259 113.51172 87.96875 C 113.45774 87.944918 113.3236 87.87728 113.21094 87.828125 z M 114.52344 90.871094 C 114.52165 90.867819 114.51939 90.86462 114.51758 90.861328 C 114.4796 90.876538 114.54896 90.845977 114.48242 90.873047 C 114.14856 91.008879 113.78116 91.083917 113.47461 91.269531 C 113.49377 91.297573 113.51009 91.327451 113.5293 91.355469 C 113.85496 91.1818 114.26454 90.988282 114.52344 90.871094 z M 112.71289 87.982422 C 112.55657 88.014718 112.43064 88.036424 112.61523 88.027344 C 112.64582 88.067138 112.68119 88.02927 112.71289 87.982422 z M 117.77734 92.205078 C 117.75624 92.228973 117.74782 92.264845 117.73633 92.296875 C 117.75869 92.276389 117.74162 92.293729 117.78125 92.257812 C 117.78025 92.240223 117.78834 92.191858 117.77734 92.205078 z "
       transform="translate(0,882.28346)"
       id="path9576" />
    <path
       style="opacity:0;fill:#00ff00;fill-opacity:1;fill-rule:evenodd;stroke:#ff0000;stroke-width:1.01015258;stroke-linejoin:miter;stroke-miterlimit:4;stroke-dasharray:none;stroke-opacity:1"
       d="M -378.93945 -124.21289 L -378.93945 138.17383 L -378.93945 400.56055 L 184.72461 400.56055 L 748.39062 400.56055 L 748.39062 138.17383 L 748.39062 -124.21289 L 184.72461 -124.21289 L -378.93945 -124.21289 z M 91.058594 86.142578 C 91.725059 86.061598 91.743703 86.394952 91.935547 86.8125 C 91.935832 86.835999 91.936848 86.85931 91.9375 86.882812 C 92.008518 86.919362 92.064036 86.937279 92.056641 86.888672 C 92.128401 86.908142 92.2005 86.925136 92.271484 86.947266 C 92.312154 86.959946 92.34849 86.987851 92.390625 86.994141 C 92.453165 87.003441 92.518795 86.994055 92.582031 86.994141 C 92.87626 86.994538 93.168661 86.994393 93.462891 86.994141 C 94.717053 86.991941 95.972443 86.98449 97.226562 87 C 97.953024 87.0073 98.677863 87.013967 99.404297 86.998047 C 99.68928 86.991747 99.97483 86.980956 100.25977 86.972656 C 100.49518 86.962956 100.73126 86.949179 100.9668 86.943359 C 101.20129 86.937559 101.43537 86.9394 101.66992 86.9375 C 102.50483 86.9904 102.38259 86.96999 103.26367 87.087891 C 103.50353 87.119981 103.74126 87.17524 103.98242 87.195312 C 104.29305 87.221163 104.60481 87.206949 104.91602 87.224609 C 105.68018 87.267969 106.12714 87.329213 106.88281 87.414062 C 107.72826 87.559716 108.61287 87.67705 109.42969 87.955078 C 109.72519 88.055661 110.00948 88.18676 110.29688 88.308594 C 110.56546 88.422456 110.69079 88.489566 110.86523 88.566406 C 110.8434 88.447983 110.81383 88.332689 110.80664 88.208984 C 110.75543 87.32755 111.28624 87.013316 111.68359 87.330078 C 111.70631 87.272787 111.72077 87.210554 111.75586 87.160156 C 111.82946 87.054416 111.94754 86.986953 112.04297 86.900391 L 112.35547 86.779297 C 112.33877 86.795437 112.28384 86.832975 112.30664 86.828125 C 112.34864 86.819225 112.37843 86.784298 112.41797 86.767578 C 112.77176 86.617897 112.68191 86.676143 112.92383 86.603516 C 113.03019 86.585796 113.13436 86.551351 113.24219 86.550781 C 113.61354 86.548881 114.22718 86.881314 114.50781 87.097656 C 114.60919 87.174616 114.71848 87.254515 114.80859 87.34375 C 114.85259 87.38734 114.86261 87.466436 114.91797 87.494141 C 115.04675 87.558531 115.19059 87.591826 115.32031 87.654297 C 115.37091 87.678637 115.4116 87.719053 115.45703 87.751953 C 115.32795 87.729883 115.41509 87.741514 115.58984 87.808594 C 115.65504 87.833604 115.71709 87.866292 115.7832 87.888672 C 116.14933 88.012624 116.16394 87.9719 116.49414 88.15625 C 116.5957 88.21295 116.68849 88.284935 116.78516 88.349609 C 117.00256 88.532131 117.19953 88.721842 117.37695 88.945312 C 117.46025 89.050297 117.53601 89.1614 117.61523 89.269531 C 117.63773 89.312861 117.65214 89.361561 117.68164 89.400391 C 117.75044 89.490731 117.83293 89.571227 117.9082 89.65625 C 117.9979 89.756401 118.09535 89.848838 118.17773 89.955078 C 118.30335 90.1171 118.51176 90.479953 118.60547 90.650391 C 118.69457 90.812473 118.79772 90.967668 118.86328 91.140625 C 118.96078 91.39783 118.94481 91.549384 118.94531 91.798828 C 118.94631 92.150914 118.98517 92.555951 118.8418 92.886719 C 118.784 93.020113 118.66893 93.119781 118.58203 93.236328 L 118.23438 93.505859 C 118.19888 93.516529 118.15929 93.515909 118.12891 93.537109 C 118.05491 93.588719 117.99918 93.663683 117.92773 93.71875 C 117.75615 93.850999 117.55364 93.914265 117.37109 94.029297 C 117.42059 93.962317 117.59756 93.798978 117.51953 93.828125 C 117.30605 93.907865 117.14225 94.083732 116.94141 94.191406 C 116.88091 94.223816 116.40044 94.150619 116.34961 94.193359 C 116.02323 94.196759 115.69872 94.193042 115.37305 94.169922 C 115.33275 94.170236 115.18831 94.166387 115.13086 94.179688 C 115.05076 94.198206 114.97418 94.235684 114.89258 94.246094 C 114.45833 94.301474 114.11724 94.17783 113.79492 93.882812 C 113.62705 93.676975 113.60953 93.670143 113.46875 93.445312 C 113.44245 93.403342 113.42874 93.353602 113.39844 93.314453 C 113.29894 93.186002 113.17611 93.076359 113.08008 92.945312 C 113.00938 92.848833 112.96083 92.737982 112.90039 92.634766 L 112.55273 92.167969 C 112.42879 91.975717 112.29631 91.789713 112.18164 91.591797 C 111.94604 91.185178 111.83855 90.891196 111.63086 90.474609 C 111.59224 90.397142 111.55685 90.319304 111.51758 90.242188 C 110.85874 89.936659 110.55794 89.79161 109.79102 89.466797 C 109.51348 89.349251 109.23852 89.221914 108.95312 89.125 C 108.74246 89.05346 108.52347 89.012782 108.30664 88.962891 C 107.69671 88.822543 107.32209 88.77002 106.66992 88.658203 C 105.97339 88.581693 105.52355 88.522002 104.81641 88.482422 C 104.52589 88.466162 104.2333 88.481541 103.94336 88.457031 C 103.65475 88.432621 103.3712 88.373259 103.08398 88.335938 C 102.19855 88.220898 102.40411 88.246356 101.5918 88.197266 C 100.13249 88.247096 98.673204 88.276349 97.212891 88.261719 C 95.963749 88.246319 94.71598 88.255612 93.466797 88.257812 C 93.171087 88.258033 92.873835 88.256258 92.578125 88.255859 C 92.515245 88.255774 92.45295 88.264228 92.390625 88.255859 C 92.12055 88.219609 91.974253 88.173461 91.728516 88.107422 C 91.35461 87.980282 90.957829 87.95989 90.742188 87.541016 C 90.640068 87.342652 90.680211 87.098062 90.675781 86.875 C 90.752611 87.200414 90.721117 87.387081 91.269531 87.386719 C 91.426577 87.386615 91.53932 87.225593 91.673828 87.144531 C 91.789411 87.074874 91.835608 87.028927 91.863281 86.988281 C 91.852817 86.946836 91.838182 86.909099 91.814453 86.876953 C 91.424167 86.782984 89.841748 87.06607 90.587891 86.5 C 90.745022 86.38079 90.862799 86.166368 91.058594 86.142578 z M 113.10352 87.777344 C 113.08332 87.773744 113.13615 87.806447 113.15625 87.810547 C 113.16262 87.811842 113.16934 87.809845 113.17578 87.810547 C 113.15008 87.800818 113.12473 87.781144 113.10352 87.777344 z M 113.21094 87.828125 C 113.16665 87.84349 113.2976 87.80036 112.9043 87.888672 C 112.872 87.895872 112.99831 87.852146 113.00391 87.884766 C 113.00829 87.91048 112.90038 87.939682 112.78711 87.964844 C 112.73175 88.133625 112.47295 88.391757 112.40234 88.484375 C 112.39722 88.491089 112.39611 88.50017 112.39258 88.507812 C 112.39224 88.516323 112.39504 88.516504 112.39453 88.525391 C 112.37857 88.803958 112.38195 88.904557 112.28125 88.939453 C 112.33663 89.070347 112.40501 89.193675 112.4707 89.324219 C 112.62357 89.418464 112.73749 89.519314 112.80664 89.626953 C 113.11934 89.368375 113.62506 89.321787 113.89453 89.898438 C 113.91341 89.938868 114.29518 90.4577 114.51758 90.861328 C 114.67102 90.799876 114.69184 90.794867 114.52344 90.871094 C 114.64046 91.085192 114.7238 91.273425 114.65234 91.318359 C 114.3649 91.499126 114.00636 91.506736 113.66211 91.546875 L 113.91211 91.880859 C 113.99631 92.019658 114.06921 92.165092 114.16406 92.296875 C 114.21176 92.363185 114.2856 92.406352 114.33594 92.470703 C 114.48958 92.667117 114.59933 92.886092 114.76367 93.074219 C 114.77867 93.071819 114.80139 93.079706 114.80859 93.066406 C 114.83139 93.024196 114.73302 92.998051 114.72852 92.994141 C 114.72352 92.990241 114.73493 92.981899 114.74023 92.980469 C 114.82603 92.959309 114.91232 92.938474 115 92.927734 C 115.10589 92.914764 115.21187 92.914533 115.31836 92.908203 C 115.65813 92.925253 115.9958 92.933207 116.33594 92.929688 C 116.46855 92.928213 116.60174 92.927732 116.73438 92.927734 C 116.81202 92.900259 116.8957 92.876092 116.95508 92.837891 C 117.06787 92.737991 116.9403 92.843211 117.1875 92.705078 C 117.32059 92.630688 117.11774 92.720276 117.24414 92.634766 C 117.63306 92.371667 117.62751 92.390643 117.67578 92.349609 C 117.67281 92.32555 117.68359 92.277638 117.68359 92.248047 C 117.68559 92.09988 117.68403 91.952813 117.68359 91.804688 C 117.68341 91.720067 117.69413 91.634741 117.68359 91.550781 C 117.67019 91.444027 117.56976 91.374386 117.51758 91.292969 C 117.33909 91.014444 117.22023 90.749688 116.98438 90.517578 C 116.90178 90.424498 116.81166 90.33733 116.73633 90.238281 C 116.66163 90.140071 116.60743 90.029125 116.53711 89.927734 C 116.37873 89.699359 116.19656 89.496033 115.98047 89.322266 C 115.92197 89.285666 115.86626 89.244107 115.80469 89.212891 C 115.70639 89.163041 115.52689 89.134029 115.43555 89.103516 C 115.17326 89.015896 114.96871 88.925459 114.73242 88.787109 C 114.68172 88.750449 114.6369 88.702012 114.58008 88.675781 C 114.56628 88.669381 114.55256 88.690246 114.53906 88.697266 C 114.41355 88.622826 114.27891 88.56207 114.16211 88.474609 C 114.01588 88.365123 113.89686 88.218205 113.74805 88.107422 C 113.70235 88.068652 113.6631 88.020422 113.61133 87.990234 C 113.58163 87.972924 113.54318 87.98259 113.51172 87.96875 C 113.45774 87.944918 113.3236 87.87728 113.21094 87.828125 z M 114.52344 90.871094 C 114.52165 90.867819 114.51939 90.86462 114.51758 90.861328 C 114.4796 90.876538 114.54896 90.845977 114.48242 90.873047 C 114.14856 91.008879 113.78116 91.083917 113.47461 91.269531 C 113.49377 91.297573 113.51009 91.327451 113.5293 91.355469 C 113.85496 91.1818 114.26454 90.988282 114.52344 90.871094 z M 112.71289 87.982422 C 112.55657 88.014718 112.43064 88.036424 112.61523 88.027344 C 112.64582 88.067138 112.68119 88.02927 112.71289 87.982422 z M 117.77734 92.205078 C 117.75624 92.228973 117.74782 92.264845 117.73633 92.296875 C 117.75869 92.276389 117.74162 92.293729 117.78125 92.257812 C 117.78025 92.240223 117.78834 92.191858 117.77734 92.205078 z "
       transform="translate(0,882.28346)"
       id="path9578" />
    <path
       style="opacity:0;fill:#00ff00;fill-opacity:1;fill-rule:evenodd;stroke:#ff0000;stroke-width:0.50507629;stroke-linejoin:miter;stroke-miterlimit:4;stroke-dasharray:none;stroke-opacity:1"
       d="M -144.49023 -3.3222656 L -144.49023 127.87109 L -144.49023 259.06445 L 137.2168 259.06445 L 418.92188 259.06445 L 418.92188 127.87109 L 418.92188 -3.3222656 L 137.2168 -3.3222656 L -144.49023 -3.3222656 z M 91.058594 86.142578 C 91.725059 86.061598 91.743703 86.394952 91.935547 86.8125 C 91.935832 86.835999 91.936848 86.85931 91.9375 86.882812 C 92.008518 86.919362 92.064036 86.937279 92.056641 86.888672 C 92.128401 86.908142 92.2005 86.925136 92.271484 86.947266 C 92.312154 86.959946 92.34849 86.987851 92.390625 86.994141 C 92.453165 87.003441 92.518795 86.994055 92.582031 86.994141 C 92.87626 86.994538 93.168661 86.994393 93.462891 86.994141 C 94.717053 86.991941 95.972443 86.98449 97.226562 87 C 97.953024 87.0073 98.677863 87.013967 99.404297 86.998047 C 99.68928 86.991747 99.97483 86.980956 100.25977 86.972656 C 100.49518 86.962956 100.73126 86.949179 100.9668 86.943359 C 101.20129 86.937559 101.43537 86.9394 101.66992 86.9375 C 102.50483 86.9904 102.38259 86.96999 103.26367 87.087891 C 103.50353 87.119981 103.74126 87.17524 103.98242 87.195312 C 104.29305 87.221163 104.60481 87.206949 104.91602 87.224609 C 105.68018 87.267969 106.12714 87.329213 106.88281 87.414062 C 107.72826 87.559716 108.61287 87.67705 109.42969 87.955078 C 109.72519 88.055661 110.00948 88.18676 110.29688 88.308594 C 110.56546 88.422456 110.69079 88.489566 110.86523 88.566406 C 110.8434 88.447983 110.81383 88.332689 110.80664 88.208984 C 110.75543 87.32755 111.28624 87.013316 111.68359 87.330078 C 111.70631 87.272787 111.72077 87.210554 111.75586 87.160156 C 111.82946 87.054416 111.94754 86.986953 112.04297 86.900391 L 112.35547 86.779297 C 112.33877 86.795437 112.28384 86.832975 112.30664 86.828125 C 112.34864 86.819225 112.37843 86.784298 112.41797 86.767578 C 112.77176 86.617897 112.68191 86.676143 112.92383 86.603516 C 113.03019 86.585796 113.13436 86.551351 113.24219 86.550781 C 113.61354 86.548881 114.22718 86.881314 114.50781 87.097656 C 114.60919 87.174616 114.71848 87.254515 114.80859 87.34375 C 114.85259 87.38734 114.86261 87.466436 114.91797 87.494141 C 115.04675 87.558531 115.19059 87.591826 115.32031 87.654297 C 115.37091 87.678637 115.4116 87.719053 115.45703 87.751953 C 115.32795 87.729883 115.41509 87.741514 115.58984 87.808594 C 115.65504 87.833604 115.71709 87.866292 115.7832 87.888672 C 116.14933 88.012624 116.16394 87.9719 116.49414 88.15625 C 116.5957 88.21295 116.68849 88.284935 116.78516 88.349609 C 117.00256 88.532131 117.19953 88.721842 117.37695 88.945312 C 117.46025 89.050297 117.53601 89.1614 117.61523 89.269531 C 117.63773 89.312861 117.65214 89.361561 117.68164 89.400391 C 117.75044 89.490731 117.83293 89.571227 117.9082 89.65625 C 117.9979 89.756401 118.09535 89.848838 118.17773 89.955078 C 118.30335 90.1171 118.51176 90.479953 118.60547 90.650391 C 118.69457 90.812473 118.79772 90.967668 118.86328 91.140625 C 118.96078 91.39783 118.94481 91.549384 118.94531 91.798828 C 118.94631 92.150914 118.98517 92.555951 118.8418 92.886719 C 118.784 93.020113 118.66893 93.119781 118.58203 93.236328 L 118.23438 93.505859 C 118.19888 93.516529 118.15929 93.515909 118.12891 93.537109 C 118.05491 93.588719 117.99918 93.663683 117.92773 93.71875 C 117.75615 93.850999 117.55364 93.914265 117.37109 94.029297 C 117.42059 93.962317 117.59756 93.798978 117.51953 93.828125 C 117.30605 93.907865 117.14225 94.083732 116.94141 94.191406 C 116.88091 94.223816 116.40044 94.150619 116.34961 94.193359 C 116.02323 94.196759 115.69872 94.193042 115.37305 94.169922 C 115.33275 94.170236 115.18831 94.166387 115.13086 94.179688 C 115.05076 94.198206 114.97418 94.235684 114.89258 94.246094 C 114.45833 94.301474 114.11724 94.17783 113.79492 93.882812 C 113.62705 93.676975 113.60953 93.670143 113.46875 93.445312 C 113.44245 93.403342 113.42874 93.353602 113.39844 93.314453 C 113.29894 93.186002 113.17611 93.076359 113.08008 92.945312 C 113.00938 92.848833 112.96083 92.737982 112.90039 92.634766 L 112.55273 92.167969 C 112.42879 91.975717 112.29631 91.789713 112.18164 91.591797 C 111.94604 91.185178 111.83855 90.891196 111.63086 90.474609 C 111.59224 90.397142 111.55685 90.319304 111.51758 90.242188 C 110.85874 89.936659 110.55794 89.79161 109.79102 89.466797 C 109.51348 89.349251 109.23852 89.221914 108.95312 89.125 C 108.74246 89.05346 108.52347 89.012782 108.30664 88.962891 C 107.69671 88.822543 107.32209 88.77002 106.66992 88.658203 C 105.97339 88.581693 105.52355 88.522002 104.81641 88.482422 C 104.52589 88.466162 104.2333 88.481541 103.94336 88.457031 C 103.65475 88.432621 103.3712 88.373259 103.08398 88.335938 C 102.19855 88.220898 102.40411 88.246356 101.5918 88.197266 C 100.13249 88.247096 98.673204 88.276349 97.212891 88.261719 C 95.963749 88.246319 94.71598 88.255612 93.466797 88.257812 C 93.171087 88.258033 92.873835 88.256258 92.578125 88.255859 C 92.515245 88.255774 92.45295 88.264228 92.390625 88.255859 C 92.12055 88.219609 91.974253 88.173461 91.728516 88.107422 C 91.35461 87.980282 90.957829 87.95989 90.742188 87.541016 C 90.640068 87.342652 90.680211 87.098062 90.675781 86.875 C 90.752611 87.200414 90.721117 87.387081 91.269531 87.386719 C 91.426577 87.386615 91.53932 87.225593 91.673828 87.144531 C 91.789411 87.074874 91.835608 87.028927 91.863281 86.988281 C 91.852817 86.946836 91.838182 86.909099 91.814453 86.876953 C 91.424167 86.782984 89.841748 87.06607 90.587891 86.5 C 90.745022 86.38079 90.862799 86.166368 91.058594 86.142578 z M 113.10352 87.777344 C 113.08332 87.773744 113.13615 87.806447 113.15625 87.810547 C 113.16262 87.811842 113.16934 87.809845 113.17578 87.810547 C 113.15008 87.800818 113.12473 87.781144 113.10352 87.777344 z M 113.21094 87.828125 C 113.16665 87.84349 113.2976 87.80036 112.9043 87.888672 C 112.872 87.895872 112.99831 87.852146 113.00391 87.884766 C 113.00829 87.91048 112.90038 87.939682 112.78711 87.964844 C 112.73175 88.133625 112.47295 88.391757 112.40234 88.484375 C 112.39722 88.491089 112.39611 88.50017 112.39258 88.507812 C 112.39224 88.516323 112.39504 88.516504 112.39453 88.525391 C 112.37857 88.803958 112.38195 88.904557 112.28125 88.939453 C 112.33663 89.070347 112.40501 89.193675 112.4707 89.324219 C 112.62357 89.418464 112.73749 89.519314 112.80664 89.626953 C 113.11934 89.368375 113.62506 89.321787 113.89453 89.898438 C 113.91341 89.938868 114.29518 90.4577 114.51758 90.861328 C 114.67102 90.799876 114.69184 90.794867 114.52344 90.871094 C 114.64046 91.085192 114.7238 91.273425 114.65234 91.318359 C 114.3649 91.499126 114.00636 91.506736 113.66211 91.546875 L 113.91211 91.880859 C 113.99631 92.019658 114.06921 92.165092 114.16406 92.296875 C 114.21176 92.363185 114.2856 92.406352 114.33594 92.470703 C 114.48958 92.667117 114.59933 92.886092 114.76367 93.074219 C 114.77867 93.071819 114.80139 93.079706 114.80859 93.066406 C 114.83139 93.024196 114.73302 92.998051 114.72852 92.994141 C 114.72352 92.990241 114.73493 92.981899 114.74023 92.980469 C 114.82603 92.959309 114.91232 92.938474 115 92.927734 C 115.10589 92.914764 115.21187 92.914533 115.31836 92.908203 C 115.65813 92.925253 115.9958 92.933207 116.33594 92.929688 C 116.46855 92.928213 116.60174 92.927732 116.73438 92.927734 C 116.81202 92.900259 116.8957 92.876092 116.95508 92.837891 C 117.06787 92.737991 116.9403 92.843211 117.1875 92.705078 C 117.32059 92.630688 117.11774 92.720276 117.24414 92.634766 C 117.63306 92.371667 117.62751 92.390643 117.67578 92.349609 C 117.67281 92.32555 117.68359 92.277638 117.68359 92.248047 C 117.68559 92.09988 117.68403 91.952813 117.68359 91.804688 C 117.68341 91.720067 117.69413 91.634741 117.68359 91.550781 C 117.67019 91.444027 117.56976 91.374386 117.51758 91.292969 C 117.33909 91.014444 117.22023 90.749688 116.98438 90.517578 C 116.90178 90.424498 116.81166 90.33733 116.73633 90.238281 C 116.66163 90.140071 116.60743 90.029125 116.53711 89.927734 C 116.37873 89.699359 116.19656 89.496033 115.98047 89.322266 C 115.92197 89.285666 115.86626 89.244107 115.80469 89.212891 C 115.70639 89.163041 115.52689 89.134029 115.43555 89.103516 C 115.17326 89.015896 114.96871 88.925459 114.73242 88.787109 C 114.68172 88.750449 114.6369 88.702012 114.58008 88.675781 C 114.56628 88.669381 114.55256 88.690246 114.53906 88.697266 C 114.41355 88.622826 114.27891 88.56207 114.16211 88.474609 C 114.01588 88.365123 113.89686 88.218205 113.74805 88.107422 C 113.70235 88.068652 113.6631 88.020422 113.61133 87.990234 C 113.58163 87.972924 113.54318 87.98259 113.51172 87.96875 C 113.45774 87.944918 113.3236 87.87728 113.21094 87.828125 z M 114.52344 90.871094 C 114.52165 90.867819 114.51939 90.86462 114.51758 90.861328 C 114.4796 90.876538 114.54896 90.845977 114.48242 90.873047 C 114.14856 91.008879 113.78116 91.083917 113.47461 91.269531 C 113.49377 91.297573 113.51009 91.327451 113.5293 91.355469 C 113.85496 91.1818 114.26454 90.988282 114.52344 90.871094 z M 112.71289 87.982422 C 112.55657 88.014718 112.43064 88.036424 112.61523 88.027344 C 112.64582 88.067138 112.68119 88.02927 112.71289 87.982422 z M 117.77734 92.205078 C 117.75624 92.228973 117.74782 92.264845 117.73633 92.296875 C 117.75869 92.276389 117.74162 92.293729 117.78125 92.257812 C 117.78025 92.240223 117.78834 92.191858 117.77734 92.205078 z "
       transform="translate(0,882.28346)"
       id="path9580" />
    <path
       style="opacity:0;fill:#00ff00;fill-opacity:1;fill-rule:evenodd;stroke:#ff0000;stroke-width:1.01015258;stroke-linejoin:miter;stroke-miterlimit:4;stroke-dasharray:none;stroke-opacity:1"
       d="M -296.89844 -157.7793 L -296.89844 105.11328 L -296.89844 368.00586 L 266.51367 368.00586 L 829.92578 368.00586 L 829.92578 105.11328 L 829.92578 -157.7793 L 266.51367 -157.7793 L -296.89844 -157.7793 z M 91.058594 86.142578 C 91.725059 86.061598 91.743703 86.394952 91.935547 86.8125 C 91.935832 86.835999 91.936848 86.85931 91.9375 86.882812 C 92.008518 86.919362 92.064036 86.937279 92.056641 86.888672 C 92.128401 86.908142 92.2005 86.925136 92.271484 86.947266 C 92.312154 86.959946 92.34849 86.987851 92.390625 86.994141 C 92.453165 87.003441 92.518795 86.994055 92.582031 86.994141 C 92.87626 86.994538 93.168661 86.994393 93.462891 86.994141 C 94.717053 86.991941 95.972443 86.98449 97.226562 87 C 97.953024 87.0073 98.677863 87.013967 99.404297 86.998047 C 99.68928 86.991747 99.97483 86.980956 100.25977 86.972656 C 100.49518 86.962956 100.73126 86.949179 100.9668 86.943359 C 101.20129 86.937559 101.43537 86.9394 101.66992 86.9375 C 102.50483 86.9904 102.38259 86.96999 103.26367 87.087891 C 103.50353 87.119981 103.74126 87.17524 103.98242 87.195312 C 104.29305 87.221163 104.60481 87.206949 104.91602 87.224609 C 105.68018 87.267969 106.12714 87.329213 106.88281 87.414062 C 107.72826 87.559716 108.61287 87.67705 109.42969 87.955078 C 109.72519 88.055661 110.00948 88.18676 110.29688 88.308594 C 110.56546 88.422456 110.69079 88.489566 110.86523 88.566406 C 110.8434 88.447983 110.81383 88.332689 110.80664 88.208984 C 110.75543 87.32755 111.28624 87.013316 111.68359 87.330078 C 111.70631 87.272787 111.72077 87.210554 111.75586 87.160156 C 111.82946 87.054416 111.94754 86.986953 112.04297 86.900391 L 112.35547 86.779297 C 112.33877 86.795437 112.28384 86.832975 112.30664 86.828125 C 112.34864 86.819225 112.37843 86.784298 112.41797 86.767578 C 112.77176 86.617897 112.68191 86.676143 112.92383 86.603516 C 113.03019 86.585796 113.13436 86.551351 113.24219 86.550781 C 113.61354 86.548881 114.22718 86.881314 114.50781 87.097656 C 114.60919 87.174616 114.71848 87.254515 114.80859 87.34375 C 114.85259 87.38734 114.86261 87.466436 114.91797 87.494141 C 115.04675 87.558531 115.19059 87.591826 115.32031 87.654297 C 115.37091 87.678637 115.4116 87.719053 115.45703 87.751953 C 115.32795 87.729883 115.41509 87.741514 115.58984 87.808594 C 115.65504 87.833604 115.71709 87.866292 115.7832 87.888672 C 116.14933 88.012624 116.16394 87.9719 116.49414 88.15625 C 116.5957 88.21295 116.68849 88.284935 116.78516 88.349609 C 117.00256 88.532131 117.19953 88.721842 117.37695 88.945312 C 117.46025 89.050297 117.53601 89.1614 117.61523 89.269531 C 117.63773 89.312861 117.65214 89.361561 117.68164 89.400391 C 117.75044 89.490731 117.83293 89.571227 117.9082 89.65625 C 117.9979 89.756401 118.09535 89.848838 118.17773 89.955078 C 118.30335 90.1171 118.51176 90.479953 118.60547 90.650391 C 118.69457 90.812473 118.79772 90.967668 118.86328 91.140625 C 118.96078 91.39783 118.94481 91.549384 118.94531 91.798828 C 118.94631 92.150914 118.98517 92.555951 118.8418 92.886719 C 118.784 93.020113 118.66893 93.119781 118.58203 93.236328 L 118.23438 93.505859 C 118.19888 93.516529 118.15929 93.515909 118.12891 93.537109 C 118.05491 93.588719 117.99918 93.663683 117.92773 93.71875 C 117.75615 93.850999 117.55364 93.914265 117.37109 94.029297 C 117.42059 93.962317 117.59756 93.798978 117.51953 93.828125 C 117.30605 93.907865 117.14225 94.083732 116.94141 94.191406 C 116.88091 94.223816 116.40044 94.150619 116.34961 94.193359 C 116.02323 94.196759 115.69872 94.193042 115.37305 94.169922 C 115.33275 94.170236 115.18831 94.166387 115.13086 94.179688 C 115.05076 94.198206 114.97418 94.235684 114.89258 94.246094 C 114.45833 94.301474 114.11724 94.17783 113.79492 93.882812 C 113.62705 93.676975 113.60953 93.670143 113.46875 93.445312 C 113.44245 93.403342 113.42874 93.353602 113.39844 93.314453 C 113.29894 93.186002 113.17611 93.076359 113.08008 92.945312 C 113.00938 92.848833 112.96083 92.737982 112.90039 92.634766 L 112.55273 92.167969 C 112.42879 91.975717 112.29631 91.789713 112.18164 91.591797 C 111.94604 91.185178 111.83855 90.891196 111.63086 90.474609 C 111.59224 90.397142 111.55685 90.319304 111.51758 90.242188 C 110.85874 89.936659 110.55794 89.79161 109.79102 89.466797 C 109.51348 89.349251 109.23852 89.221914 108.95312 89.125 C 108.74246 89.05346 108.52347 89.012782 108.30664 88.962891 C 107.69671 88.822543 107.32209 88.77002 106.66992 88.658203 C 105.97339 88.581693 105.52355 88.522002 104.81641 88.482422 C 104.52589 88.466162 104.2333 88.481541 103.94336 88.457031 C 103.65475 88.432621 103.3712 88.373259 103.08398 88.335938 C 102.19855 88.220898 102.40411 88.246356 101.5918 88.197266 C 100.13249 88.247096 98.673204 88.276349 97.212891 88.261719 C 95.963749 88.246319 94.71598 88.255612 93.466797 88.257812 C 93.171087 88.258033 92.873835 88.256258 92.578125 88.255859 C 92.515245 88.255774 92.45295 88.264228 92.390625 88.255859 C 92.12055 88.219609 91.974253 88.173461 91.728516 88.107422 C 91.35461 87.980282 90.957829 87.95989 90.742188 87.541016 C 90.640068 87.342652 90.680211 87.098062 90.675781 86.875 C 90.752611 87.200414 90.721117 87.387081 91.269531 87.386719 C 91.426577 87.386615 91.53932 87.225593 91.673828 87.144531 C 91.789411 87.074874 91.835608 87.028927 91.863281 86.988281 C 91.852817 86.946836 91.838182 86.909099 91.814453 86.876953 C 91.424167 86.782984 89.841748 87.06607 90.587891 86.5 C 90.745022 86.38079 90.862799 86.166368 91.058594 86.142578 z M 113.10352 87.777344 C 113.08332 87.773744 113.13615 87.806447 113.15625 87.810547 C 113.16262 87.811842 113.16934 87.809845 113.17578 87.810547 C 113.15008 87.800818 113.12473 87.781144 113.10352 87.777344 z M 113.21094 87.828125 C 113.16665 87.84349 113.2976 87.80036 112.9043 87.888672 C 112.872 87.895872 112.99831 87.852146 113.00391 87.884766 C 113.00829 87.91048 112.90038 87.939682 112.78711 87.964844 C 112.73175 88.133625 112.47295 88.391757 112.40234 88.484375 C 112.39722 88.491089 112.39611 88.50017 112.39258 88.507812 C 112.39224 88.516323 112.39504 88.516504 112.39453 88.525391 C 112.37857 88.803958 112.38195 88.904557 112.28125 88.939453 C 112.33663 89.070347 112.40501 89.193675 112.4707 89.324219 C 112.62357 89.418464 112.73749 89.519314 112.80664 89.626953 C 113.11934 89.368375 113.62506 89.321787 113.89453 89.898438 C 113.91341 89.938868 114.29518 90.4577 114.51758 90.861328 C 114.67102 90.799876 114.69184 90.794867 114.52344 90.871094 C 114.64046 91.085192 114.7238 91.273425 114.65234 91.318359 C 114.3649 91.499126 114.00636 91.506736 113.66211 91.546875 L 113.91211 91.880859 C 113.99631 92.019658 114.06921 92.165092 114.16406 92.296875 C 114.21176 92.363185 114.2856 92.406352 114.33594 92.470703 C 114.48958 92.667117 114.59933 92.886092 114.76367 93.074219 C 114.77867 93.071819 114.80139 93.079706 114.80859 93.066406 C 114.83139 93.024196 114.73302 92.998051 114.72852 92.994141 C 114.72352 92.990241 114.73493 92.981899 114.74023 92.980469 C 114.82603 92.959309 114.91232 92.938474 115 92.927734 C 115.10589 92.914764 115.21187 92.914533 115.31836 92.908203 C 115.65813 92.925253 115.9958 92.933207 116.33594 92.929688 C 116.46855 92.928213 116.60174 92.927732 116.73438 92.927734 C 116.81202 92.900259 116.8957 92.876092 116.95508 92.837891 C 117.06787 92.737991 116.9403 92.843211 117.1875 92.705078 C 117.32059 92.630688 117.11774 92.720276 117.24414 92.634766 C 117.63306 92.371667 117.62751 92.390643 117.67578 92.349609 C 117.67281 92.32555 117.68359 92.277638 117.68359 92.248047 C 117.68559 92.09988 117.68403 91.952813 117.68359 91.804688 C 117.68341 91.720067 117.69413 91.634741 117.68359 91.550781 C 117.67019 91.444027 117.56976 91.374386 117.51758 91.292969 C 117.33909 91.014444 117.22023 90.749688 116.98438 90.517578 C 116.90178 90.424498 116.81166 90.33733 116.73633 90.238281 C 116.66163 90.140071 116.60743 90.029125 116.53711 89.927734 C 116.37873 89.699359 116.19656 89.496033 115.98047 89.322266 C 115.92197 89.285666 115.86626 89.244107 115.80469 89.212891 C 115.70639 89.163041 115.52689 89.134029 115.43555 89.103516 C 115.17326 89.015896 114.96871 88.925459 114.73242 88.787109 C 114.68172 88.750449 114.6369 88.702012 114.58008 88.675781 C 114.56628 88.669381 114.55256 88.690246 114.53906 88.697266 C 114.41355 88.622826 114.27891 88.56207 114.16211 88.474609 C 114.01588 88.365123 113.89686 88.218205 113.74805 88.107422 C 113.70235 88.068652 113.6631 88.020422 113.61133 87.990234 C 113.58163 87.972924 113.54318 87.98259 113.51172 87.96875 C 113.45774 87.944918 113.3236 87.87728 113.21094 87.828125 z M 114.52344 90.871094 C 114.52165 90.867819 114.51939 90.86462 114.51758 90.861328 C 114.4796 90.876538 114.54896 90.845977 114.48242 90.873047 C 114.14856 91.008879 113.78116 91.083917 113.47461 91.269531 C 113.49377 91.297573 113.51009 91.327451 113.5293 91.355469 C 113.85496 91.1818 114.26454 90.988282 114.52344 90.871094 z M 112.71289 87.982422 C 112.55657 88.014718 112.43064 88.036424 112.61523 88.027344 C 112.64582 88.067138 112.68119 88.02927 112.71289 87.982422 z M 117.77734 92.205078 C 117.75624 92.228973 117.74782 92.264845 117.73633 92.296875 C 117.75869 92.276389 117.74162 92.293729 117.78125 92.257812 C 117.78025 92.240223 117.78834 92.191858 117.77734 92.205078 z "
       transform="translate(0,882.28346)"
       id="path9584" />
    <path
       style="fill:#808080;fill-rule:evenodd;stroke:#000000;stroke-width:4.67091417;stroke-linecap:butt;stroke-linejoin:miter;stroke-miterlimit:4;stroke-dasharray:none;stroke-opacity:1"
       d="m 41.805087,1008.6845 c -0.01939,-0.1721 -0.241935,-0.4981 -0.05817,-0.5163 0.18376,-0.018 0.03878,0.3442 0.05817,0.5163 -0.222543,-0.7429 -0.517349,-1.47 -0.667629,-2.2286 -0.07411,-0.3741 0,-0.761 0,-1.1416 0,-0.9511 0,-1.9024 0,-2.8537 0,-2.47333 0,-4.94665 0,-7.41995 0,-0.95127 0,-1.90255 0,-2.85382 0,-0.19026 -0.143649,-0.43624 0,-0.57077 0.321211,-0.30082 0.897697,-0.26994 1.218908,-0.57076 0.287299,-0.26907 -0.181704,-0.8012 0,-1.14154 0.128484,-0.24064 0.539773,-0.30973 0.609454,-0.57075 0.038,-0.14237 -0.138454,-3.16527 0,-3.42459 0.128484,-0.24066 0.48097,-0.33011 0.609454,-0.57077 0.09085,-0.17016 -0.181704,-0.48568 0,-0.57076 0.363409,-0.17017 0.880844,0.21107 1.218908,0 0.377968,-0.23599 0.288244,-0.84071 0.609454,-1.14152 0.14365,-0.13454 0.465805,0.13452 0.609454,0 0.14365,-0.13454 -0.143649,-0.43624 0,-0.57077 0.14365,-0.13453 0.465805,0.13453 0.609455,0 0.143649,-0.13453 -0.14365,-0.43624 0,-0.57077 0.143649,-0.13452 0.427749,0.0851 0.609454,0 0.256968,-0.12033 0.352485,-0.45043 0.609453,-0.57076 0.36341,-0.17017 0.93161,0.26906 1.218909,0 0.143649,-0.13453 -0.181704,-0.48568 0,-0.57077 0.363408,-0.17016 0.812606,0 1.218908,0 0.406303,0 0.812605,0 1.218908,0 1.625211,0 -0.203151,0.19026 0.609454,-0.57076 0.14365,-0.13453 0.406304,0 0.609454,0 0.609455,0 1.250184,0.18049 1.828362,0 0.192727,-0.0601 -0.181703,-0.48568 0,-0.57076 0.36341,-0.17018 0.880845,0.21107 1.218909,0 0.377968,-0.23599 0.203152,-0.95128 0.609454,-1.14154 0.726817,-0.34033 1.625211,0 2.437816,0 6.074124,0 0.679165,0.53813 3.047271,-0.57075 0.298661,-0.13986 3.299196,0.0837 3.656724,0 0.278721,-0.0653 0.352487,-0.45044 0.609454,-0.57077 0.181704,-0.0851 0.406303,0 0.609455,0 0.609454,0 1.218907,0 1.828362,0 0.406302,0 0.833456,0.12033 1.218908,0 0.272556,-0.0851 0.352486,-0.45043 0.609454,-0.57076 0.395963,-0.18542 3.260761,0.18541 3.656725,0 0.256968,-0.12033 0.352485,-0.45044 0.609453,-0.57077 0.387579,-0.18149 2.542509,0.15758 3.047272,0 0.272556,-0.0851 0.352485,-0.45044 0.609453,-0.57077 0.359765,-0.16845 3.305339,0.16455 3.656725,0 0.181704,-0.0851 -0.14365,-0.43623 0,-0.57075 0.190151,-0.17809 2.856332,0.1788 3.04727,0 0.287299,-0.26907 -0.287299,-0.87247 0,-1.14154 0.28377,-0.26576 1.929346,0.2381 2.437817,0 0.181704,-0.0851 -0.192727,-0.51059 0,-0.57076 0.609453,0 1.218908,0 1.828362,0 0,-0.19025 -0.181704,-0.48568 0,-0.57077 0.398738,-0.1867 2.541798,0.11835 3.04727,0 0.440698,-0.10317 0.77347,-0.48732 1.218909,-0.57075 0.597619,-0.11188 1.250183,0.18049 1.828362,0 0.192726,-0.0601 -0.181704,-0.48569 0,-0.57077 0.363408,-0.17018 0.833456,0.12033 1.218908,0 0.272556,-0.0851 0.352486,-0.45044 0.609454,-0.57077 0.181704,-0.0851 0.416728,0.0601 0.609455,0 0.430949,-0.13452 0.787958,-0.43624 1.218907,-0.57076 0.385454,-0.12033 0.93161,0.26906 1.218904,0 0.32121,-0.30082 0.28825,-0.84071 0.60946,-1.14153 0.2873,-0.26906 0.8555,0.17017 1.21891,0 0.25697,-0.12032 0.35248,-0.45043 0.60945,-0.57076 0.18171,-0.0851 0.4063,0 0.60945,0 0.40631,0 0.8555,0.17016 1.21891,0 0.18171,-0.0851 -0.14365,-0.43624 0,-0.57077 0.2873,-0.26906 0.93161,0.26907 1.21891,0 0.14365,-0.13453 -0.14365,-0.43624 0,-0.57076 0.0245,-0.0229 2.214,0 2.43781,0 2.84413,0 5.68825,0 8.53236,0 0.71628,0 3.10584,-0.12898 3.65673,0 0.62324,0.14592 1.20512,0.42485 1.82836,0.57076 0.41475,0.0971 1.49506,-0.15607 1.82836,0 0.25696,0.12033 0.35248,0.45044 0.60945,0.57077 0.18171,0.0851 0.81261,0 0.60946,0 -0.88729,0 -2.9124,0.11618 -3.65673,0 -0.63367,-0.0989 -1.18594,-0.57077 -1.82836,-0.57077 -0.20315,0 -0.1817,0.48569 0,0.57077 0.36341,0.17016 0.83346,-0.12033 1.2189,0 1.04041,0.32478 0.40631,0.57076 0.60946,1.14152 0.14365,0.40359 0.46581,0.73794 0.60946,1.14153 0.16352,0.45941 -0.19473,1.91832 0,2.28306 0.12849,0.24066 0.53978,0.30974 0.60945,0.57076 0,4.04828 -0.43095,0.33435 0.60946,2.28306 0.19473,0.36473 -0.16352,1.82365 0,2.28305 0.7003,1.96755 0.60945,0.42281 0.60945,1.7123 0,0.29847 -0.0801,2.13298 0,2.28306 0.12849,0.24066 0.48097,0.33011 0.60945,0.57077 0.18876,0.35354 -0.18032,2.11417 0,2.28305 0.74231,0.69519 1.36165,0.26736 1.82836,1.14152 0.16159,0.30264 -0.13819,2.46554 0,2.85382 0.18172,0.51052 1.21891,0.60342 1.21891,1.14154 0,0.76101 -1.42206,-0.95128 -0.60945,0.57076 0.12849,0.24065 0.48097,0.33011 0.60945,0.57077 0.0683,0.12792 0,2.14742 0,2.28305 0,0.29847 0.0801,2.13298 0,2.28306 -0.12848,0.24066 -0.48096,0.33011 -0.60945,0.57077 -0.19153,0.35873 0.19152,1.92431 0,2.28305 -1.26821,2.37534 0.0421,-0.61016 -1.21891,0.57074 -0.14364,0.1346 0.18171,0.4856 0,0.5707 -0.48757,0.2284 -1.34079,-0.2282 -1.82836,0 -0.25697,0.1204 -0.35248,0.4505 -0.60945,0.5708 -0.36341,0.1702 -0.88819,-0.221 -1.21891,0 -0.72726,0.4861 -1.30469,1.1435 -1.95703,1.7152"
       id="path9646"
       inkscape:connector-curvature="0" />
    <path
       style="fill:none;fill-rule:evenodd;stroke:#000000;stroke-width:3.50318575;stroke-linecap:butt;stroke-linejoin:miter;stroke-miterlimit:4;stroke-dasharray:none;stroke-opacity:1"
       d="m 78.197739,897.17595 c 0.359712,-0.51464 0.709205,-1.09727 1.079136,-1.54395 0.08699,-0.10509 0.487983,0 0.598736,0 0.530167,0 0.924169,-0.24912 1.397049,0.59085 0.16135,0.2866 0.237808,0.89509 0.399157,1.18169 0.360789,0.64085 0.821143,0.62463 1.197471,1.18168 0.18268,0.2704 0.350542,1.34074 0.399158,1.77252 0.02103,0.18685 -0.04705,0.45158 0,0.59084 0.04704,0.13927 0.140076,-0.088 0.199579,0 0.08415,0.12457 0.121296,0.43635 0.199578,0.59085 0.182313,0.35982 0.484336,0.50433 0.598735,1.18168 0.09408,0.55705 0.148556,1.16832 0.199579,1.77252 0.01613,0.19107 -0.02974,0.41469 0,0.59085 0.04208,0.24912 0.157504,0.34173 0.199579,0.59084 0.02976,0.17616 -0.01613,0.39978 0,0.59085 0.05102,0.6042 0.105498,1.21548 0.199579,1.77253 0.04208,0.24912 0.157503,0.34171 0.199578,0.59083 0.0258,0.15276 0,3.12626 0,3.54506 0,0.98474 0,1.96947 0,2.95421 0,0.19695 0,0.39389 0,0.59084 0,0.19694 0.02976,0.41468 0,0.59085 -0.04208,0.24912 -0.169827,0.32661 -0.199578,0.59084 -0.04208,0.37367 0.0595,0.82938 0,1.18168 -0.02976,0.17616 -0.152538,-0.13926 -0.199579,0 -0.04704,0.13927 0.04703,0.45158 0,0.59084 -0.09408,0.27853 -0.305075,-0.27852 -0.399158,0 -0.412935,1.22247 0.631021,-0.0477 -0.199578,1.18169 -0.0595,0.0881 -0.152538,-0.13926 -0.199578,0 -0.04703,0.13926 0.0595,0.50276 0,0.59084 -0.119001,0.17616 -0.266105,0 -0.399157,0 -0.06652,0 -0.152538,-0.13927 -0.199579,0 -0.04705,0.13927 0.04704,0.45158 0,0.59085 -0.09408,0.27851 -0.305075,-0.27854 -0.399158,0 -0.04703,0.13926 0.04704,0.45158 0,0.59082 -0.06966,0.20626 -0.557313,-0.24524 -0.598735,0 -0.0595,0.35232 0.09408,0.90317 0,1.1817 -0.09408,0.27852 -0.280152,-0.17616 -0.399157,0 -0.0595,0.088 0.04705,0.45158 0,0.59084 -0.04704,0.13926 -0.152537,-0.13926 -0.199579,0 -0.04704,0.13926 0.04704,0.45158 0,0.59084 -0.412935,1.22247 0.01614,-1.8681 -0.399157,0.59085 -0.02976,0.17615 0,0.39389 0,0.59084 0,0.19694 0,0.39389 0,0.59085 0,0.512 -0.03854,2.0211 0,2.36335 0.481877,4.27972 -0.05753,-0.93152 0.399157,1.77254 0.03934,0.23293 0,2.37062 0,2.9542 0,0.19696 -0.04704,0.45158 0,0.59085 0.105184,0.3114 0.293971,0.27944 0.399158,0.59085 1.9e-4,5.5e-4 -3.02e-4,1.76985 0,1.77252 0.02974,0.26422 0.157503,0.34171 0.199578,0.59084 0.02976,0.17616 -0.04704,0.45158 0,0.59084 0.04704,0.13927 0.219764,-0.18766 0.199579,0 -0.05039,0.4685 -0.21396,0.75218 -0.320939,1.12827"
       id="path9660"
       inkscape:connector-curvature="0" />
    <path
       style="fill:none;fill-rule:evenodd;stroke:#000000;stroke-width:3.50318575;stroke-linecap:butt;stroke-linejoin:miter;stroke-miterlimit:4;stroke-dasharray:none;stroke-opacity:1"
       d="m 103.91433,893.18087 c 0.48805,0.68425 0.9761,1.36851 1.46416,2.05277 0.0936,0 0.1972,-0.0878 0.28097,0 0.11849,0.12409 0.1625,0.46453 0.28097,0.58861 0.49737,0.52101 0.096,-0.87554 0.56194,0.58863 0.1162,0.36507 0.21474,0.76104 0.28097,1.17726 0.0296,0.18614 -0.0662,0.44989 0,0.58863 0.14808,0.31024 0.38769,0.34526 0.56193,0.58864 0.6989,0.97611 0.0322,0.13524 0.28098,1.17725 0.0593,0.24819 0.22174,0.34044 0.28097,0.58863 0.0419,0.17549 -0.0227,0.39828 0,0.58862 0.0718,0.60194 0.20914,1.16395 0.28096,1.76589 0.0881,0.73867 -0.0882,1.61584 0,2.35452 0.0718,0.60194 0.20914,1.16394 0.28097,1.76587 0.0227,0.19036 -0.0419,0.41315 0,0.58864 0.0593,0.24819 0.22175,0.34044 0.28097,0.58863 0.0419,0.17549 0,0.39242 0,0.58862 0,0.19622 0,0.39243 0,0.58864 0,0.98103 0,1.96209 0,2.94314 0,0.19621 0,0.39242 0,0.58863 0,0.19621 0.0837,0.50088 0,0.58862 -0.16753,0.1755 -0.42948,-0.27748 -0.56194,0 -0.0683,0.14315 0.0683,1.62274 0,1.76589 -0.0662,0.13873 -0.21474,-0.13874 -0.28096,0 -0.58134,1.21789 0.88836,-0.0477 -0.28097,1.17726 -0.0837,0.0878 -0.19212,-0.062 -0.28098,0 -2.03517,1.42122 0.44299,-0.1697 -0.8429,1.17725 -0.16754,0.1755 -0.42948,-0.27748 -0.56194,0 -0.0662,0.13874 0.0837,0.50088 0,0.58863 -0.16754,0.17549 -0.40609,-0.21767 -0.56194,0 -0.17425,0.24338 -0.10667,0.93389 -0.28097,1.17727 -0.15585,0.21766 -0.38424,-0.12411 -0.56194,0 -0.12565,0.0878 -0.1625,0.46452 -0.28097,0.58862 -0.16753,0.1755 -0.42949,-0.27749 -0.56194,0 -0.0663,0.13874 0.0662,0.44989 0,0.58862 -0.0663,0.13875 -0.19719,-0.0878 -0.28096,0 -1.16933,1.22487 0.30036,-0.0407 -0.28097,1.17726 -0.0662,0.13875 -0.21475,-0.13875 -0.28098,0 -0.0239,0.0502 -0.0465,1.47372 0,1.76589 0.0662,0.41621 0.16482,0.81221 0.28098,1.17725 0.93185,1.95224 -0.13245,-0.55496 0.28097,1.17727 0.0593,0.24817 0.22172,0.34043 0.28096,0.58862 0.0419,0.1755 -0.0419,0.41313 0,0.58864 0.11849,0.49637 0.415,0.71549 0.56194,1.17724 0.1162,0.36507 0.13289,0.86703 0.28097,1.17726 0.14808,0.31024 0.38769,0.34527 0.56194,0.58864 0.11017,0.15391 0.18731,0.39242 0.28097,0.58863 0.14791,0.30988 0.76788,1.4515 0.84291,1.76587 0.0419,0.1755 0.0662,0.44989 0,0.58863 -0.0662,0.13875 -0.28097,0.19622 -0.28097,0 0,-0.19621 0.20326,-0.1095 0.28097,0 0.19227,0.27107 0.31625,0.70993 0.47439,1.06489"
       id="path9662"
       inkscape:connector-curvature="0" />
    <path
       style="display:inline;fill:#808080;fill-rule:evenodd;stroke:#000000;stroke-width:4.67091417;stroke-linecap:butt;stroke-linejoin:miter;stroke-miterlimit:4;stroke-dasharray:none;stroke-opacity:1"
       d="m 29.309739,1027.2329 c 1.564984,0.076 3.147695,0 4.694951,0.2265 0.283668,0.043 0.370407,0.4215 0.609454,0.5708 1.109091,0.6924 1.129674,0.2691 1.828362,1.1415 0.540227,0.6746 1.029682,1.7221 1.828363,2.283 0.06418,0.045 3.640464,2.2679 3.656725,2.2831 0.517936,0.4851 0.646943,1.2838 1.218907,1.7124 0.501648,0.3758 1.205123,0.4248 1.828363,0.5706 0.197086,0.046 0.806539,0.046 0.609454,0 -1.004945,-0.2352 -2.042326,-0.3354 -3.04727,-0.5706 -0.197086,-0.046 0.409066,-0.032 0.609453,0 1.02178,0.1594 2.021809,0.4335 3.047271,0.5706 0.402219,0.054 0.818134,-0.062 1.218908,0 0.826218,0.1291 1.611599,0.4419 2.437816,0.5708 0.400775,0.062 0.812606,0 1.218909,0 0.609454,0 1.218908,0 1.828362,0 0.406303,0 0.824736,-0.093 1.218908,0 1.24648,0.2919 2.402478,0.8806 3.656725,1.1416 0.594941,0.1238 1.218907,0 1.828362,0 2.234665,0 4.46933,0 6.704,0 11.376476,0 22.752952,0 34.129428,0 2.23466,0 4.46933,0 6.704,0 0.40629,0 0.8126,0 1.2189,0 0.60945,0 1.2371,0.1384 1.82836,0 0.27872,-0.065 0.35248,-0.4504 0.60945,-0.5708 0.38758,-0.1815 2.54251,0.1576 3.04728,0 0.27255,-0.085 0.33689,-0.4857 0.60945,-0.5708 0.002,-8e-4 1.82778,6e-4 1.82836,0 0.32121,-0.3008 0.23148,-0.9055 0.60945,-1.1414 0.33806,-0.2111 0.8126,0 1.21891,0 1.62521,0 -0.20315,0.1902 0.60946,-0.5708 0.14364,-0.1346 0.40629,0 0.60945,0 0.4063,0 0.85549,0.1702 1.2189,0 0.18171,-0.085 -0.14364,-0.4362 0,-0.5708 0.14365,-0.1345 0.46581,0.1346 0.60946,0 0.14365,-0.1345 -0.14365,-0.4362 0,-0.5708 0.14365,-0.1345 0.4063,0 0.60946,0 0.40629,0 0.85549,0.1702 1.2189,0 0.1817,-0.085 -0.0909,-0.4005 0,-0.5707 0.12849,-0.2407 0.35249,-0.4504 0.60946,-0.5708 1.62521,0 -0.20315,0.1903 0.60945,-0.5708 0.14365,-0.1344 0.4658,0.1346 0.60946,0 0.7423,-0.6952 0.28548,-1.2751 1.2189,-1.7122 0.18171,-0.085 0.46581,0.1344 0.60946,0 0.14364,-0.1346 -0.14365,-0.4362 0,-0.5708 1.87066,-1.7519 0.50675,0.3335 2.43781,-0.5708 0.18171,-0.085 -0.0909,-0.4006 0,-0.5707 0.12848,-0.2407 0.35249,-0.4504 0.60946,-0.5708 0.1817,-0.085 0.42775,0.085 0.60945,0 0.25696,-0.1203 0.4063,-0.3805 0.60945,-0.5708 0.60946,-0.5708 1.21891,-1.1414 1.82837,-1.7122 0.20315,-0.1903 0.3369,-0.4857 0.60946,-0.5708 0.38544,-0.1204 0.85549,0.1702 1.2189,0 0.36341,-0.1702 -0.2873,-0.8725 0,-1.1416 0.14365,-0.1345 0.46581,0.1346 0.60945,0 0.14365,-0.1345 -0.14364,-0.4362 0,-0.5707 0.32121,-0.3008 0.96693,-0.2168 1.21891,-0.5708 0.22537,-0.3166 -0.12848,-0.7805 0,-1.1416 0.0909,-0.2551 0.48097,-0.33 0.60945,-0.5706 0.32178,-0.6028 -0.32177,-0.539 0,-1.1416 0.12849,-0.2406 0.48097,-0.3301 0.60946,-0.5708 0.13379,-0.2505 0,-3.2038 0,-3.9953 0,-0.9513 0,-1.9025 0,-2.8538 0,-0.1902 0,-0.3805 0,-0.5708 0,-0.1902 0.0909,-0.4005 0,-0.5707 -0.12849,-0.2407 -0.48097,-0.3301 -0.60946,-0.5708 -0.0909,-0.1702 0.0909,-0.4006 0,-0.5708 -0.12848,-0.2406 -0.40629,-0.3805 -0.60945,-0.5708 -0.4063,-0.3804 -0.90017,-0.6937 -1.21891,-1.1414 -0.1127,-0.1583 0.0909,-0.4006 0,-0.5708 -0.0808,-0.1516 -1.66654,-1.6366 -1.82835,-1.7123 -0.18171,-0.085 -0.42776,0.085 -0.60946,0 -0.25697,-0.1203 -0.35249,-0.4504 -0.60946,-0.5708 -0.1817,-0.085 -0.40629,0 -0.60945,0 -0.60946,-0.1903 -1.31442,-0.2097 -1.82836,-0.5708 -0.36341,-0.2551 -0.28825,-0.8406 -0.60946,-1.1414 -0.0747,-0.07 -1.60714,0.052 -1.82836,0 -0.62324,-0.1459 -1.20512,-0.4249 -1.82837,-0.5708 -0.19708,-0.046 -0.41236,0.046 -0.60944,0 -0.62324,-0.1459 -1.20513,-0.4248 -1.82837,-0.5708 -0.19708,-0.046 -0.4063,0 -0.60946,0 -1.01575,0 -2.05123,0.1866 -3.04726,0 -0.44544,-0.084 -0.77347,-0.4873 -1.21891,-0.5708 -0.59762,-0.1119 -1.21891,0 -1.82836,0 -0.20316,0 -0.42084,0.07 -0.60946,0 -0.84354,-0.316 -1.56425,-0.9078 -2.43781,-1.1415 -3.79216,-1.0146 -0.63202,0.3383 -2.43782,0 -0.82135,-0.1538 -1.6116,-0.4418 -2.43781,-0.5708 -1.13052,-0.1764 -2.57006,0.2908 -3.65673,0 -0.87356,-0.2337 -1.56425,-0.90774 -2.43781,-1.14143 -0.58601,-0.15685 -1.21891,0 -1.82836,0 -0.20315,0 -0.41673,0.0599 -0.609459,0 -0.430946,-0.13459 -0.773467,-0.48739 -1.218905,-0.57079 -0.597621,-0.11188 -1.218905,0 -1.828364,0 -0.609458,0 -1.218905,0 -1.828363,0 -2.640963,0 -5.281939,0 -7.922902,0 -2.234669,0 -4.469326,0 -6.703996,0 -0.238303,0 -4.003315,-0.0825 -4.266174,0 -0.27256,0.0847 -0.336899,0.4857 -0.609458,0.57079 -0.385455,0.12024 -0.8126,0 -1.218905,0 -0.609459,0 -1.218906,0 -1.828364,0 -0.203153,0 -0.427748,-0.0847 -0.609459,0 -1.50621,0.70523 0.210369,0.57063 -1.218905,0.57063 -0.406306,0 -0.812599,0 -1.218905,0 -0.609459,0 -1.321266,-0.31648 -1.828364,0 -0.338069,0.2111 0.287293,0.8726 0,1.1416 -0.287305,0.2691 -0.812611,0 -1.218905,0 -1.015762,0 -2.031519,0 -3.047276,0 -0.406302,0 -0.855499,-0.1702 -1.218907,0 -0.181705,0.085 0.197085,0.5246 0,0.5708 -1.338409,0.3134 -2.92777,-0.3133 -4.266179,0 -0.278721,0.066 -0.352486,0.4505 -0.609454,0.5707 -0.181704,0.085 -0.406303,0 -0.609455,0 -0.406302,0 -0.820496,-0.075 -1.218907,0 -0.629947,0.1181 -1.205123,0.4249 -1.828363,0.5708 -0.764805,0.1791 -1.673011,-0.179 -2.437816,0 -0.622284,0.1458 -0.968562,1.4779 -1.218909,1.7124 -0.287299,0.2689 -0.855499,-0.1702 -1.218907,0 -0.256969,0.1202 -0.352487,0.4504 -0.609455,0.5706 -0.181704,0.085 -0.465804,-0.1344 -0.609454,0 -0.143649,0.1346 0.181705,0.4857 0,0.5708 -0.363408,0.1702 -0.833455,-0.1203 -1.218908,0 -0.272556,0.085 -0.352486,0.4505 -0.609454,0.5708 -0.181704,0.085 -0.465804,-0.1346 -0.609454,0 -0.14365,0.1345 0.14365,0.4362 0,0.5708 -0.14365,0.1345 -0.427751,-0.085 -0.609454,0 -1.347537,0.6309 -0.189127,0.3542 -0.609454,1.1415 -0.128485,0.2407 -0.518602,0.3155 -0.609455,0.5708 -0.192726,0.5414 0,1.1414 0,1.7122 0,0.9513 0,1.9026 0,2.8539 0,0.3805 0.181705,0.8012 0,1.1415 -0.09085,0.1701 -0.465803,-0.1346 -0.609453,0 -0.143651,0.1345 0.14365,0.4362 0,0.5707 -0.321212,0.3008 -0.897698,0.27 -1.218909,0.5708 -0.304727,0.2853 0.304728,1.4269 0,1.7122 -0.143649,0.1346 -0.427749,-0.085 -0.609454,0 -1.143423,0.5355 -0.260611,0.7323 -0.609454,1.7124 -0.634101,1.7815 -0.406303,-0.1903 -1.218908,0.5707 -0.143649,0.1346 0.14365,0.4363 0,0.5708 -0.2873,0.2691 -0.931609,-0.2691 -1.218908,0 -0.14365,0.1346 0.143649,0.4362 0,0.5708 -0.321211,0.3008 -0.787959,0.4362 -1.218909,0.5708 -0.192726,0.06 -0.465803,-0.1346 -0.609453,0 -0.143651,0.1344 0.14365,0.4362 0,0.5706 -0.402219,0.3768 -0.816689,-0.3766 -1.218909,0 -0.143649,0.1346 0.14365,0.4364 0,0.5708 -0.143649,0.1346 -0.406302,0 -0.609454,0 0,0.3805 0.181705,0.8012 0,1.1416 -0.09085,0.1702 -0.465804,-0.1346 -0.609454,0 -0.14365,0.1345 0.14365,0.4362 0,0.5707 -0.14365,0.1346 -0.406303,0 -0.609453,0 -0.406304,0 -0.855501,-0.1701 -1.218909,0 -0.363408,0.1702 0.287299,0.8725 0,1.1416 -0.14365,0.1345 -0.463842,-0.1327 -0.609454,0 -0.655916,0.5976 -0.91572,2.5709 -1.647681,2.0565 -0.731961,-0.5144 0.91572,-2.5709 1.647681,-2.0565 0.731961,0.5144 -1.098454,1.371 -1.647681,2.0565"
       id="path9644"
       inkscape:connector-curvature="0" />
    <path
       style="display:inline;fill:#808080;fill-rule:evenodd;stroke:#000000;stroke-width:4.67091417;stroke-linecap:butt;stroke-linejoin:miter;stroke-miterlimit:4;stroke-dasharray:none;stroke-opacity:1"
       d="m 51.772915,977.84933 c 1.626237,-1.02873 3.346571,-1.93772 4.878711,-3.08616 0.158605,-0.1189 -0.09085,-0.40061 0,-0.57077 0.128485,-0.24066 0.48097,-0.33011 0.609455,-0.57077 0.09085,-0.17016 0,-0.3805 0,-0.57076 0,-0.38051 0,-0.76102 0,-1.14153 0,-0.76102 0,-1.52204 0,-2.28306 0,-0.19025 0,-0.38051 0,-0.57076 0,-0.3805 -0.225377,-0.82492 0,-1.14153 0.03783,-1.60712 1.374102,-0.14534 1.828362,-0.57077 0.2873,-0.26905 -0.2873,-0.87246 0,-1.14152 0.143649,-0.13454 0.465804,0.13453 0.609454,0 0.143649,-0.13454 -0.14365,-0.43624 0,-0.57076 0.143649,-0.13453 0.427749,0.0851 0.609454,0 0.256969,-0.12033 0.352485,-0.45044 0.609454,-0.57077 0.181704,-0.0851 0.465804,0.13453 0.609455,0 0.143649,-0.13453 -0.143651,-0.43623 0,-0.57077 0.609453,-0.3805 1.218907,-0.76101 1.828361,-1.14152 0.203152,0 0.42775,0.0851 0.609455,0 0.256968,-0.12033 0.330733,-0.50551 0.609454,-0.57077 0.591257,-0.13842 1.250183,0.18049 1.828362,0 0.192726,-0.0601 -0.09085,-0.40059 0,-0.57076 0.128484,-0.24065 0.336898,-0.48568 0.609454,-0.57077 0.385452,-0.12032 0.833455,0.12033 1.218909,0 0.272556,-0.0851 0.352485,-0.45044 0.609453,-0.57075 0.181705,-0.0851 0.427751,0.0851 0.609454,0 0.256969,-0.12033 0.330733,-0.50551 0.609454,-0.57077 4.322691,0 0.35701,0.40359 2.437817,-0.57077 0.181704,-0.0851 0.465804,0.13453 0.609454,0 0.32121,-0.30082 0.203152,-0.95127 0.609454,-1.14153 0.545112,-0.25525 1.250184,0.1805 1.828362,0 0.192727,-0.0601 -0.181704,-0.48567 0,-0.57076 0.363408,-0.17017 0.812606,0 1.218908,0 0.203152,0 0.465805,0.13453 0.609455,0 0.143649,-0.13453 -0.192726,-0.5106 0,-0.57076 0.578178,-0.18049 1.237105,0.13843 1.828362,0 0.278721,-0.0652 0.352486,-0.45044 0.609454,-0.57077 0.181705,-0.0851 0.427749,0.0851 0.609454,0 0.256968,-0.12033 0.330733,-0.50551 0.609454,-0.57076 0.591257,-0.13843 1.237105,0.13842 1.828362,0 0.278722,-0.0653 0.352486,-0.45044 0.609455,-0.57077 0.181703,-0.0851 0.427749,0.0851 0.609454,0 0.256968,-0.12032 0.352485,-0.45044 0.609454,-0.57076 0.181704,-0.0851 0.406303,0 0.609453,0 0.609455,-0.38051 1.173219,-0.83475 1.828363,-1.14153 0.181704,-0.0851 0.42775,0.0851 0.609454,0 0.256968,-0.12033 0.336898,-0.48567 0.609455,-0.57077 0.385452,-0.12033 0.833455,0.12033 1.218907,0 0.272556,-0.0851 0.336899,-0.48567 0.609455,-0.57076 0.770905,-0.24065 1.710999,0.34034 2.437816,0 0.181704,-0.0851 -0.181704,-0.48568 0,-0.57076 0.363408,-0.17017 0.8555,0.17017 1.218908,0 0.181706,-0.0851 -0.181704,-0.48568 0,-0.57076 0.726813,-0.34034 1.710999,0.34033 2.437817,0 0.181699,-0.0851 -0.181698,-0.48569 0,-0.57077 0.363409,-0.17017 0.855496,0.17016 1.218905,0 0.181711,-0.0851 -0.181698,-0.48569 0,-0.57077 0.508474,-0.23809 2.154053,0.26576 2.437823,0 0.287289,-0.26905 -0.181711,-0.80118 0,-1.14152 0.181699,-0.34034 0.855499,0.17016 1.218909,0 0.25697,-0.12033 0.35248,-0.45044 0.60945,-0.57077 0.1817,-0.0851 0.41672,0.0601 0.60945,0 0.43096,-0.13452 0.78796,-0.43623 1.21892,-0.57076 0.23714,-0.074 1.73377,0.0886 1.82835,0 0.14365,-0.13453 -0.14364,-0.43623 0,-0.57077 0.14365,-0.13453 0.4063,0 0.60946,0 0.20315,0 0.4063,0 0.60946,0 0.8126,0 1.64946,-0.18457 2.4378,0 0.27873,0.0652 0.40631,0.38052 0.60946,0.57077 0.20315,0.19026 0.40631,0.3805 0.60945,0.57076 0.81261,0.76102 1.62521,1.52204 2.43782,2.28306 0.47604,0.44582 1.47776,1.21978 1.82836,1.71229 0.25198,0.35397 0.28825,0.84071 0.60944,1.14153 0.32122,0.30082 0.89771,0.26995 1.21892,0.57077 0.14364,0.13452 -0.0909,0.40059 0,0.57076 0.12849,0.24065 0.48096,0.33011 0.60945,0.57076 0.18171,0.34034 -0.1817,0.80119 0,1.14153 0.12848,0.24066 0.48097,0.33011 0.60946,0.57077 0.0909,0.17016 0,0.38051 0,0.57076 0,0.38051 0,0.76102 0,1.14153 0,0.95127 0,1.90254 0,2.85382 0,0.19026 0.14365,0.43624 0,0.57076 -0.14366,0.13453 -0.51861,-0.17016 -0.60946,0 -0.1817,0.34034 0.18171,0.8012 0,1.14154 -0.0909,0.17016 -0.41672,-0.0601 -0.60945,0 -0.43096,0.13452 -0.78796,0.43623 -1.21892,0.57075 -0.19272,0.0601 -0.46578,-0.13452 -0.60944,0 -0.81577,0.76399 0.81576,0.37755 0,1.14154 -0.14365,0.13452 -0.4658,-0.13453 -0.60946,0 -0.14365,0.13452 0,0.3805 0,0.57076 -0.61151,0.11569 -1.223,0.23138 -1.83451,0.34707"
       id="path9648"
       inkscape:connector-curvature="0" />
    <path
       style="display:inline;fill:none;fill-rule:evenodd;stroke:#000000;stroke-width:3.50318575;stroke-linecap:butt;stroke-linejoin:miter;stroke-miterlimit:4;stroke-dasharray:none;stroke-opacity:1"
       d="m 54.139128,905.38481 c 0.479327,-0.51098 0.945034,-1.08946 1.437979,-1.53295 0.115912,-0.10431 0.65025,0 0.797831,0 0.706463,0 1.231482,-0.24736 1.861608,0.58664 0.215003,0.28455 0.316886,0.88871 0.531888,1.17327 0.480761,0.6363 1.094196,0.62019 1.595665,1.17327 0.243423,0.26848 0.467104,1.33121 0.531887,1.75993 0.02803,0.18551 -0.06269,0.44836 0,0.58662 0.06269,0.13827 0.186655,-0.0875 0.265944,0 0.112134,0.12367 0.161633,0.43325 0.265945,0.58665 0.242936,0.35725 0.64539,0.50075 0.797831,1.17326 0.125368,0.5531 0.197954,1.16002 0.265945,1.75993 0.0215,0.1897 -0.03964,0.41172 0,0.58663 0.05606,0.24736 0.209877,0.3393 0.265943,0.58664 0.03964,0.17491 -0.0215,0.39693 0,0.58664 0.068,0.59991 0.140577,1.20682 0.265944,1.75992 0.05606,0.24735 0.209877,0.33929 0.265944,0.58664 0.03438,0.15167 0,3.10401 0,3.51982 0,0.97774 0,1.95546 0,2.9332 0,0.19554 0,0.39109 0,0.58663 0,0.19555 0.03964,0.41174 0,0.58665 -0.05606,0.24734 -0.226299,0.32428 -0.265944,0.58663 -0.05606,0.37102 0.07929,0.82347 0,1.17328 -0.03964,0.1749 -0.20326,-0.13827 -0.265944,0 -0.06269,0.13828 0.06269,0.44837 0,0.58664 -0.125367,0.27654 -0.40652,-0.27654 -0.531888,0 -0.550247,1.21377 0.840852,-0.0473 -0.265944,1.17328 -0.07929,0.0875 -0.20326,-0.13828 -0.265944,0 -0.06269,0.13826 0.07929,0.49918 0,0.58663 -0.158578,0.17491 -0.354592,0 -0.531888,0 -0.08865,0 -0.203261,-0.13827 -0.265944,0 -0.06269,0.13827 0.06269,0.44837 0,0.58665 -0.125367,0.27653 -0.406521,-0.27656 -0.531887,0 -0.06269,0.13827 0.06268,0.44836 0,0.58662 -0.09283,0.20479 -0.742637,-0.24351 -0.797833,0 -0.07929,0.34981 0.125367,0.89674 0,1.17329 -0.125367,0.27654 -0.373309,-0.17491 -0.531888,0 -0.07929,0.0875 0.06269,0.44836 0,0.58662 -0.06269,0.13829 -0.203259,-0.13826 -0.265944,0 -0.06269,0.13829 0.06269,0.44838 0,0.58665 -0.550247,1.21378 0.02152,-1.85481 -0.531888,0.58665 -0.03964,0.17489 0,0.39107 0,0.58663 0,0.19554 0,0.39109 0,0.58663 0,0.50838 -0.05135,2.00673 0,2.34655 0.642115,4.24927 -0.07667,-0.92488 0.531888,1.75992 0.05243,0.23129 0,2.35376 0,2.93319 0,0.19555 -0.06269,0.44837 0,0.58665 0.140165,0.30918 0.391723,0.27745 0.531889,0.58663 2.53e-4,5.7e-4 -4.02e-4,1.75726 0,1.75993 0.03964,0.26234 0.209877,0.33927 0.265943,0.58662 0.03964,0.17491 -0.06269,0.44837 0,0.58665 0.06269,0.13827 0.292842,-0.18633 0.265944,0 -0.06715,0.46516 -0.285106,0.74682 -0.42766,1.12023"
       id="path9660-5"
       inkscape:connector-curvature="0" />
  </g>
</svg>
