<?xml version="1.0" encoding="UTF-8" standalone="no"?>
<!-- Created with Inkscape (http://www.inkscape.org/) -->

<svg
   xmlns:dc="http://purl.org/dc/elements/1.1/"
   xmlns:cc="http://creativecommons.org/ns#"
   xmlns:rdf="http://www.w3.org/1999/02/22-rdf-syntax-ns#"
   xmlns:svg="http://www.w3.org/2000/svg"
   xmlns="http://www.w3.org/2000/svg"
   xmlns:sodipodi="http://sodipodi.sourceforge.net/DTD/sodipodi-0.dtd"
   xmlns:inkscape="http://www.inkscape.org/namespaces/inkscape"
   width="48mm"
   height="48mm"
   viewBox="0 0 170.07874 170.07874"
   id="svg5705"
   version="1.1"
   inkscape:version="0.91 r13725"
   sodipodi:docname="shit.svg">
  <defs
     id="defs5707" />
  <sodipodi:namedview
     id="base"
     pagecolor="#ffffff"
     bordercolor="#666666"
     borderopacity="1.0"
     inkscape:pageopacity="0.0"
     inkscape:pageshadow="2"
     inkscape:zoom="1.4"
     inkscape:cx="409.12413"
     inkscape:cy="91.272877"
     inkscape:document-units="px"
     inkscape:current-layer="layer1"
     showgrid="true"
     inkscape:object-paths="true"
     inkscape:window-width="1536"
     inkscape:window-height="801"
     inkscape:window-x="1536"
     inkscape:window-y="23"
     inkscape:window-maximized="0"
     inkscape:snap-bbox="true"
     inkscape:snap-global="true">
    <inkscape:grid
       type="xygrid"
       id="grid9441" />
  </sodipodi:namedview>
  <metadata
     id="metadata5710">
    <rdf:RDF>
      <cc:Work
         rdf:about="">
        <dc:format>image/svg+xml</dc:format>
        <dc:type
           rdf:resource="http://purl.org/dc/dcmitype/StillImage" />
        <dc:title></dc:title>
      </cc:Work>
    </rdf:RDF>
  </metadata>
  <g
     inkscape:groupmode="layer"
     id="layer2"
     inkscape:label="Layer 2" />
  <g
     inkscape:label="Layer 1"
     inkscape:groupmode="layer"
     id="layer1"
     transform="translate(0,-882.28346)"
     style="display:inline">
    <rect
       style="opacity:0;fill:#ffffff;fill-opacity:1;fill-rule:evenodd;stroke:#ff0000;stroke-width:2;stroke-linejoin:miter;stroke-miterlimit:4;stroke-dasharray:none;stroke-opacity:1"
       id="rect9560"
       width="285"
       height="185"
       x="-50"
       y="877.36218" />
    <rect
       style="opacity:0;fill:#ffffff;fill-opacity:1;fill-rule:evenodd;stroke:#ff0000;stroke-width:2;stroke-linejoin:miter;stroke-miterlimit:4;stroke-dasharray:none;stroke-opacity:1"
       id="rect9562"
       width="250"
       height="155"
       x="-25"
       y="902.36218" />
    <path
       sodipodi:type="star"
       style="opacity:0;fill:#999999;fill-opacity:1;fill-rule:evenodd;stroke:#ff0000;stroke-width:2;stroke-linejoin:miter;stroke-miterlimit:4;stroke-dasharray:none;stroke-opacity:1"
       id="path9568"
       sodipodi:sides="5"
       sodipodi:cx="-90"
       sodipodi:cy="877.36218"
       sodipodi:r1="374.43289"
       sodipodi:r2="187.21645"
       sodipodi:arg1="0.59540988"
       sodipodi:arg2="1.2237284"
       inkscape:flatsided="false"
       inkscape:rounded="0"
       inkscape:randomized="0"
       d="M 219.99999,1087.3622 -26.319818,1053.4157 -193.9266,1237.0833 -237.75856,992.32916 -464.23016,889.68204 -245,772.36219 -217.36036,525.2552 -38.036703,697.50164 205.51713,647.42824 97.115079,871.20225 Z"
       inkscape:transform-center-x="32.115086"
       inkscape:transform-center-y="3.8070459" />
    <path
       sodipodi:type="star"
       style="opacity:0;fill:#999999;fill-opacity:1;fill-rule:evenodd;stroke:#ff0000;stroke-width:2;stroke-linejoin:miter;stroke-miterlimit:4;stroke-dasharray:none;stroke-opacity:1"
       id="path9570"
       sodipodi:sides="5"
       sodipodi:cx="-25"
       sodipodi:cy="892.36218"
       sodipodi:r1="292.06165"
       sodipodi:r2="146.03082"
       sodipodi:arg1="0.66404616"
       sodipodi:arg2="1.2923647"
       inkscape:flatsided="false"
       inkscape:rounded="0"
       inkscape:randomized="0"
       d="M 205.00001,1072.3622 15.136282,1032.769 -125.11627,1166.7282 -146.13204,973.92215 -316.87526,881.92973 -140,802.36218 -105.27257,611.54851 25.058134,755.17915 217.26409,729.24224 120.93763,897.57841 Z"
       inkscape:transform-center-x="24.805586"
       inkscape:transform-center-y="-3.2238046" />
    <path
       sodipodi:type="star"
       style="opacity:0;fill:#999999;fill-opacity:1;fill-rule:evenodd;stroke:#ff0000;stroke-width:2;stroke-linejoin:miter;stroke-miterlimit:4;stroke-dasharray:none;stroke-opacity:1"
       id="path9572"
       sodipodi:sides="5"
       sodipodi:cx="-25"
       sodipodi:cy="977.3622"
       sodipodi:r1="169.70563"
       sodipodi:r2="84.852814"
       sodipodi:arg1="0.78539816"
       sodipodi:arg2="1.4137167"
       inkscape:flatsided="false"
       inkscape:rounded="0"
       inkscape:randomized="0"
       d="m 95,1097.3622 -106.726096,-36.1919 -90.318644,67.4007 1.44033,-112.6864 -92.01186,-65.07023 L -85,917.36218 -51.54781,809.74591 13.522372,901.75777 126.20882,900.31744 58.808135,990.63609 Z"
       inkscape:transform-center-x="8.2037242"
       inkscape:transform-center-y="-8.2037242" />
    <path
       style="opacity:0;fill:#000000;fill-opacity:1;fill-rule:evenodd;stroke:#ff0000;stroke-width:1.01015258;stroke-linejoin:miter;stroke-miterlimit:4;stroke-dasharray:none;stroke-opacity:1"
       d="M -378.93945 -124.36523 L -378.93945 138.52734 L -378.93945 401.41992 L 184.72461 401.41992 L 748.39062 401.41992 L 748.39062 138.52734 L 748.39062 -124.36523 L 184.72461 -124.36523 L -378.93945 -124.36523 z M 91.058594 86.142578 C 91.725059 86.061598 91.743703 86.394952 91.935547 86.8125 C 91.935832 86.835999 91.936848 86.85931 91.9375 86.882812 C 92.008518 86.919362 92.064036 86.937279 92.056641 86.888672 C 92.128401 86.908142 92.2005 86.925136 92.271484 86.947266 C 92.312154 86.959946 92.34849 86.987851 92.390625 86.994141 C 92.453165 87.003441 92.518795 86.994055 92.582031 86.994141 C 92.87626 86.994538 93.168661 86.994393 93.462891 86.994141 C 94.717053 86.991941 95.972443 86.98449 97.226562 87 C 97.953024 87.0073 98.677863 87.013967 99.404297 86.998047 C 99.68928 86.991747 99.97483 86.980956 100.25977 86.972656 C 100.49518 86.962956 100.73126 86.949179 100.9668 86.943359 C 101.20129 86.937559 101.43537 86.9394 101.66992 86.9375 C 102.50483 86.9904 102.38259 86.96999 103.26367 87.087891 C 103.50353 87.119981 103.74126 87.17524 103.98242 87.195312 C 104.29305 87.221163 104.60481 87.206949 104.91602 87.224609 C 105.68018 87.267969 106.12714 87.329213 106.88281 87.414062 C 107.72826 87.559716 108.61287 87.67705 109.42969 87.955078 C 109.72519 88.055661 110.00948 88.18676 110.29688 88.308594 C 110.56546 88.422456 110.69079 88.489566 110.86523 88.566406 C 110.8434 88.447983 110.81383 88.332689 110.80664 88.208984 C 110.75543 87.32755 111.28624 87.013316 111.68359 87.330078 C 111.70631 87.272787 111.72077 87.210554 111.75586 87.160156 C 111.82946 87.054416 111.94754 86.986953 112.04297 86.900391 L 112.35547 86.779297 C 112.33877 86.795437 112.28384 86.832975 112.30664 86.828125 C 112.34864 86.819225 112.37843 86.784298 112.41797 86.767578 C 112.77176 86.617897 112.68191 86.676143 112.92383 86.603516 C 113.03019 86.585796 113.13436 86.551351 113.24219 86.550781 C 113.61354 86.548881 114.22718 86.881314 114.50781 87.097656 C 114.60919 87.174616 114.71848 87.254515 114.80859 87.34375 C 114.85259 87.38734 114.86261 87.466436 114.91797 87.494141 C 115.04675 87.558531 115.19059 87.591826 115.32031 87.654297 C 115.37091 87.678637 115.4116 87.719053 115.45703 87.751953 C 115.32795 87.729883 115.41509 87.741514 115.58984 87.808594 C 115.65504 87.833604 115.71709 87.866292 115.7832 87.888672 C 116.14933 88.012624 116.16394 87.9719 116.49414 88.15625 C 116.5957 88.21295 116.68849 88.284935 116.78516 88.349609 C 117.00256 88.532131 117.19953 88.721842 117.37695 88.945312 C 117.46025 89.050297 117.53601 89.1614 117.61523 89.269531 C 117.63773 89.312861 117.65214 89.361561 117.68164 89.400391 C 117.75044 89.490731 117.83293 89.571227 117.9082 89.65625 C 117.9979 89.756401 118.09535 89.848838 118.17773 89.955078 C 118.30335 90.1171 118.51176 90.479953 118.60547 90.650391 C 118.69457 90.812473 118.79772 90.967668 118.86328 91.140625 C 118.96078 91.39783 118.94481 91.549384 118.94531 91.798828 C 118.94631 92.150914 118.98517 92.555951 118.8418 92.886719 C 118.784 93.020113 118.66893 93.119781 118.58203 93.236328 L 118.23438 93.505859 C 118.19888 93.516529 118.15929 93.515909 118.12891 93.537109 C 118.05491 93.588719 117.99918 93.663683 117.92773 93.71875 C 117.75615 93.850999 117.55364 93.914265 117.37109 94.029297 C 117.42059 93.962317 117.59756 93.798978 117.51953 93.828125 C 117.30605 93.907865 117.14225 94.083732 116.94141 94.191406 C 116.88091 94.223816 116.40044 94.150619 116.34961 94.193359 C 116.02323 94.196759 115.69872 94.193042 115.37305 94.169922 C 115.33275 94.170236 115.18831 94.166387 115.13086 94.179688 C 115.05076 94.198206 114.97418 94.235684 114.89258 94.246094 C 114.45833 94.301474 114.11724 94.17783 113.79492 93.882812 C 113.62705 93.676975 113.60953 93.670143 113.46875 93.445312 C 113.44245 93.403342 113.42874 93.353602 113.39844 93.314453 C 113.29894 93.186002 113.17611 93.076359 113.08008 92.945312 C 113.00938 92.848833 112.96083 92.737982 112.90039 92.634766 L 112.55273 92.167969 C 112.42879 91.975717 112.29631 91.789713 112.18164 91.591797 C 111.94604 91.185178 111.83855 90.891196 111.63086 90.474609 C 111.59224 90.397142 111.55685 90.319304 111.51758 90.242188 C 110.85874 89.936659 110.55794 89.79161 109.79102 89.466797 C 109.51348 89.349251 109.23852 89.221914 108.95312 89.125 C 108.74246 89.05346 108.52347 89.012782 108.30664 88.962891 C 107.69671 88.822543 107.32209 88.77002 106.66992 88.658203 C 105.97339 88.581693 105.52355 88.522002 104.81641 88.482422 C 104.52589 88.466162 104.2333 88.481541 103.94336 88.457031 C 103.65475 88.432621 103.3712 88.373259 103.08398 88.335938 C 102.19855 88.220898 102.40411 88.246356 101.5918 88.197266 C 100.13249 88.247096 98.673204 88.276349 97.212891 88.261719 C 95.963749 88.246319 94.71598 88.255612 93.466797 88.257812 C 93.171087 88.258033 92.873835 88.256258 92.578125 88.255859 C 92.515245 88.255774 92.45295 88.264228 92.390625 88.255859 C 92.12055 88.219609 91.974253 88.173461 91.728516 88.107422 C 91.35461 87.980282 90.957829 87.95989 90.742188 87.541016 C 90.640068 87.342652 90.680211 87.098062 90.675781 86.875 C 90.752611 87.200414 90.721117 87.387081 91.269531 87.386719 C 91.426577 87.386615 91.53932 87.225593 91.673828 87.144531 C 91.789411 87.074874 91.835608 87.028927 91.863281 86.988281 C 91.852817 86.946836 91.838182 86.909099 91.814453 86.876953 C 91.424167 86.782984 89.841748 87.06607 90.587891 86.5 C 90.745022 86.38079 90.862799 86.166368 91.058594 86.142578 z M 113.10352 87.777344 C 113.08332 87.773744 113.13615 87.806447 113.15625 87.810547 C 113.16262 87.811842 113.16934 87.809845 113.17578 87.810547 C 113.15008 87.800818 113.12473 87.781144 113.10352 87.777344 z M 113.21094 87.828125 C 113.16665 87.84349 113.2976 87.80036 112.9043 87.888672 C 112.872 87.895872 112.99831 87.852146 113.00391 87.884766 C 113.00829 87.91048 112.90038 87.939682 112.78711 87.964844 C 112.73175 88.133625 112.47295 88.391757 112.40234 88.484375 C 112.39722 88.491089 112.39611 88.50017 112.39258 88.507812 C 112.39224 88.516323 112.39504 88.516504 112.39453 88.525391 C 112.37857 88.803958 112.38195 88.904557 112.28125 88.939453 C 112.33663 89.070347 112.40501 89.193675 112.4707 89.324219 C 112.62357 89.418464 112.73749 89.519314 112.80664 89.626953 C 113.11934 89.368375 113.62506 89.321787 113.89453 89.898438 C 113.91341 89.938868 114.29518 90.4577 114.51758 90.861328 C 114.67102 90.799876 114.69184 90.794867 114.52344 90.871094 C 114.64046 91.085192 114.7238 91.273425 114.65234 91.318359 C 114.3649 91.499126 114.00636 91.506736 113.66211 91.546875 L 113.91211 91.880859 C 113.99631 92.019658 114.06921 92.165092 114.16406 92.296875 C 114.21176 92.363185 114.2856 92.406352 114.33594 92.470703 C 114.48958 92.667117 114.59933 92.886092 114.76367 93.074219 C 114.77867 93.071819 114.80139 93.079706 114.80859 93.066406 C 114.83139 93.024196 114.73302 92.998051 114.72852 92.994141 C 114.72352 92.990241 114.73493 92.981899 114.74023 92.980469 C 114.82603 92.959309 114.91232 92.938474 115 92.927734 C 115.10589 92.914764 115.21187 92.914533 115.31836 92.908203 C 115.65813 92.925253 115.9958 92.933207 116.33594 92.929688 C 116.46855 92.928213 116.60174 92.927732 116.73438 92.927734 C 116.81202 92.900259 116.8957 92.876092 116.95508 92.837891 C 117.06787 92.737991 116.9403 92.843211 117.1875 92.705078 C 117.32059 92.630688 117.11774 92.720276 117.24414 92.634766 C 117.63306 92.371667 117.62751 92.390643 117.67578 92.349609 C 117.67281 92.32555 117.68359 92.277638 117.68359 92.248047 C 117.68559 92.09988 117.68403 91.952813 117.68359 91.804688 C 117.68341 91.720067 117.69413 91.634741 117.68359 91.550781 C 117.67019 91.444027 117.56976 91.374386 117.51758 91.292969 C 117.33909 91.014444 117.22023 90.749688 116.98438 90.517578 C 116.90178 90.424498 116.81166 90.33733 116.73633 90.238281 C 116.66163 90.140071 116.60743 90.029125 116.53711 89.927734 C 116.37873 89.699359 116.19656 89.496033 115.98047 89.322266 C 115.92197 89.285666 115.86626 89.244107 115.80469 89.212891 C 115.70639 89.163041 115.52689 89.134029 115.43555 89.103516 C 115.17326 89.015896 114.96871 88.925459 114.73242 88.787109 C 114.68172 88.750449 114.6369 88.702012 114.58008 88.675781 C 114.56628 88.669381 114.55256 88.690246 114.53906 88.697266 C 114.41355 88.622826 114.27891 88.56207 114.16211 88.474609 C 114.01588 88.365123 113.89686 88.218205 113.74805 88.107422 C 113.70235 88.068652 113.6631 88.020422 113.61133 87.990234 C 113.58163 87.972924 113.54318 87.98259 113.51172 87.96875 C 113.45774 87.944918 113.3236 87.87728 113.21094 87.828125 z M 114.52344 90.871094 C 114.52165 90.867819 114.51939 90.86462 114.51758 90.861328 C 114.4796 90.876538 114.54896 90.845977 114.48242 90.873047 C 114.14856 91.008879 113.78116 91.083917 113.47461 91.269531 C 113.49377 91.297573 113.51009 91.327451 113.5293 91.355469 C 113.85496 91.1818 114.26454 90.988282 114.52344 90.871094 z M 112.71289 87.982422 C 112.55657 88.014718 112.43064 88.036424 112.61523 88.027344 C 112.64582 88.067138 112.68119 88.02927 112.71289 87.982422 z M 117.77734 92.205078 C 117.75624 92.228973 117.74782 92.264845 117.73633 92.296875 C 117.75869 92.276389 117.74162 92.293729 117.78125 92.257812 C 117.78025 92.240223 117.78834 92.191858 117.77734 92.205078 z "
       transform="translate(0,882.28346)"
       id="path9574" />
    <path
       style="opacity:0;fill:#00ff00;fill-opacity:1;fill-rule:evenodd;stroke:#ff0000;stroke-width:1.01015258;stroke-linejoin:miter;stroke-miterlimit:4;stroke-dasharray:none;stroke-opacity:1"
       d="M -378.93945 -124.21289 L -378.93945 138.17383 L -378.93945 400.56055 L 184.72461 400.56055 L 748.39062 400.56055 L 748.39062 138.17383 L 748.39062 -124.21289 L 184.72461 -124.21289 L -378.93945 -124.21289 z M 91.058594 86.142578 C 91.725059 86.061598 91.743703 86.394952 91.935547 86.8125 C 91.935832 86.835999 91.936848 86.85931 91.9375 86.882812 C 92.008518 86.919362 92.064036 86.937279 92.056641 86.888672 C 92.128401 86.908142 92.2005 86.925136 92.271484 86.947266 C 92.312154 86.959946 92.34849 86.987851 92.390625 86.994141 C 92.453165 87.003441 92.518795 86.994055 92.582031 86.994141 C 92.87626 86.994538 93.168661 86.994393 93.462891 86.994141 C 94.717053 86.991941 95.972443 86.98449 97.226562 87 C 97.953024 87.0073 98.677863 87.013967 99.404297 86.998047 C 99.68928 86.991747 99.97483 86.980956 100.25977 86.972656 C 100.49518 86.962956 100.73126 86.949179 100.9668 86.943359 C 101.20129 86.937559 101.43537 86.9394 101.66992 86.9375 C 102.50483 86.9904 102.38259 86.96999 103.26367 87.087891 C 103.50353 87.119981 103.74126 87.17524 103.98242 87.195312 C 104.29305 87.221163 104.60481 87.206949 104.91602 87.224609 C 105.68018 87.267969 106.12714 87.329213 106.88281 87.414062 C 107.72826 87.559716 108.61287 87.67705 109.42969 87.955078 C 109.72519 88.055661 110.00948 88.18676 110.29688 88.308594 C 110.56546 88.422456 110.69079 88.489566 110.86523 88.566406 C 110.8434 88.447983 110.81383 88.332689 110.80664 88.208984 C 110.75543 87.32755 111.28624 87.013316 111.68359 87.330078 C 111.70631 87.272787 111.72077 87.210554 111.75586 87.160156 C 111.82946 87.054416 111.94754 86.986953 112.04297 86.900391 L 112.35547 86.779297 C 112.33877 86.795437 112.28384 86.832975 112.30664 86.828125 C 112.34864 86.819225 112.37843 86.784298 112.41797 86.767578 C 112.77176 86.617897 112.68191 86.676143 112.92383 86.603516 C 113.03019 86.585796 113.13436 86.551351 113.24219 86.550781 C 113.61354 86.548881 114.22718 86.881314 114.50781 87.097656 C 114.60919 87.174616 114.71848 87.254515 114.80859 87.34375 C 114.85259 87.38734 114.86261 87.466436 114.91797 87.494141 C 115.04675 87.558531 115.19059 87.591826 115.32031 87.654297 C 115.37091 87.678637 115.4116 87.719053 115.45703 87.751953 C 115.32795 87.729883 115.41509 87.741514 115.58984 87.808594 C 115.65504 87.833604 115.71709 87.866292 115.7832 87.888672 C 116.14933 88.012624 116.16394 87.9719 116.49414 88.15625 C 116.5957 88.21295 116.68849 88.284935 116.78516 88.349609 C 117.00256 88.532131 117.19953 88.721842 117.37695 88.945312 C 117.46025 89.050297 117.53601 89.1614 117.61523 89.269531 C 117.63773 89.312861 117.65214 89.361561 117.68164 89.400391 C 117.75044 89.490731 117.83293 89.571227 117.9082 89.65625 C 117.9979 89.756401 118.09535 89.848838 118.17773 89.955078 C 118.30335 90.1171 118.51176 90.479953 118.60547 90.650391 C 118.69457 90.812473 118.79772 90.967668 118.86328 91.140625 C 118.96078 91.39783 118.94481 91.549384 118.94531 91.798828 C 118.94631 92.150914 118.98517 92.555951 118.8418 92.886719 C 118.784 93.020113 118.66893 93.119781 118.58203 93.236328 L 118.23438 93.505859 C 118.19888 93.516529 118.15929 93.515909 118.12891 93.537109 C 118.05491 93.588719 117.99918 93.663683 117.92773 93.71875 C 117.75615 93.850999 117.55364 93.914265 117.37109 94.029297 C 117.42059 93.962317 117.59756 93.798978 117.51953 93.828125 C 117.30605 93.907865 117.14225 94.083732 116.94141 94.191406 C 116.88091 94.223816 116.40044 94.150619 116.34961 94.193359 C 116.02323 94.196759 115.69872 94.193042 115.37305 94.169922 C 115.33275 94.170236 115.18831 94.166387 115.13086 94.179688 C 115.05076 94.198206 114.97418 94.235684 114.89258 94.246094 C 114.45833 94.301474 114.11724 94.17783 113.79492 93.882812 C 113.62705 93.676975 113.60953 93.670143 113.46875 93.445312 C 113.44245 93.403342 113.42874 93.353602 113.39844 93.314453 C 113.29894 93.186002 113.17611 93.076359 113.08008 92.945312 C 113.00938 92.848833 112.96083 92.737982 112.90039 92.634766 L 112.55273 92.167969 C 112.42879 91.975717 112.29631 91.789713 112.18164 91.591797 C 111.94604 91.185178 111.83855 90.891196 111.63086 90.474609 C 111.59224 90.397142 111.55685 90.319304 111.51758 90.242188 C 110.85874 89.936659 110.55794 89.79161 109.79102 89.466797 C 109.51348 89.349251 109.23852 89.221914 108.95312 89.125 C 108.74246 89.05346 108.52347 89.012782 108.30664 88.962891 C 107.69671 88.822543 107.32209 88.77002 106.66992 88.658203 C 105.97339 88.581693 105.52355 88.522002 104.81641 88.482422 C 104.52589 88.466162 104.2333 88.481541 103.94336 88.457031 C 103.65475 88.432621 103.3712 88.373259 103.08398 88.335938 C 102.19855 88.220898 102.40411 88.246356 101.5918 88.197266 C 100.13249 88.247096 98.673204 88.276349 97.212891 88.261719 C 95.963749 88.246319 94.71598 88.255612 93.466797 88.257812 C 93.171087 88.258033 92.873835 88.256258 92.578125 88.255859 C 92.515245 88.255774 92.45295 88.264228 92.390625 88.255859 C 92.12055 88.219609 91.974253 88.173461 91.728516 88.107422 C 91.35461 87.980282 90.957829 87.95989 90.742188 87.541016 C 90.640068 87.342652 90.680211 87.098062 90.675781 86.875 C 90.752611 87.200414 90.721117 87.387081 91.269531 87.386719 C 91.426577 87.386615 91.53932 87.225593 91.673828 87.144531 C 91.789411 87.074874 91.835608 87.028927 91.863281 86.988281 C 91.852817 86.946836 91.838182 86.909099 91.814453 86.876953 C 91.424167 86.782984 89.841748 87.06607 90.587891 86.5 C 90.745022 86.38079 90.862799 86.166368 91.058594 86.142578 z M 113.10352 87.777344 C 113.08332 87.773744 113.13615 87.806447 113.15625 87.810547 C 113.16262 87.811842 113.16934 87.809845 113.17578 87.810547 C 113.15008 87.800818 113.12473 87.781144 113.10352 87.777344 z M 113.21094 87.828125 C 113.16665 87.84349 113.2976 87.80036 112.9043 87.888672 C 112.872 87.895872 112.99831 87.852146 113.00391 87.884766 C 113.00829 87.91048 112.90038 87.939682 112.78711 87.964844 C 112.73175 88.133625 112.47295 88.391757 112.40234 88.484375 C 112.39722 88.491089 112.39611 88.50017 112.39258 88.507812 C 112.39224 88.516323 112.39504 88.516504 112.39453 88.525391 C 112.37857 88.803958 112.38195 88.904557 112.28125 88.939453 C 112.33663 89.070347 112.40501 89.193675 112.4707 89.324219 C 112.62357 89.418464 112.73749 89.519314 112.80664 89.626953 C 113.11934 89.368375 113.62506 89.321787 113.89453 89.898438 C 113.91341 89.938868 114.29518 90.4577 114.51758 90.861328 C 114.67102 90.799876 114.69184 90.794867 114.52344 90.871094 C 114.64046 91.085192 114.7238 91.273425 114.65234 91.318359 C 114.3649 91.499126 114.00636 91.506736 113.66211 91.546875 L 113.91211 91.880859 C 113.99631 92.019658 114.06921 92.165092 114.16406 92.296875 C 114.21176 92.363185 114.2856 92.406352 114.33594 92.470703 C 114.48958 92.667117 114.59933 92.886092 114.76367 93.074219 C 114.77867 93.071819 114.80139 93.079706 114.80859 93.066406 C 114.83139 93.024196 114.73302 92.998051 114.72852 92.994141 C 114.72352 92.990241 114.73493 92.981899 114.74023 92.980469 C 114.82603 92.959309 114.91232 92.938474 115 92.927734 C 115.10589 92.914764 115.21187 92.914533 115.31836 92.908203 C 115.65813 92.925253 115.9958 92.933207 116.33594 92.929688 C 116.46855 92.928213 116.60174 92.927732 116.73438 92.927734 C 116.81202 92.900259 116.8957 92.876092 116.95508 92.837891 C 117.06787 92.737991 116.9403 92.843211 117.1875 92.705078 C 117.32059 92.630688 117.11774 92.720276 117.24414 92.634766 C 117.63306 92.371667 117.62751 92.390643 117.67578 92.349609 C 117.67281 92.32555 117.68359 92.277638 117.68359 92.248047 C 117.68559 92.09988 117.68403 91.952813 117.68359 91.804688 C 117.68341 91.720067 117.69413 91.634741 117.68359 91.550781 C 117.67019 91.444027 117.56976 91.374386 117.51758 91.292969 C 117.33909 91.014444 117.22023 90.749688 116.98438 90.517578 C 116.90178 90.424498 116.81166 90.33733 116.73633 90.238281 C 116.66163 90.140071 116.60743 90.029125 116.53711 89.927734 C 116.37873 89.699359 116.19656 89.496033 115.98047 89.322266 C 115.92197 89.285666 115.86626 89.244107 115.80469 89.212891 C 115.70639 89.163041 115.52689 89.134029 115.43555 89.103516 C 115.17326 89.015896 114.96871 88.925459 114.73242 88.787109 C 114.68172 88.750449 114.6369 88.702012 114.58008 88.675781 C 114.56628 88.669381 114.55256 88.690246 114.53906 88.697266 C 114.41355 88.622826 114.27891 88.56207 114.16211 88.474609 C 114.01588 88.365123 113.89686 88.218205 113.74805 88.107422 C 113.70235 88.068652 113.6631 88.020422 113.61133 87.990234 C 113.58163 87.972924 113.54318 87.98259 113.51172 87.96875 C 113.45774 87.944918 113.3236 87.87728 113.21094 87.828125 z M 114.52344 90.871094 C 114.52165 90.867819 114.51939 90.86462 114.51758 90.861328 C 114.4796 90.876538 114.54896 90.845977 114.48242 90.873047 C 114.14856 91.008879 113.78116 91.083917 113.47461 91.269531 C 113.49377 91.297573 113.51009 91.327451 113.5293 91.355469 C 113.85496 91.1818 114.26454 90.988282 114.52344 90.871094 z M 112.71289 87.982422 C 112.55657 88.014718 112.43064 88.036424 112.61523 88.027344 C 112.64582 88.067138 112.68119 88.02927 112.71289 87.982422 z M 117.77734 92.205078 C 117.75624 92.228973 117.74782 92.264845 117.73633 92.296875 C 117.75869 92.276389 117.74162 92.293729 117.78125 92.257812 C 117.78025 92.240223 117.78834 92.191858 117.77734 92.205078 z "
       transform="translate(0,882.28346)"
       id="path9576" />
    <path
       style="opacity:0;fill:#00ff00;fill-opacity:1;fill-rule:evenodd;stroke:#ff0000;stroke-width:1.01015258;stroke-linejoin:miter;stroke-miterlimit:4;stroke-dasharray:none;stroke-opacity:1"
       d="M -378.93945 -124.21289 L -378.93945 138.17383 L -378.93945 400.56055 L 184.72461 400.56055 L 748.39062 400.56055 L 748.39062 138.17383 L 748.39062 -124.21289 L 184.72461 -124.21289 L -378.93945 -124.21289 z M 91.058594 86.142578 C 91.725059 86.061598 91.743703 86.394952 91.935547 86.8125 C 91.935832 86.835999 91.936848 86.85931 91.9375 86.882812 C 92.008518 86.919362 92.064036 86.937279 92.056641 86.888672 C 92.128401 86.908142 92.2005 86.925136 92.271484 86.947266 C 92.312154 86.959946 92.34849 86.987851 92.390625 86.994141 C 92.453165 87.003441 92.518795 86.994055 92.582031 86.994141 C 92.87626 86.994538 93.168661 86.994393 93.462891 86.994141 C 94.717053 86.991941 95.972443 86.98449 97.226562 87 C 97.953024 87.0073 98.677863 87.013967 99.404297 86.998047 C 99.68928 86.991747 99.97483 86.980956 100.25977 86.972656 C 100.49518 86.962956 100.73126 86.949179 100.9668 86.943359 C 101.20129 86.937559 101.43537 86.9394 101.66992 86.9375 C 102.50483 86.9904 102.38259 86.96999 103.26367 87.087891 C 103.50353 87.119981 103.74126 87.17524 103.98242 87.195312 C 104.29305 87.221163 104.60481 87.206949 104.91602 87.224609 C 105.68018 87.267969 106.12714 87.329213 106.88281 87.414062 C 107.72826 87.559716 108.61287 87.67705 109.42969 87.955078 C 109.72519 88.055661 110.00948 88.18676 110.29688 88.308594 C 110.56546 88.422456 110.69079 88.489566 110.86523 88.566406 C 110.8434 88.447983 110.81383 88.332689 110.80664 88.208984 C 110.75543 87.32755 111.28624 87.013316 111.68359 87.330078 C 111.70631 87.272787 111.72077 87.210554 111.75586 87.160156 C 111.82946 87.054416 111.94754 86.986953 112.04297 86.900391 L 112.35547 86.779297 C 112.33877 86.795437 112.28384 86.832975 112.30664 86.828125 C 112.34864 86.819225 112.37843 86.784298 112.41797 86.767578 C 112.77176 86.617897 112.68191 86.676143 112.92383 86.603516 C 113.03019 86.585796 113.13436 86.551351 113.24219 86.550781 C 113.61354 86.548881 114.22718 86.881314 114.50781 87.097656 C 114.60919 87.174616 114.71848 87.254515 114.80859 87.34375 C 114.85259 87.38734 114.86261 87.466436 114.91797 87.494141 C 115.04675 87.558531 115.19059 87.591826 115.32031 87.654297 C 115.37091 87.678637 115.4116 87.719053 115.45703 87.751953 C 115.32795 87.729883 115.41509 87.741514 115.58984 87.808594 C 115.65504 87.833604 115.71709 87.866292 115.7832 87.888672 C 116.14933 88.012624 116.16394 87.9719 116.49414 88.15625 C 116.5957 88.21295 116.68849 88.284935 116.78516 88.349609 C 117.00256 88.532131 117.19953 88.721842 117.37695 88.945312 C 117.46025 89.050297 117.53601 89.1614 117.61523 89.269531 C 117.63773 89.312861 117.65214 89.361561 117.68164 89.400391 C 117.75044 89.490731 117.83293 89.571227 117.9082 89.65625 C 117.9979 89.756401 118.09535 89.848838 118.17773 89.955078 C 118.30335 90.1171 118.51176 90.479953 118.60547 90.650391 C 118.69457 90.812473 118.79772 90.967668 118.86328 91.140625 C 118.96078 91.39783 118.94481 91.549384 118.94531 91.798828 C 118.94631 92.150914 118.98517 92.555951 118.8418 92.886719 C 118.784 93.020113 118.66893 93.119781 118.58203 93.236328 L 118.23438 93.505859 C 118.19888 93.516529 118.15929 93.515909 118.12891 93.537109 C 118.05491 93.588719 117.99918 93.663683 117.92773 93.71875 C 117.75615 93.850999 117.55364 93.914265 117.37109 94.029297 C 117.42059 93.962317 117.59756 93.798978 117.51953 93.828125 C 117.30605 93.907865 117.14225 94.083732 116.94141 94.191406 C 116.88091 94.223816 116.40044 94.150619 116.34961 94.193359 C 116.02323 94.196759 115.69872 94.193042 115.37305 94.169922 C 115.33275 94.170236 115.18831 94.166387 115.13086 94.179688 C 115.05076 94.198206 114.97418 94.235684 114.89258 94.246094 C 114.45833 94.301474 114.11724 94.17783 113.79492 93.882812 C 113.62705 93.676975 113.60953 93.670143 113.46875 93.445312 C 113.44245 93.403342 113.42874 93.353602 113.39844 93.314453 C 113.29894 93.186002 113.17611 93.076359 113.08008 92.945312 C 113.00938 92.848833 112.96083 92.737982 112.90039 92.634766 L 112.55273 92.167969 C 112.42879 91.975717 112.29631 91.789713 112.18164 91.591797 C 111.94604 91.185178 111.83855 90.891196 111.63086 90.474609 C 111.59224 90.397142 111.55685 90.319304 111.51758 90.242188 C 110.85874 89.936659 110.55794 89.79161 109.79102 89.466797 C 109.51348 89.349251 109.23852 89.221914 108.95312 89.125 C 108.74246 89.05346 108.52347 89.012782 108.30664 88.962891 C 107.69671 88.822543 107.32209 88.77002 106.66992 88.658203 C 105.97339 88.581693 105.52355 88.522002 104.81641 88.482422 C 104.52589 88.466162 104.2333 88.481541 103.94336 88.457031 C 103.65475 88.432621 103.3712 88.373259 103.08398 88.335938 C 102.19855 88.220898 102.40411 88.246356 101.5918 88.197266 C 100.13249 88.247096 98.673204 88.276349 97.212891 88.261719 C 95.963749 88.246319 94.71598 88.255612 93.466797 88.257812 C 93.171087 88.258033 92.873835 88.256258 92.578125 88.255859 C 92.515245 88.255774 92.45295 88.264228 92.390625 88.255859 C 92.12055 88.219609 91.974253 88.173461 91.728516 88.107422 C 91.35461 87.980282 90.957829 87.95989 90.742188 87.541016 C 90.640068 87.342652 90.680211 87.098062 90.675781 86.875 C 90.752611 87.200414 90.721117 87.387081 91.269531 87.386719 C 91.426577 87.386615 91.53932 87.225593 91.673828 87.144531 C 91.789411 87.074874 91.835608 87.028927 91.863281 86.988281 C 91.852817 86.946836 91.838182 86.909099 91.814453 86.876953 C 91.424167 86.782984 89.841748 87.06607 90.587891 86.5 C 90.745022 86.38079 90.862799 86.166368 91.058594 86.142578 z M 113.10352 87.777344 C 113.08332 87.773744 113.13615 87.806447 113.15625 87.810547 C 113.16262 87.811842 113.16934 87.809845 113.17578 87.810547 C 113.15008 87.800818 113.12473 87.781144 113.10352 87.777344 z M 113.21094 87.828125 C 113.16665 87.84349 113.2976 87.80036 112.9043 87.888672 C 112.872 87.895872 112.99831 87.852146 113.00391 87.884766 C 113.00829 87.91048 112.90038 87.939682 112.78711 87.964844 C 112.73175 88.133625 112.47295 88.391757 112.40234 88.484375 C 112.39722 88.491089 112.39611 88.50017 112.39258 88.507812 C 112.39224 88.516323 112.39504 88.516504 112.39453 88.525391 C 112.37857 88.803958 112.38195 88.904557 112.28125 88.939453 C 112.33663 89.070347 112.40501 89.193675 112.4707 89.324219 C 112.62357 89.418464 112.73749 89.519314 112.80664 89.626953 C 113.11934 89.368375 113.62506 89.321787 113.89453 89.898438 C 113.91341 89.938868 114.29518 90.4577 114.51758 90.861328 C 114.67102 90.799876 114.69184 90.794867 114.52344 90.871094 C 114.64046 91.085192 114.7238 91.273425 114.65234 91.318359 C 114.3649 91.499126 114.00636 91.506736 113.66211 91.546875 L 113.91211 91.880859 C 113.99631 92.019658 114.06921 92.165092 114.16406 92.296875 C 114.21176 92.363185 114.2856 92.406352 114.33594 92.470703 C 114.48958 92.667117 114.59933 92.886092 114.76367 93.074219 C 114.77867 93.071819 114.80139 93.079706 114.80859 93.066406 C 114.83139 93.024196 114.73302 92.998051 114.72852 92.994141 C 114.72352 92.990241 114.73493 92.981899 114.74023 92.980469 C 114.82603 92.959309 114.91232 92.938474 115 92.927734 C 115.10589 92.914764 115.21187 92.914533 115.31836 92.908203 C 115.65813 92.925253 115.9958 92.933207 116.33594 92.929688 C 116.46855 92.928213 116.60174 92.927732 116.73438 92.927734 C 116.81202 92.900259 116.8957 92.876092 116.95508 92.837891 C 117.06787 92.737991 116.9403 92.843211 117.1875 92.705078 C 117.32059 92.630688 117.11774 92.720276 117.24414 92.634766 C 117.63306 92.371667 117.62751 92.390643 117.67578 92.349609 C 117.67281 92.32555 117.68359 92.277638 117.68359 92.248047 C 117.68559 92.09988 117.68403 91.952813 117.68359 91.804688 C 117.68341 91.720067 117.69413 91.634741 117.68359 91.550781 C 117.67019 91.444027 117.56976 91.374386 117.51758 91.292969 C 117.33909 91.014444 117.22023 90.749688 116.98438 90.517578 C 116.90178 90.424498 116.81166 90.33733 116.73633 90.238281 C 116.66163 90.140071 116.60743 90.029125 116.53711 89.927734 C 116.37873 89.699359 116.19656 89.496033 115.98047 89.322266 C 115.92197 89.285666 115.86626 89.244107 115.80469 89.212891 C 115.70639 89.163041 115.52689 89.134029 115.43555 89.103516 C 115.17326 89.015896 114.96871 88.925459 114.73242 88.787109 C 114.68172 88.750449 114.6369 88.702012 114.58008 88.675781 C 114.56628 88.669381 114.55256 88.690246 114.53906 88.697266 C 114.41355 88.622826 114.27891 88.56207 114.16211 88.474609 C 114.01588 88.365123 113.89686 88.218205 113.74805 88.107422 C 113.70235 88.068652 113.6631 88.020422 113.61133 87.990234 C 113.58163 87.972924 113.54318 87.98259 113.51172 87.96875 C 113.45774 87.944918 113.3236 87.87728 113.21094 87.828125 z M 114.52344 90.871094 C 114.52165 90.867819 114.51939 90.86462 114.51758 90.861328 C 114.4796 90.876538 114.54896 90.845977 114.48242 90.873047 C 114.14856 91.008879 113.78116 91.083917 113.47461 91.269531 C 113.49377 91.297573 113.51009 91.327451 113.5293 91.355469 C 113.85496 91.1818 114.26454 90.988282 114.52344 90.871094 z M 112.71289 87.982422 C 112.55657 88.014718 112.43064 88.036424 112.61523 88.027344 C 112.64582 88.067138 112.68119 88.02927 112.71289 87.982422 z M 117.77734 92.205078 C 117.75624 92.228973 117.74782 92.264845 117.73633 92.296875 C 117.75869 92.276389 117.74162 92.293729 117.78125 92.257812 C 117.78025 92.240223 117.78834 92.191858 117.77734 92.205078 z "
       transform="translate(0,882.28346)"
       id="path9578" />
    <path
       style="opacity:0;fill:#00ff00;fill-opacity:1;fill-rule:evenodd;stroke:#ff0000;stroke-width:0.50507629;stroke-linejoin:miter;stroke-miterlimit:4;stroke-dasharray:none;stroke-opacity:1"
       d="M -144.49023 -3.3222656 L -144.49023 127.87109 L -144.49023 259.06445 L 137.2168 259.06445 L 418.92188 259.06445 L 418.92188 127.87109 L 418.92188 -3.3222656 L 137.2168 -3.3222656 L -144.49023 -3.3222656 z M 91.058594 86.142578 C 91.725059 86.061598 91.743703 86.394952 91.935547 86.8125 C 91.935832 86.835999 91.936848 86.85931 91.9375 86.882812 C 92.008518 86.919362 92.064036 86.937279 92.056641 86.888672 C 92.128401 86.908142 92.2005 86.925136 92.271484 86.947266 C 92.312154 86.959946 92.34849 86.987851 92.390625 86.994141 C 92.453165 87.003441 92.518795 86.994055 92.582031 86.994141 C 92.87626 86.994538 93.168661 86.994393 93.462891 86.994141 C 94.717053 86.991941 95.972443 86.98449 97.226562 87 C 97.953024 87.0073 98.677863 87.013967 99.404297 86.998047 C 99.68928 86.991747 99.97483 86.980956 100.25977 86.972656 C 100.49518 86.962956 100.73126 86.949179 100.9668 86.943359 C 101.20129 86.937559 101.43537 86.9394 101.66992 86.9375 C 102.50483 86.9904 102.38259 86.96999 103.26367 87.087891 C 103.50353 87.119981 103.74126 87.17524 103.98242 87.195312 C 104.29305 87.221163 104.60481 87.206949 104.91602 87.224609 C 105.68018 87.267969 106.12714 87.329213 106.88281 87.414062 C 107.72826 87.559716 108.61287 87.67705 109.42969 87.955078 C 109.72519 88.055661 110.00948 88.18676 110.29688 88.308594 C 110.56546 88.422456 110.69079 88.489566 110.86523 88.566406 C 110.8434 88.447983 110.81383 88.332689 110.80664 88.208984 C 110.75543 87.32755 111.28624 87.013316 111.68359 87.330078 C 111.70631 87.272787 111.72077 87.210554 111.75586 87.160156 C 111.82946 87.054416 111.94754 86.986953 112.04297 86.900391 L 112.35547 86.779297 C 112.33877 86.795437 112.28384 86.832975 112.30664 86.828125 C 112.34864 86.819225 112.37843 86.784298 112.41797 86.767578 C 112.77176 86.617897 112.68191 86.676143 112.92383 86.603516 C 113.03019 86.585796 113.13436 86.551351 113.24219 86.550781 C 113.61354 86.548881 114.22718 86.881314 114.50781 87.097656 C 114.60919 87.174616 114.71848 87.254515 114.80859 87.34375 C 114.85259 87.38734 114.86261 87.466436 114.91797 87.494141 C 115.04675 87.558531 115.19059 87.591826 115.32031 87.654297 C 115.37091 87.678637 115.4116 87.719053 115.45703 87.751953 C 115.32795 87.729883 115.41509 87.741514 115.58984 87.808594 C 115.65504 87.833604 115.71709 87.866292 115.7832 87.888672 C 116.14933 88.012624 116.16394 87.9719 116.49414 88.15625 C 116.5957 88.21295 116.68849 88.284935 116.78516 88.349609 C 117.00256 88.532131 117.19953 88.721842 117.37695 88.945312 C 117.46025 89.050297 117.53601 89.1614 117.61523 89.269531 C 117.63773 89.312861 117.65214 89.361561 117.68164 89.400391 C 117.75044 89.490731 117.83293 89.571227 117.9082 89.65625 C 117.9979 89.756401 118.09535 89.848838 118.17773 89.955078 C 118.30335 90.1171 118.51176 90.479953 118.60547 90.650391 C 118.69457 90.812473 118.79772 90.967668 118.86328 91.140625 C 118.96078 91.39783 118.94481 91.549384 118.94531 91.798828 C 118.94631 92.150914 118.98517 92.555951 118.8418 92.886719 C 118.784 93.020113 118.66893 93.119781 118.58203 93.236328 L 118.23438 93.505859 C 118.19888 93.516529 118.15929 93.515909 118.12891 93.537109 C 118.05491 93.588719 117.99918 93.663683 117.92773 93.71875 C 117.75615 93.850999 117.55364 93.914265 117.37109 94.029297 C 117.42059 93.962317 117.59756 93.798978 117.51953 93.828125 C 117.30605 93.907865 117.14225 94.083732 116.94141 94.191406 C 116.88091 94.223816 116.40044 94.150619 116.34961 94.193359 C 116.02323 94.196759 115.69872 94.193042 115.37305 94.169922 C 115.33275 94.170236 115.18831 94.166387 115.13086 94.179688 C 115.05076 94.198206 114.97418 94.235684 114.89258 94.246094 C 114.45833 94.301474 114.11724 94.17783 113.79492 93.882812 C 113.62705 93.676975 113.60953 93.670143 113.46875 93.445312 C 113.44245 93.403342 113.42874 93.353602 113.39844 93.314453 C 113.29894 93.186002 113.17611 93.076359 113.08008 92.945312 C 113.00938 92.848833 112.96083 92.737982 112.90039 92.634766 L 112.55273 92.167969 C 112.42879 91.975717 112.29631 91.789713 112.18164 91.591797 C 111.94604 91.185178 111.83855 90.891196 111.63086 90.474609 C 111.59224 90.397142 111.55685 90.319304 111.51758 90.242188 C 110.85874 89.936659 110.55794 89.79161 109.79102 89.466797 C 109.51348 89.349251 109.23852 89.221914 108.95312 89.125 C 108.74246 89.05346 108.52347 89.012782 108.30664 88.962891 C 107.69671 88.822543 107.32209 88.77002 106.66992 88.658203 C 105.97339 88.581693 105.52355 88.522002 104.81641 88.482422 C 104.52589 88.466162 104.2333 88.481541 103.94336 88.457031 C 103.65475 88.432621 103.3712 88.373259 103.08398 88.335938 C 102.19855 88.220898 102.40411 88.246356 101.5918 88.197266 C 100.13249 88.247096 98.673204 88.276349 97.212891 88.261719 C 95.963749 88.246319 94.71598 88.255612 93.466797 88.257812 C 93.171087 88.258033 92.873835 88.256258 92.578125 88.255859 C 92.515245 88.255774 92.45295 88.264228 92.390625 88.255859 C 92.12055 88.219609 91.974253 88.173461 91.728516 88.107422 C 91.35461 87.980282 90.957829 87.95989 90.742188 87.541016 C 90.640068 87.342652 90.680211 87.098062 90.675781 86.875 C 90.752611 87.200414 90.721117 87.387081 91.269531 87.386719 C 91.426577 87.386615 91.53932 87.225593 91.673828 87.144531 C 91.789411 87.074874 91.835608 87.028927 91.863281 86.988281 C 91.852817 86.946836 91.838182 86.909099 91.814453 86.876953 C 91.424167 86.782984 89.841748 87.06607 90.587891 86.5 C 90.745022 86.38079 90.862799 86.166368 91.058594 86.142578 z M 113.10352 87.777344 C 113.08332 87.773744 113.13615 87.806447 113.15625 87.810547 C 113.16262 87.811842 113.16934 87.809845 113.17578 87.810547 C 113.15008 87.800818 113.12473 87.781144 113.10352 87.777344 z M 113.21094 87.828125 C 113.16665 87.84349 113.2976 87.80036 112.9043 87.888672 C 112.872 87.895872 112.99831 87.852146 113.00391 87.884766 C 113.00829 87.91048 112.90038 87.939682 112.78711 87.964844 C 112.73175 88.133625 112.47295 88.391757 112.40234 88.484375 C 112.39722 88.491089 112.39611 88.50017 112.39258 88.507812 C 112.39224 88.516323 112.39504 88.516504 112.39453 88.525391 C 112.37857 88.803958 112.38195 88.904557 112.28125 88.939453 C 112.33663 89.070347 112.40501 89.193675 112.4707 89.324219 C 112.62357 89.418464 112.73749 89.519314 112.80664 89.626953 C 113.11934 89.368375 113.62506 89.321787 113.89453 89.898438 C 113.91341 89.938868 114.29518 90.4577 114.51758 90.861328 C 114.67102 90.799876 114.69184 90.794867 114.52344 90.871094 C 114.64046 91.085192 114.7238 91.273425 114.65234 91.318359 C 114.3649 91.499126 114.00636 91.506736 113.66211 91.546875 L 113.91211 91.880859 C 113.99631 92.019658 114.06921 92.165092 114.16406 92.296875 C 114.21176 92.363185 114.2856 92.406352 114.33594 92.470703 C 114.48958 92.667117 114.59933 92.886092 114.76367 93.074219 C 114.77867 93.071819 114.80139 93.079706 114.80859 93.066406 C 114.83139 93.024196 114.73302 92.998051 114.72852 92.994141 C 114.72352 92.990241 114.73493 92.981899 114.74023 92.980469 C 114.82603 92.959309 114.91232 92.938474 115 92.927734 C 115.10589 92.914764 115.21187 92.914533 115.31836 92.908203 C 115.65813 92.925253 115.9958 92.933207 116.33594 92.929688 C 116.46855 92.928213 116.60174 92.927732 116.73438 92.927734 C 116.81202 92.900259 116.8957 92.876092 116.95508 92.837891 C 117.06787 92.737991 116.9403 92.843211 117.1875 92.705078 C 117.32059 92.630688 117.11774 92.720276 117.24414 92.634766 C 117.63306 92.371667 117.62751 92.390643 117.67578 92.349609 C 117.67281 92.32555 117.68359 92.277638 117.68359 92.248047 C 117.68559 92.09988 117.68403 91.952813 117.68359 91.804688 C 117.68341 91.720067 117.69413 91.634741 117.68359 91.550781 C 117.67019 91.444027 117.56976 91.374386 117.51758 91.292969 C 117.33909 91.014444 117.22023 90.749688 116.98438 90.517578 C 116.90178 90.424498 116.81166 90.33733 116.73633 90.238281 C 116.66163 90.140071 116.60743 90.029125 116.53711 89.927734 C 116.37873 89.699359 116.19656 89.496033 115.98047 89.322266 C 115.92197 89.285666 115.86626 89.244107 115.80469 89.212891 C 115.70639 89.163041 115.52689 89.134029 115.43555 89.103516 C 115.17326 89.015896 114.96871 88.925459 114.73242 88.787109 C 114.68172 88.750449 114.6369 88.702012 114.58008 88.675781 C 114.56628 88.669381 114.55256 88.690246 114.53906 88.697266 C 114.41355 88.622826 114.27891 88.56207 114.16211 88.474609 C 114.01588 88.365123 113.89686 88.218205 113.74805 88.107422 C 113.70235 88.068652 113.6631 88.020422 113.61133 87.990234 C 113.58163 87.972924 113.54318 87.98259 113.51172 87.96875 C 113.45774 87.944918 113.3236 87.87728 113.21094 87.828125 z M 114.52344 90.871094 C 114.52165 90.867819 114.51939 90.86462 114.51758 90.861328 C 114.4796 90.876538 114.54896 90.845977 114.48242 90.873047 C 114.14856 91.008879 113.78116 91.083917 113.47461 91.269531 C 113.49377 91.297573 113.51009 91.327451 113.5293 91.355469 C 113.85496 91.1818 114.26454 90.988282 114.52344 90.871094 z M 112.71289 87.982422 C 112.55657 88.014718 112.43064 88.036424 112.61523 88.027344 C 112.64582 88.067138 112.68119 88.02927 112.71289 87.982422 z M 117.77734 92.205078 C 117.75624 92.228973 117.74782 92.264845 117.73633 92.296875 C 117.75869 92.276389 117.74162 92.293729 117.78125 92.257812 C 117.78025 92.240223 117.78834 92.191858 117.77734 92.205078 z "
       transform="translate(0,882.28346)"
       id="path9580" />
    <path
       style="opacity:0;fill:#00ff00;fill-opacity:1;fill-rule:evenodd;stroke:#ff0000;stroke-width:1.01015258;stroke-linejoin:miter;stroke-miterlimit:4;stroke-dasharray:none;stroke-opacity:1"
       d="M -296.89844 -157.7793 L -296.89844 105.11328 L -296.89844 368.00586 L 266.51367 368.00586 L 829.92578 368.00586 L 829.92578 105.11328 L 829.92578 -157.7793 L 266.51367 -157.7793 L -296.89844 -157.7793 z M 91.058594 86.142578 C 91.725059 86.061598 91.743703 86.394952 91.935547 86.8125 C 91.935832 86.835999 91.936848 86.85931 91.9375 86.882812 C 92.008518 86.919362 92.064036 86.937279 92.056641 86.888672 C 92.128401 86.908142 92.2005 86.925136 92.271484 86.947266 C 92.312154 86.959946 92.34849 86.987851 92.390625 86.994141 C 92.453165 87.003441 92.518795 86.994055 92.582031 86.994141 C 92.87626 86.994538 93.168661 86.994393 93.462891 86.994141 C 94.717053 86.991941 95.972443 86.98449 97.226562 87 C 97.953024 87.0073 98.677863 87.013967 99.404297 86.998047 C 99.68928 86.991747 99.97483 86.980956 100.25977 86.972656 C 100.49518 86.962956 100.73126 86.949179 100.9668 86.943359 C 101.20129 86.937559 101.43537 86.9394 101.66992 86.9375 C 102.50483 86.9904 102.38259 86.96999 103.26367 87.087891 C 103.50353 87.119981 103.74126 87.17524 103.98242 87.195312 C 104.29305 87.221163 104.60481 87.206949 104.91602 87.224609 C 105.68018 87.267969 106.12714 87.329213 106.88281 87.414062 C 107.72826 87.559716 108.61287 87.67705 109.42969 87.955078 C 109.72519 88.055661 110.00948 88.18676 110.29688 88.308594 C 110.56546 88.422456 110.69079 88.489566 110.86523 88.566406 C 110.8434 88.447983 110.81383 88.332689 110.80664 88.208984 C 110.75543 87.32755 111.28624 87.013316 111.68359 87.330078 C 111.70631 87.272787 111.72077 87.210554 111.75586 87.160156 C 111.82946 87.054416 111.94754 86.986953 112.04297 86.900391 L 112.35547 86.779297 C 112.33877 86.795437 112.28384 86.832975 112.30664 86.828125 C 112.34864 86.819225 112.37843 86.784298 112.41797 86.767578 C 112.77176 86.617897 112.68191 86.676143 112.92383 86.603516 C 113.03019 86.585796 113.13436 86.551351 113.24219 86.550781 C 113.61354 86.548881 114.22718 86.881314 114.50781 87.097656 C 114.60919 87.174616 114.71848 87.254515 114.80859 87.34375 C 114.85259 87.38734 114.86261 87.466436 114.91797 87.494141 C 115.04675 87.558531 115.19059 87.591826 115.32031 87.654297 C 115.37091 87.678637 115.4116 87.719053 115.45703 87.751953 C 115.32795 87.729883 115.41509 87.741514 115.58984 87.808594 C 115.65504 87.833604 115.71709 87.866292 115.7832 87.888672 C 116.14933 88.012624 116.16394 87.9719 116.49414 88.15625 C 116.5957 88.21295 116.68849 88.284935 116.78516 88.349609 C 117.00256 88.532131 117.19953 88.721842 117.37695 88.945312 C 117.46025 89.050297 117.53601 89.1614 117.61523 89.269531 C 117.63773 89.312861 117.65214 89.361561 117.68164 89.400391 C 117.75044 89.490731 117.83293 89.571227 117.9082 89.65625 C 117.9979 89.756401 118.09535 89.848838 118.17773 89.955078 C 118.30335 90.1171 118.51176 90.479953 118.60547 90.650391 C 118.69457 90.812473 118.79772 90.967668 118.86328 91.140625 C 118.96078 91.39783 118.94481 91.549384 118.94531 91.798828 C 118.94631 92.150914 118.98517 92.555951 118.8418 92.886719 C 118.784 93.020113 118.66893 93.119781 118.58203 93.236328 L 118.23438 93.505859 C 118.19888 93.516529 118.15929 93.515909 118.12891 93.537109 C 118.05491 93.588719 117.99918 93.663683 117.92773 93.71875 C 117.75615 93.850999 117.55364 93.914265 117.37109 94.029297 C 117.42059 93.962317 117.59756 93.798978 117.51953 93.828125 C 117.30605 93.907865 117.14225 94.083732 116.94141 94.191406 C 116.88091 94.223816 116.40044 94.150619 116.34961 94.193359 C 116.02323 94.196759 115.69872 94.193042 115.37305 94.169922 C 115.33275 94.170236 115.18831 94.166387 115.13086 94.179688 C 115.05076 94.198206 114.97418 94.235684 114.89258 94.246094 C 114.45833 94.301474 114.11724 94.17783 113.79492 93.882812 C 113.62705 93.676975 113.60953 93.670143 113.46875 93.445312 C 113.44245 93.403342 113.42874 93.353602 113.39844 93.314453 C 113.29894 93.186002 113.17611 93.076359 113.08008 92.945312 C 113.00938 92.848833 112.96083 92.737982 112.90039 92.634766 L 112.55273 92.167969 C 112.42879 91.975717 112.29631 91.789713 112.18164 91.591797 C 111.94604 91.185178 111.83855 90.891196 111.63086 90.474609 C 111.59224 90.397142 111.55685 90.319304 111.51758 90.242188 C 110.85874 89.936659 110.55794 89.79161 109.79102 89.466797 C 109.51348 89.349251 109.23852 89.221914 108.95312 89.125 C 108.74246 89.05346 108.52347 89.012782 108.30664 88.962891 C 107.69671 88.822543 107.32209 88.77002 106.66992 88.658203 C 105.97339 88.581693 105.52355 88.522002 104.81641 88.482422 C 104.52589 88.466162 104.2333 88.481541 103.94336 88.457031 C 103.65475 88.432621 103.3712 88.373259 103.08398 88.335938 C 102.19855 88.220898 102.40411 88.246356 101.5918 88.197266 C 100.13249 88.247096 98.673204 88.276349 97.212891 88.261719 C 95.963749 88.246319 94.71598 88.255612 93.466797 88.257812 C 93.171087 88.258033 92.873835 88.256258 92.578125 88.255859 C 92.515245 88.255774 92.45295 88.264228 92.390625 88.255859 C 92.12055 88.219609 91.974253 88.173461 91.728516 88.107422 C 91.35461 87.980282 90.957829 87.95989 90.742188 87.541016 C 90.640068 87.342652 90.680211 87.098062 90.675781 86.875 C 90.752611 87.200414 90.721117 87.387081 91.269531 87.386719 C 91.426577 87.386615 91.53932 87.225593 91.673828 87.144531 C 91.789411 87.074874 91.835608 87.028927 91.863281 86.988281 C 91.852817 86.946836 91.838182 86.909099 91.814453 86.876953 C 91.424167 86.782984 89.841748 87.06607 90.587891 86.5 C 90.745022 86.38079 90.862799 86.166368 91.058594 86.142578 z M 113.10352 87.777344 C 113.08332 87.773744 113.13615 87.806447 113.15625 87.810547 C 113.16262 87.811842 113.16934 87.809845 113.17578 87.810547 C 113.15008 87.800818 113.12473 87.781144 113.10352 87.777344 z M 113.21094 87.828125 C 113.16665 87.84349 113.2976 87.80036 112.9043 87.888672 C 112.872 87.895872 112.99831 87.852146 113.00391 87.884766 C 113.00829 87.91048 112.90038 87.939682 112.78711 87.964844 C 112.73175 88.133625 112.47295 88.391757 112.40234 88.484375 C 112.39722 88.491089 112.39611 88.50017 112.39258 88.507812 C 112.39224 88.516323 112.39504 88.516504 112.39453 88.525391 C 112.37857 88.803958 112.38195 88.904557 112.28125 88.939453 C 112.33663 89.070347 112.40501 89.193675 112.4707 89.324219 C 112.62357 89.418464 112.73749 89.519314 112.80664 89.626953 C 113.11934 89.368375 113.62506 89.321787 113.89453 89.898438 C 113.91341 89.938868 114.29518 90.4577 114.51758 90.861328 C 114.67102 90.799876 114.69184 90.794867 114.52344 90.871094 C 114.64046 91.085192 114.7238 91.273425 114.65234 91.318359 C 114.3649 91.499126 114.00636 91.506736 113.66211 91.546875 L 113.91211 91.880859 C 113.99631 92.019658 114.06921 92.165092 114.16406 92.296875 C 114.21176 92.363185 114.2856 92.406352 114.33594 92.470703 C 114.48958 92.667117 114.59933 92.886092 114.76367 93.074219 C 114.77867 93.071819 114.80139 93.079706 114.80859 93.066406 C 114.83139 93.024196 114.73302 92.998051 114.72852 92.994141 C 114.72352 92.990241 114.73493 92.981899 114.74023 92.980469 C 114.82603 92.959309 114.91232 92.938474 115 92.927734 C 115.10589 92.914764 115.21187 92.914533 115.31836 92.908203 C 115.65813 92.925253 115.9958 92.933207 116.33594 92.929688 C 116.46855 92.928213 116.60174 92.927732 116.73438 92.927734 C 116.81202 92.900259 116.8957 92.876092 116.95508 92.837891 C 117.06787 92.737991 116.9403 92.843211 117.1875 92.705078 C 117.32059 92.630688 117.11774 92.720276 117.24414 92.634766 C 117.63306 92.371667 117.62751 92.390643 117.67578 92.349609 C 117.67281 92.32555 117.68359 92.277638 117.68359 92.248047 C 117.68559 92.09988 117.68403 91.952813 117.68359 91.804688 C 117.68341 91.720067 117.69413 91.634741 117.68359 91.550781 C 117.67019 91.444027 117.56976 91.374386 117.51758 91.292969 C 117.33909 91.014444 117.22023 90.749688 116.98438 90.517578 C 116.90178 90.424498 116.81166 90.33733 116.73633 90.238281 C 116.66163 90.140071 116.60743 90.029125 116.53711 89.927734 C 116.37873 89.699359 116.19656 89.496033 115.98047 89.322266 C 115.92197 89.285666 115.86626 89.244107 115.80469 89.212891 C 115.70639 89.163041 115.52689 89.134029 115.43555 89.103516 C 115.17326 89.015896 114.96871 88.925459 114.73242 88.787109 C 114.68172 88.750449 114.6369 88.702012 114.58008 88.675781 C 114.56628 88.669381 114.55256 88.690246 114.53906 88.697266 C 114.41355 88.622826 114.27891 88.56207 114.16211 88.474609 C 114.01588 88.365123 113.89686 88.218205 113.74805 88.107422 C 113.70235 88.068652 113.6631 88.020422 113.61133 87.990234 C 113.58163 87.972924 113.54318 87.98259 113.51172 87.96875 C 113.45774 87.944918 113.3236 87.87728 113.21094 87.828125 z M 114.52344 90.871094 C 114.52165 90.867819 114.51939 90.86462 114.51758 90.861328 C 114.4796 90.876538 114.54896 90.845977 114.48242 90.873047 C 114.14856 91.008879 113.78116 91.083917 113.47461 91.269531 C 113.49377 91.297573 113.51009 91.327451 113.5293 91.355469 C 113.85496 91.1818 114.26454 90.988282 114.52344 90.871094 z M 112.71289 87.982422 C 112.55657 88.014718 112.43064 88.036424 112.61523 88.027344 C 112.64582 88.067138 112.68119 88.02927 112.71289 87.982422 z M 117.77734 92.205078 C 117.75624 92.228973 117.74782 92.264845 117.73633 92.296875 C 117.75869 92.276389 117.74162 92.293729 117.78125 92.257812 C 117.78025 92.240223 117.78834 92.191858 117.77734 92.205078 z "
       transform="translate(0,882.28346)"
       id="path9584" />
    <path
       style="fill:#ffffff;fill-rule:evenodd;stroke:#000000;stroke-width:1px;stroke-linecap:butt;stroke-linejoin:miter;stroke-opacity:1"
       d="m 45,1007.3622 c -0.01607,-0.1523 -0.2005,-0.4408 -0.04821,-0.4569 0.152289,-0.016 0.03214,0.3046 0.04821,0.4569 -0.184429,-0.6574 -0.428745,-1.3008 -0.553288,-1.9721 -0.06142,-0.3311 0,-0.6734 0,-1.0102 0,-0.8417 0,-1.6835 0,-2.5253 0,-2.18869 0,-4.37736 0,-6.56602 0,-0.84179 0,-1.68359 0,-2.52538 0,-0.16836 -0.119047,-0.38603 0,-0.50508 0.266199,-0.2662 0.743954,-0.23887 1.010153,-0.50507 0.238095,-0.2381 -0.150585,-0.70899 0,-1.01016 0.106479,-0.21295 0.447329,-0.27409 0.505076,-0.50507 0.03149,-0.12598 -0.114742,-2.80098 0,-3.03046 0.106479,-0.21296 0.398597,-0.29212 0.505076,-0.50508 0.07529,-0.15058 -0.150584,-0.42978 0,-0.50507 0.30117,-0.15059 0.729987,0.18678 1.010153,0 0.313235,-0.20883 0.238878,-0.74396 0.505076,-1.01015 0.119048,-0.11905 0.386029,0.11904 0.505076,0 0.119048,-0.11905 -0.119047,-0.38603 0,-0.50508 0.119048,-0.11905 0.386029,0.11905 0.505077,0 0.119047,-0.11905 -0.119048,-0.38603 0,-0.50508 0.119047,-0.11904 0.354491,0.0753 0.505076,0 0.212959,-0.10648 0.292117,-0.39859 0.505076,-0.50507 0.30117,-0.15059 0.772058,0.23809 1.010153,0 0.119047,-0.11905 -0.150585,-0.42979 0,-0.50508 0.301169,-0.15058 0.673435,0 1.010152,0 0.336718,0 0.673435,0 1.010153,0 1.34687,0 -0.168359,0.16836 0.505076,-0.50508 0.119048,-0.11904 0.336718,0 0.505076,0 0.505077,0 1.036072,0.15972 1.515229,0 0.159719,-0.0532 -0.150584,-0.42978 0,-0.50507 0.30117,-0.15059 0.729987,0.18678 1.010153,0 0.313235,-0.20883 0.168359,-0.8418 0.505076,-1.01016 0.602339,-0.30116 1.34687,0 2.020305,0 5.033842,0 0.562848,0.4762 2.525382,-0.50507 0.247511,-0.12376 2.734161,0.0741 3.030457,0 0.230986,-0.0578 0.292118,-0.3986 0.505076,-0.50508 0.150585,-0.0753 0.336718,0 0.505077,0 0.505076,0 1.010152,0 1.515229,0 0.336717,0 0.690714,0.10648 1.010152,0 0.225877,-0.0753 0.292118,-0.39859 0.505076,-0.50507 0.328149,-0.16408 2.702309,0.16407 3.030458,0 0.212959,-0.10648 0.292117,-0.3986 0.505076,-0.50508 0.3212,-0.1606 2.107067,0.13944 2.525382,0 0.225877,-0.0753 0.292117,-0.3986 0.505076,-0.50508 0.29815,-0.14907 2.739252,0.14561 3.030458,0 0.150584,-0.0753 -0.119048,-0.38603 0,-0.50507 0.157585,-0.15759 2.367144,0.15823 2.525381,0 0.238095,-0.2381 -0.238095,-0.77206 0,-1.01016 0.23517,-0.23517 1.598917,0.2107 2.020305,0 0.150585,-0.0753 -0.159719,-0.45183 0,-0.50507 0.505076,0 1.010153,0 1.515229,0 0,-0.16836 -0.150585,-0.42979 0,-0.50508 0.330448,-0.16522 2.106478,0.10473 2.525381,0 0.365222,-0.0913 0.641002,-0.43124 1.010153,-0.50507 0.495268,-0.099 1.036071,0.15972 1.515229,0 0.159719,-0.0532 -0.150585,-0.42979 0,-0.50508 0.301169,-0.15059 0.690714,0.10648 1.010152,0 0.225877,-0.0753 0.292118,-0.3986 0.505076,-0.50508 0.150585,-0.0753 0.345358,0.0532 0.505077,0 0.357143,-0.11904 0.653009,-0.38603 1.010152,-0.50507 0.319439,-0.10648 0.772058,0.23809 1.010153,0 0.266198,-0.2662 0.238878,-0.74396 0.505076,-1.01016 0.238095,-0.23809 0.708983,0.15059 1.010153,0 0.212959,-0.10647 0.292117,-0.39859 0.505076,-0.50507 0.150585,-0.0753 0.336717,0 0.505076,0 0.336718,0 0.708983,0.15058 1.010153,0 0.150584,-0.0753 -0.119048,-0.38603 0,-0.50508 0.238095,-0.23809 0.772057,0.2381 1.010152,0 0.119048,-0.11905 -0.119047,-0.38603 0,-0.50507 0.02032,-0.0203 1.834823,0 2.020303,0 2.35703,0 4.71405,0 7.07107,0 0.59361,0 2.57392,-0.11414 3.03046,0 0.5165,0.12912 0.99873,0.37595 1.51523,0.50507 0.34372,0.0859 1.23901,-0.13811 1.51523,0 0.21295,0.10648 0.29211,0.3986 0.50507,0.50508 0.15059,0.0753 0.67344,0 0.50508,0 -0.73533,0 -2.41361,0.10281 -3.03046,0 -0.52515,-0.0875 -0.98283,-0.50508 -1.51523,-0.50508 -0.16836,0 -0.15058,0.42979 0,0.50508 0.30117,0.15058 0.69072,-0.10648 1.01015,0 0.86222,0.2874 0.33672,0.50507 0.50508,1.01015 0.11905,0.35714 0.38603,0.65301 0.50508,1.01015 0.13551,0.40654 -0.16138,1.69755 0,2.02031 0.10648,0.21296 0.44733,0.27409 0.50507,0.50507 0,3.58237 -0.35714,0.29587 0.50508,2.02031 0.16138,0.32275 -0.13551,1.61377 0,2.0203 0.58037,1.74111 0.50508,0.37415 0.50508,1.51523 0,0.26412 -0.0664,1.8875 0,2.02031 0.10648,0.21296 0.39859,0.29212 0.50507,0.50508 0.15643,0.31285 -0.14944,1.87086 0,2.0203 0.61518,0.61518 1.12845,0.23659 1.51523,1.01015 0.13391,0.26781 -0.11453,2.18178 0,2.52538 0.15059,0.45176 1.01015,0.53397 1.01015,1.01016 0,0.67343 -1.17851,-0.8418 -0.50507,0.50507 0.10648,0.21296 0.39859,0.29212 0.50507,0.50508 0.0566,0.1132 0,1.90028 0,2.0203 0,0.26412 0.0664,1.8875 0,2.02031 -0.10648,0.21296 -0.39859,0.29212 -0.50507,0.50508 -0.15873,0.31745 0.15872,1.70285 0,2.0203 -1.05101,2.10201 0.0349,-0.53994 -1.01016,0.50508 -0.11904,0.11905 0.15059,0.42973 0,0.50503 -0.40406,0.2021 -1.11116,-0.202 -1.51522,0 -0.21296,0.1065 -0.29212,0.3986 -0.50508,0.5051 -0.30117,0.1506 -0.73607,-0.1956 -1.01015,0 -0.60271,0.4301 -1.08124,1.0119 -1.62186,1.5178"
       id="path9646"
       inkscape:connector-curvature="0" />
    <path
       style="fill:none;fill-rule:evenodd;stroke:#000000;stroke-width:1px;stroke-linecap:butt;stroke-linejoin:miter;stroke-opacity:1"
       d="m 55.352788,905.69468 c 0.910328,-0.43994 1.794792,-0.938 2.730984,-1.31983 0.220128,-0.0898 1.234944,0 1.515228,0 1.341702,0 2.338809,-0.21296 3.535534,0.50508 0.40833,0.24499 0.601823,0.76515 1.010153,1.01015 0.913053,0.54783 2.078077,0.53396 3.030458,1.01015 0.462307,0.23115 0.887117,1.14612 1.010152,1.51523 0.05324,0.15972 -0.119048,0.38603 0,0.50507 0.119048,0.11905 0.354492,-0.0753 0.505076,0 0.212959,0.10648 0.306969,0.37301 0.505077,0.50508 0.461381,0.30759 1.225714,0.43113 1.515228,1.01015 0.238096,0.47619 0.375951,0.99873 0.505077,1.51523 0.04083,0.16333 -0.07529,0.35449 0,0.50508 0.106479,0.21296 0.398597,0.29212 0.505076,0.50507 0.07529,0.15059 -0.04083,0.34175 0,0.50508 0.129125,0.5165 0.266981,1.03904 0.505076,1.51523 0.10648,0.21296 0.398597,0.29212 0.505077,0.50508 0.06529,0.13058 0,2.67245 0,3.03045 0,0.8418 0,1.68359 0,2.52539 0,0.16835 0,0.33671 0,0.50507 0,0.16836 0.07529,0.35449 0,0.50508 -0.10648,0.21296 -0.429784,0.2792 -0.505077,0.50507 -0.106479,0.31944 0.150585,0.70899 0,1.01016 -0.07529,0.15058 -0.386028,-0.11905 -0.505076,0 -0.119048,0.11905 0.119048,0.38603 0,0.50507 -0.238095,0.2381 -0.772057,-0.23809 -1.010153,0 -1.04502,1.04502 1.596931,-0.0408 -0.505076,1.01016 -0.150584,0.0753 -0.386028,-0.11905 -0.505076,0 -0.119048,0.11904 0.150585,0.42978 0,0.50507 -0.301169,0.15059 -0.673435,0 -1.010153,0 -0.168358,0 -0.386028,-0.11905 -0.505076,0 -0.119048,0.11905 0.119048,0.38603 0,0.50508 -0.238095,0.23809 -0.772057,-0.2381 -1.010152,0 -0.119048,0.11905 0.119047,0.38603 0,0.50507 -0.176301,0.17631 -1.410402,-0.20965 -1.515229,0 -0.150585,0.30117 0.238095,0.77206 0,1.01016 -0.238096,0.23809 -0.708984,-0.15059 -1.010153,0 -0.150584,0.0753 0.119048,0.38603 0,0.50507 -0.119047,0.11905 -0.386028,-0.11904 -0.505076,0 -0.119048,0.11905 0.119048,0.38603 0,0.50508 -1.045021,1.04502 0.04085,-1.59693 -1.010153,0.50508 -0.07529,0.15058 0,0.33671 0,0.50507 0,0.16836 0,0.33672 0,0.50508 0,0.43769 -0.09753,1.72773 0,2.0203 1.219493,3.65848 -0.145615,-0.7963 1.010153,1.51523 0.09956,0.19913 0,2.02651 0,2.52538 0,0.16836 -0.119048,0.38603 0,0.50508 0.266198,0.2662 0.743954,0.23888 1.010152,0.50508 4.83e-4,4.8e-4 -7.63e-4,1.51294 0,1.51523 0.07529,0.22587 0.398597,0.29211 0.505077,0.50507 0.07529,0.15059 -0.119048,0.38603 0,0.50508 0.119047,0.11905 0.55616,-0.16042 0.505076,0 -0.127531,0.40049 -0.541469,0.64299 -0.812204,0.96449"
       id="path9660"
       inkscape:connector-curvature="0" />
    <path
       style="fill:none;fill-rule:evenodd;stroke:#000000;stroke-width:1px;stroke-linecap:butt;stroke-linejoin:miter;stroke-opacity:1"
       d="m 95.352788,910.69468 c 0.87734,0.58713 1.75467,1.17426 2.63201,1.76139 0.16836,0 0.35449,-0.0753 0.50508,0 0.21295,0.10648 0.29211,0.3986 0.50507,0.50507 0.8941,0.44705 0.17259,-0.75126 1.010152,0.50508 0.20883,0.31324 0.38603,0.65301 0.50508,1.01015 0.0532,0.15972 -0.11905,0.38603 0,0.50508 0.2662,0.2662 0.69692,0.29625 1.01015,0.50508 1.25635,0.83756 0.058,0.11605 0.50508,1.01015 0.10648,0.21296 0.3986,0.29212 0.50508,0.50508 0.0753,0.15058 -0.0408,0.34174 0,0.50507 0.12912,0.5165 0.37595,0.99873 0.50507,1.51523 0.15846,0.63382 -0.15845,1.38648 0,2.02031 0.12913,0.5165 0.37595,0.99872 0.50508,1.51522 0.0408,0.16334 -0.0753,0.3545 0,0.50508 0.10648,0.21296 0.3986,0.29212 0.50507,0.50508 0.0753,0.15058 0,0.33672 0,0.50507 0,0.16836 0,0.33672 0,0.50508 0,0.84179 0,1.68359 0,2.52538 0,0.16836 0,0.33672 0,0.50508 0,0.16836 0.15059,0.42978 0,0.50507 -0.30116,0.15059 -0.77205,-0.23809 -1.01015,0 -0.12282,0.12283 0.12283,1.39241 0,1.51523 -0.11905,0.11905 -0.38603,-0.11904 -0.50507,0 -1.04503,1.04502 1.59693,-0.0409 -0.50508,1.01015 -0.15059,0.0753 -0.34536,-0.0532 -0.50508,0 -3.658472,1.2195 0.79631,-0.14561 -1.51523,1.01016 -0.301162,0.15058 -0.772052,-0.2381 -1.010152,0 -0.11905,0.11904 0.15059,0.42978 0,0.50507 -0.30117,0.15059 -0.72998,-0.18677 -1.01015,0 -0.31324,0.20883 -0.19184,0.80133 -0.50508,1.01016 -0.28016,0.18677 -0.69071,-0.10648 -1.01015,0 -0.22588,0.0753 -0.29212,0.39859 -0.50508,0.50507 -0.30117,0.15059 -0.77205,-0.23809 -1.01015,0 -0.11905,0.11905 0.11905,0.38603 0,0.50508 -0.11905,0.11905 -0.35449,-0.0753 -0.50507,0 -2.10201,1.051 0.53994,-0.0349 -0.50508,1.01015 -0.11905,0.11905 -0.38603,-0.11905 -0.50508,0 -0.043,0.043 -0.0836,1.26453 0,1.51523 0.11905,0.35714 0.29626,0.69692 0.50508,1.01015 1.67513,1.67513 -0.2381,-0.47619 0.50508,1.01016 0.10647,0.21295 0.39859,0.29211 0.50507,0.50507 0.0753,0.15059 -0.0753,0.35449 0,0.50508 0.21296,0.42592 0.74601,0.61394 1.01015,1.01015 0.20883,0.31324 0.23888,0.74395 0.50508,1.01015 0.2662,0.2662 0.69692,0.29626 1.01015,0.50508 0.19811,0.13207 0.33672,0.33672 0.50508,0.50508 0.2659,0.2659 1.38035,1.24547 1.51523,1.51522 0.0753,0.15059 0.11905,0.38603 0,0.50508 -0.11905,0.11905 -0.50508,0.16836 -0.50508,0 0,-0.16836 0.3654,-0.094 0.50508,0 0.34564,0.23259 0.568512,0.60915 0.852762,0.91373"
       id="path9662"
       inkscape:connector-curvature="0" />
    <path
       style="display:inline;fill:#ffffff;fill-rule:evenodd;stroke:#000000;stroke-width:1px;stroke-linecap:butt;stroke-linejoin:miter;stroke-opacity:1"
       d="m 34.644661,1023.7759 c 1.296958,0.067 2.608607,0 3.890873,0.2005 0.235086,0.038 0.306969,0.373 0.505076,0.5051 0.919143,0.6127 0.936201,0.2381 1.515229,1.0101 0.447705,0.597 0.853334,1.5239 1.515229,2.0203 0.05319,0.04 3.016982,2.0069 3.030458,2.0203 0.429232,0.4293 0.536145,1.1361 1.010152,1.5153 0.415733,0.3326 0.998728,0.3759 1.515229,0.505 0.163332,0.041 0.668408,0.041 0.505076,0 -0.832833,-0.2082 -1.692548,-0.2968 -2.525381,-0.505 -0.163332,-0.041 0.339008,-0.028 0.505076,0 0.846785,0.1411 1.675545,0.3836 2.525382,0.505 0.333333,0.048 0.678016,-0.055 1.010152,0 0.684716,0.1142 1.335589,0.391 2.020305,0.5051 0.332136,0.055 0.673435,0 1.010153,0 0.505076,0 1.010152,0 1.515229,0 0.336717,0 0.683488,-0.082 1.010152,0 1.033002,0.2583 1.991019,0.7792 3.030458,1.0102 0.493049,0.1095 1.010152,0 1.515229,0 1.851946,0 3.703892,0 5.555843,0 9.42809,0 18.85618,0 28.28427,0 1.85194,0 3.70389,0 5.55584,0 0.33671,0 0.67343,0 1.010149,0 0.50507,0 1.02523,0.1225 1.51523,0 0.23098,-0.058 0.29211,-0.3986 0.50507,-0.5051 0.3212,-0.1606 2.10707,0.1394 2.52539,0 0.22587,-0.075 0.27919,-0.4298 0.50507,-0.5051 0.002,-7e-4 1.51475,5e-4 1.51523,0 0.2662,-0.2662 0.19184,-0.8013 0.50508,-1.0101 0.28016,-0.1868 0.67343,0 1.01015,0 1.34687,0 -0.16836,0.1683 0.50508,-0.5051 0.11904,-0.1191 0.33671,0 0.50507,0 0.33672,0 0.70898,0.1506 1.01015,0 0.15059,-0.075 -0.11904,-0.386 0,-0.5051 0.11905,-0.119 0.38603,0.1191 0.50508,0 0.11905,-0.119 -0.11905,-0.386 0,-0.5051 0.11905,-0.119 0.33672,0 0.50508,0 0.33671,0 0.70898,0.1506 1.01015,0 0.15058,-0.075 -0.0753,-0.3544 0,-0.505 0.10648,-0.213 0.29212,-0.3986 0.50508,-0.5051 1.34687,0 -0.16836,0.1684 0.50507,-0.5051 0.11905,-0.119 0.38603,0.1191 0.50508,0 0.61517,-0.6152 0.23659,-1.1284 1.01015,-1.5152 0.15059,-0.075 0.38603,0.119 0.50508,0 0.11904,-0.1191 -0.11905,-0.386 0,-0.5051 1.55028,-1.5503 0.41996,0.2951 2.0203,-0.5051 0.15059,-0.075 -0.0753,-0.3545 0,-0.505 0.10648,-0.213 0.29212,-0.3986 0.50508,-0.5051 0.15058,-0.075 0.35449,0.075 0.50507,0 0.21296,-0.1065 0.33672,-0.3367 0.50508,-0.5051 0.50508,-0.5051 1.01015,-1.0101 1.51523,-1.5152 0.16836,-0.1684 0.2792,-0.4298 0.50508,-0.5051 0.31943,-0.1065 0.70898,0.1506 1.01015,0 0.30117,-0.1506 -0.2381,-0.7721 0,-1.0102 0.11905,-0.119 0.38603,0.1191 0.50507,0 0.11905,-0.119 -0.11904,-0.386 0,-0.505 0.2662,-0.2662 0.80133,-0.1919 1.01016,-0.5051 0.18677,-0.2802 -0.10648,-0.6907 0,-1.0102 0.0753,-0.2258 0.39859,-0.2921 0.50507,-0.505 0.26667,-0.5334 -0.26666,-0.4769 0,-1.0102 0.10648,-0.2129 0.3986,-0.2921 0.50508,-0.5051 0.11088,-0.2217 0,-2.8351 0,-3.5355 0,-0.8418 0,-1.6836 0,-2.5254 0,-0.1683 0,-0.3367 0,-0.5051 0,-0.1683 0.0753,-0.3544 0,-0.505 -0.10648,-0.213 -0.3986,-0.2921 -0.50508,-0.5051 -0.0753,-0.1506 0.0753,-0.3545 0,-0.5051 -0.10648,-0.2129 -0.33671,-0.3367 -0.50507,-0.5051 -0.33672,-0.3367 -0.74601,-0.6139 -1.01016,-1.0101 -0.0934,-0.1401 0.0753,-0.3545 0,-0.5051 -0.067,-0.1341 -1.38112,-1.4482 -1.51522,-1.5152 -0.15059,-0.075 -0.3545,0.075 -0.50508,0 -0.21296,-0.1065 -0.29212,-0.3986 -0.50508,-0.5051 -0.15058,-0.075 -0.33671,0 -0.50507,0 -0.50508,-0.1684 -1.08931,-0.1856 -1.51523,-0.5051 -0.30117,-0.2258 -0.23888,-0.7439 -0.50508,-1.0101 -0.0619,-0.062 -1.33189,0.046 -1.51523,0 -0.5165,-0.1291 -0.99872,-0.376 -1.51523,-0.5051 -0.16333,-0.041 -0.34174,0.041 -0.50507,0 -0.5165,-0.1291 -0.99873,-0.3759 -1.51523,-0.5051 -0.16333,-0.041 -0.33672,0 -0.50508,0 -0.84179,0 -1.69993,0.1651 -2.52538,0 -0.36915,-0.074 -0.641,-0.4312 -1.01015,-0.5051 -0.49527,-0.099 -1.01015,0 -1.51523,0 -0.16836,0 -0.34876,0.062 -0.50508,0 -0.69907,-0.2796 -1.29635,-0.8033 -2.0203,-1.0101 -3.1427,-0.8979 -0.52378,0.2993 -2.02031,0 -0.68068,-0.1361 -1.33559,-0.391 -2.0203,-0.5051 -0.936899,-0.1561 -2.129899,0.2573 -3.030459,0 -0.72395,-0.2068 -1.29635,-0.8033 -2.0203,-1.0101 -0.48565,-0.1388 -1.01016,0 -1.51523,0 -0.16836,0 -0.34536,0.053 -0.50508,0 -0.35714,-0.1191 -0.641,-0.4313 -1.01015,-0.5051 -0.49527,-0.099 -1.01015,0 -1.51523,0 -0.50508,0 -1.01015,0 -1.51523,0 -2.18866,0 -4.37733,0 -6.56599,0 -1.85195,0 -3.70389,0 -5.55584,0 -0.19749,0 -3.31769,-0.073 -3.53553,0 -0.22588,0.075 -0.2792,0.4298 -0.50508,0.5051 -0.31944,0.1064 -0.67343,0 -1.01015,0 -0.50508,0 -1.01015,0 -1.51523,0 -0.16836,0 -0.35449,-0.075 -0.50508,0 -1.24825,0.6241 0.17434,0.505 -1.01015,0.505 -0.33672,0 -0.67343,0 -1.01015,0 -0.50508,0 -1.09498,-0.2801 -1.51523,0 -0.28017,0.1868 0.23809,0.7721 0,1.0102 -0.2381,0.2381 -0.67344,0 -1.01015,0 -0.841798,0 -1.683592,0 -2.525386,0 -0.336717,0 -0.708983,-0.1506 -1.010152,0 -0.150585,0.075 0.163332,0.4642 0,0.5051 -1.109187,0.2773 -2.426347,-0.2773 -3.535534,0 -0.230986,0.058 -0.292118,0.3986 -0.505076,0.505 -0.150585,0.075 -0.336718,0 -0.505077,0 -0.336717,0 -0.679974,-0.066 -1.010152,0 -0.522059,0.1045 -0.998728,0.376 -1.515229,0.5051 -0.633821,0.1585 -1.386484,-0.1584 -2.020305,0 -0.515709,0.129 -0.802682,1.3078 -1.010153,1.5153 -0.238095,0.238 -0.708983,-0.1506 -1.010152,0 -0.212959,0.1064 -0.292118,0.3986 -0.505077,0.505 -0.150584,0.075 -0.386028,-0.119 -0.505076,0 -0.119047,0.1191 0.150585,0.4298 0,0.5051 -0.301169,0.1506 -0.690714,-0.1065 -1.010152,0 -0.225877,0.075 -0.292118,0.3986 -0.505077,0.5051 -0.150584,0.075 -0.386028,-0.1191 -0.505076,0 -0.119048,0.119 0.119048,0.386 0,0.5051 -0.119048,0.119 -0.354492,-0.075 -0.505076,0 -1.116752,0.5583 -0.156736,0.3134 -0.505076,1.0101 -0.10648,0.213 -0.429784,0.2792 -0.505077,0.5051 -0.159719,0.4791 0,1.0101 0,1.5152 0,0.8418 0,1.6836 0,2.5254 0,0.3367 0.150585,0.709 0,1.0102 -0.07529,0.1505 -0.386028,-0.1191 -0.505076,0 -0.119048,0.119 0.119048,0.386 0,0.505 -0.266199,0.2662 -0.743954,0.2389 -1.010153,0.5051 -0.252538,0.2525 0.252539,1.2627 0,1.5152 -0.119047,0.1191 -0.354491,-0.075 -0.505076,0 -0.947595,0.4738 -0.215978,0.648 -0.505076,1.5153 -0.525502,1.5765 -0.336718,-0.1684 -1.010153,0.505 -0.119047,0.1191 0.119048,0.3861 0,0.5051 -0.238095,0.2381 -0.772057,-0.2381 -1.010152,0 -0.119048,0.1191 0.119047,0.386 0,0.5051 -0.266199,0.2662 -0.65301,0.386 -1.010153,0.5051 -0.159719,0.053 -0.386028,-0.1191 -0.505076,0 -0.119048,0.119 0.119048,0.386 0,0.505 -0.333333,0.3334 -0.676819,-0.3333 -1.010153,0 -0.119047,0.1191 0.119048,0.3861 0,0.5051 -0.119047,0.1191 -0.336717,0 -0.505076,0 0,0.3367 0.150585,0.709 0,1.0102 -0.07529,0.1506 -0.386028,-0.1191 -0.505076,0 -0.119048,0.119 0.119048,0.386 0,0.505 -0.119048,0.1191 -0.336718,0 -0.505076,0 -0.336718,0 -0.708984,-0.1505 -1.010153,0 -0.301169,0.1506 0.238095,0.7721 0,1.0102 -0.119048,0.119 -0.384402,-0.1174 -0.505076,0 -0.543581,0.5288 -0.75889,2.275 -1.365492,1.8198 -0.606602,-0.4552 0.75889,-2.275 1.365492,-1.8198 0.606602,0.4552 -0.910328,1.2132 -1.365492,1.8198"
       id="path9644"
       inkscape:connector-curvature="0" />
    <path
       style="display:inline;fill:#ffffff;fill-rule:evenodd;stroke:#000000;stroke-width:1px;stroke-linecap:butt;stroke-linejoin:miter;stroke-opacity:1"
       d="m 53.260694,980.07577 c 1.34772,-0.91033 2.773422,-1.71471 4.043161,-2.73098 0.131442,-0.10521 -0.07529,-0.3545 0,-0.50508 0.10648,-0.21296 0.398597,-0.29212 0.505077,-0.50508 0.07529,-0.15058 0,-0.33671 0,-0.50507 0,-0.33672 0,-0.67344 0,-1.01016 0,-0.67343 0,-1.34687 0,-2.0203 0,-0.16836 0,-0.33672 0,-0.50508 0,-0.33671 -0.186778,-0.72998 0,-1.01015 0.03135,-1.42216 1.138767,-0.12861 1.515229,-0.50508 0.238095,-0.23809 -0.238096,-0.77205 0,-1.01015 0.119047,-0.11905 0.386028,0.11905 0.505076,0 0.119047,-0.11905 -0.119048,-0.38603 0,-0.50507 0.119047,-0.11905 0.354491,0.0753 0.505076,0 0.212959,-0.10648 0.292117,-0.3986 0.505076,-0.50508 0.150585,-0.0753 0.386029,0.11905 0.505077,0 0.119047,-0.11905 -0.119048,-0.38603 0,-0.50508 0.505076,-0.33671 1.010152,-0.67343 1.515228,-1.01015 0.168359,0 0.354492,0.0753 0.505077,0 0.212959,-0.10648 0.27409,-0.44733 0.505076,-0.50508 0.489996,-0.12249 1.036071,0.15972 1.515229,0 0.159719,-0.0532 -0.07529,-0.35449 0,-0.50507 0.106479,-0.21296 0.279199,-0.42979 0.505076,-0.50508 0.319438,-0.10648 0.690714,0.10648 1.010153,0 0.225877,-0.0753 0.292117,-0.3986 0.505076,-0.50507 0.150585,-0.0753 0.354492,0.0753 0.505076,0 0.212959,-0.10648 0.27409,-0.44733 0.505076,-0.50508 3.582368,0 0.295867,0.35714 2.020306,-0.50508 0.150584,-0.0753 0.386028,0.11905 0.505076,0 0.266198,-0.2662 0.168359,-0.84179 0.505076,-1.01015 0.451754,-0.22588 1.036072,0.15972 1.515229,0 0.159719,-0.0532 -0.150585,-0.42978 0,-0.50508 0.301169,-0.15058 0.673435,0 1.010152,0 0.168359,0 0.386029,0.11905 0.505077,0 0.119047,-0.11904 -0.159719,-0.45183 0,-0.50507 0.479157,-0.15972 1.025233,0.1225 1.515229,0 0.230986,-0.0577 0.292117,-0.3986 0.505076,-0.50508 0.150585,-0.0753 0.354491,0.0753 0.505076,0 0.212959,-0.10648 0.27409,-0.44733 0.505076,-0.50507 0.489996,-0.1225 1.025233,0.12249 1.515229,0 0.230987,-0.0578 0.292118,-0.3986 0.505077,-0.50508 0.150584,-0.0753 0.354491,0.0753 0.505076,0 0.212959,-0.10648 0.292117,-0.3986 0.505076,-0.50508 0.150585,-0.0753 0.336718,0 0.505076,0 0.505077,-0.33671 0.972288,-0.73868 1.515229,-1.01015 0.150585,-0.0753 0.354492,0.0753 0.505076,0 0.212959,-0.10648 0.2792,-0.42978 0.505077,-0.50508 0.319438,-0.10648 0.690714,0.10648 1.010152,0 0.225877,-0.0753 0.2792,-0.42978 0.505077,-0.50507 0.638876,-0.21296 1.417966,0.30117 2.020305,0 0.150584,-0.0753 -0.150585,-0.42979 0,-0.50508 0.301169,-0.15058 0.708983,0.15059 1.010152,0 0.150586,-0.0753 -0.150584,-0.42978 0,-0.50507 0.602336,-0.30117 1.417966,0.30116 2.020306,0 0.15058,-0.0753 -0.15058,-0.42979 0,-0.50508 0.30117,-0.15059 0.70898,0.15058 1.01015,0 0.15059,-0.0753 -0.15058,-0.42979 0,-0.50508 0.42139,-0.21069 1.78514,0.23517 2.02031,0 0.23809,-0.23809 -0.15059,-0.70898 0,-1.01015 0.15058,-0.30117 0.70898,0.15058 1.01015,0 0.21296,-0.10648 0.29212,-0.3986 0.50508,-0.50508 0.15058,-0.0753 0.34535,0.0532 0.50507,0 0.35715,-0.11904 0.65301,-0.38602 1.01016,-0.50507 0.19653,-0.0655 1.43684,0.0784 1.51522,0 0.11905,-0.11905 -0.11904,-0.38603 0,-0.50508 0.11905,-0.11905 0.336719,0 0.505079,0 0.16836,0 0.33672,0 0.50508,0 0.67343,0 1.366967,-0.16333 2.020297,0 0.23099,0.0577 0.33672,0.33672 0.50508,0.50508 0.16836,0.16836 0.33672,0.33671 0.50507,0.50507 0.67344,0.67344 1.34687,1.34687 2.02031,2.02031 0.39451,0.39451 1.22467,1.0794 1.51523,1.51523 0.20882,0.31323 0.23888,0.74395 0.50507,1.01015 0.2662,0.2662 0.74396,0.23888 1.01016,0.50508 0.11904,0.11904 -0.0753,0.35449 0,0.50507 0.10648,0.21296 0.39859,0.29212 0.50507,0.50508 0.15059,0.30117 -0.15058,0.70898 0,1.01015 0.10648,0.21296 0.3986,0.29212 0.50508,0.50508 0.0753,0.15058 0,0.33672 0,0.50507 0,0.33672 0,0.67344 0,1.01016 0,0.84179 0,1.68358 0,2.52538 0,0.16836 0.11905,0.38603 0,0.50507 -0.11905,0.11905 -0.42979,-0.15058 -0.50508,0 -0.15058,0.30117 0.15059,0.70899 0,1.01016 -0.0753,0.15058 -0.34535,-0.0532 -0.50507,0 -0.35715,0.11904 -0.65301,0.38603 -1.01016,0.50507 -0.15972,0.0532 -0.38602,-0.11904 -0.50507,0 -0.67606,0.67606 0.67605,0.3341 0,1.01016 -0.11905,0.11904 -0.38603,-0.11905 -0.50508,0 -0.11905,0.11904 0,0.33671 0,0.50507 -0.50678,0.10238 -1.01355,0.20475 -1.52033,0.30713"
       id="path9648"
       inkscape:connector-curvature="0" />
  </g>
</svg>
