<?xml version="1.0" encoding="UTF-8" standalone="no"?>
<!-- Created with Inkscape (http://www.inkscape.org/) -->

<svg
   xmlns:dc="http://purl.org/dc/elements/1.1/"
   xmlns:cc="http://creativecommons.org/ns#"
   xmlns:rdf="http://www.w3.org/1999/02/22-rdf-syntax-ns#"
   xmlns:svg="http://www.w3.org/2000/svg"
   xmlns="http://www.w3.org/2000/svg"
   xmlns:sodipodi="http://sodipodi.sourceforge.net/DTD/sodipodi-0.dtd"
   xmlns:inkscape="http://www.inkscape.org/namespaces/inkscape"
   width="48mm"
   height="48mm"
   viewBox="0 0 170.07874 170.07874"
   id="svg5074"
   version="1.1"
   inkscape:version="0.91 r13725"
   sodipodi:docname="myico_b_0_note.svg">
  <defs
     id="defs5076" />
  <sodipodi:namedview
     id="base"
     pagecolor="#ffffff"
     bordercolor="#666666"
     borderopacity="1.0"
     inkscape:pageopacity="0.0"
     inkscape:pageshadow="2"
     inkscape:zoom="2.3451486"
     inkscape:cx="4.6335991"
     inkscape:cy="54.664355"
     inkscape:document-units="px"
     inkscape:current-layer="layer1"
     showgrid="false"
     inkscape:window-width="1536"
     inkscape:window-height="801"
     inkscape:window-x="1536"
     inkscape:window-y="23"
     inkscape:window-maximized="0" />
  <metadata
     id="metadata5079">
    <rdf:RDF>
      <cc:Work
         rdf:about="">
        <dc:format>image/svg+xml</dc:format>
        <dc:type
           rdf:resource="http://purl.org/dc/dcmitype/StillImage" />
        <dc:title />
      </cc:Work>
    </rdf:RDF>
  </metadata>
  <g
     inkscape:label="Layer 1"
     inkscape:groupmode="layer"
     id="layer1"
     transform="translate(0,-882.28346)">
    <rect
       style="opacity:1;fill:#666666;fill-opacity:1;fill-rule:evenodd;stroke:#000000;stroke-width:4.77016973;stroke-linejoin:miter;stroke-miterlimit:4;stroke-dasharray:none"
       id="rect5082"
       width="98.558228"
       height="123.09346"
       x="22.6334"
       y="895.3913" />
    <rect
       style="opacity:1;fill:#666666;fill-opacity:1;fill-rule:evenodd;stroke:#000000;stroke-width:4.77016973;stroke-linejoin:miter;stroke-miterlimit:4;stroke-dasharray:none"
       id="rect5082-8"
       width="98.558228"
       height="123.09346"
       x="34.304771"
       y="907.70068" />
    <rect
       style="opacity:1;fill:#ffffff;fill-opacity:1;fill-rule:evenodd;stroke:#000000;stroke-width:4.77016973;stroke-linejoin:miter;stroke-miterlimit:4;stroke-dasharray:none"
       id="rect5082-8-4"
       width="98.558228"
       height="123.09346"
       x="45.976143"
       y="917.77197" />
    <path
       style="fill:none;fill-rule:evenodd;stroke:#000000;stroke-width:1.19254243px;stroke-linecap:butt;stroke-linejoin:miter;stroke-opacity:1"
       d="m 65.42842,949.10485 c 6.857696,9.50591 4.900212,-3.23323 5.187275,-3.35709 0.773274,-0.33362 1.820365,0.33364 2.593637,0 0.386638,-0.16681 -0.305662,-0.85527 0,-1.11902 0.611327,-0.52753 2.207002,0.66726 2.593638,0 0.386638,-0.66727 -0.386636,-1.57081 0,-2.23807 0.193318,-0.33364 1.29682,-0.37301 1.29682,0 0,0.83408 -0.991156,1.44678 -1.29682,2.23807 -0.136697,0.35387 0.305664,0.85527 0,1.11902 -0.305663,0.26376 -0.991155,-0.26375 -1.296818,0 -0.305664,0.26376 0,0.74603 0,1.11904 0,0.373 -0.305664,0.85527 0,1.11903 0.305663,0.26375 0.864546,0 1.296818,0 1.280881,0 5.972833,0.22059 6.484094,0 0.337627,-0.14568 1.579881,-1.99381 2.593638,-1.11903 0.305662,0.26376 0,0.74602 0,1.11903 0,0.37301 0.305662,0.85526 0,1.11902 -0.305663,0.26376 -0.991156,-0.26376 -1.296819,0 -0.305664,0.26376 0.193317,0.7854 0,1.11904 -0.273393,0.47182 -0.957716,0.68011 -1.296819,1.11902 -0.536169,0.694 -0.613335,1.64828 -1.296818,2.23808 -0.305664,0.26375 -1.296819,0.37301 -1.296819,0 0,-0.37302 0.864545,0 1.296819,0 0.432272,0 0.864545,0 1.296818,0 0.864546,0 1.982311,0.52751 2.593638,0 0.611326,-0.52752 -0.719347,-1.82425 0,-2.23808 1.079018,-0.62071 2.660186,0.35387 3.890456,0 0.41009,-0.11796 -0.386636,-0.95221 0,-1.11902 1.159911,-0.50045 2.593637,0 3.890456,0 0.864545,0 2.593638,-0.74602 2.593638,0 0,0.74602 -3.458185,0 -2.593638,0 1.296819,0 2.593638,0 3.890452,0 3.458184,0 6.916364,0 10.374554,0 0.43227,0 0.86454,0 1.29682,0 0.43227,0 0.99116,-0.26375 1.29681,0 0.30567,0.26376 -0.30565,0.85527 0,1.11902 0.9666,0.83409 2.56432,-0.83294 3.89046,-1.11902 0.83873,-0.18094 1.74588,0.1463 2.59364,0 6.80825,-1.17497 1.87835,-0.33455 5.18728,-2.23806 0.80425,-0.46267 1.72909,-0.74603 2.59363,-1.11903 1.29683,0 2.73054,0.50044 3.89046,0 0.86456,-0.37301 0.61334,-1.64828 1.29682,-2.23806 0.30566,-0.26377 1.29682,-0.37302 1.29682,0 0,0.746 -1.98231,-0.52753 -2.59364,0 -0.68349,0.58978 -0.61334,1.64828 -1.29682,2.23806 -0.30567,0.26376 -0.88673,-0.11796 -1.29681,0 -0.91699,0.26376 -1.67665,0.85527 -2.59364,1.11903 -0.4101,0.11796 -1.29682,0.37301 -1.29682,0 0,-0.37301 1.29682,-0.37301 1.29682,0 0,0.37301 -1.7291,0 -1.29682,0 1.29682,0 2.59363,0 3.89046,0 0.43227,0 -0.86456,0 -1.29683,0"
       id="path5674"
       inkscape:connector-curvature="0" />
    <path
       style="fill:none;fill-rule:evenodd;stroke:#000000;stroke-width:1.19254243px;stroke-linecap:butt;stroke-linejoin:miter;stroke-opacity:1"
       d="m 66.72524,971.48548 c 2.593637,-0.37301 5.187275,-0.746 7.780912,-1.11902 0.432272,-0.37302 0.716862,-0.95222 1.296818,-1.11905 0.820181,-0.23589 1.773458,0.23592 2.593637,0 0.579955,-0.1668 0.750032,-0.88311 1.29682,-1.11902 0.386636,-0.16681 0.864545,0 1.296819,0 1.296818,0 2.730545,-0.50044 3.890456,0 0.386636,0.16682 0.305662,0.85527 0,1.11902 -0.683484,0.58979 -1.789385,0.65638 -2.593638,1.11905 -0.508654,0.29261 -0.750033,0.88311 -1.296818,1.11902 -0.386637,0.16682 -0.991156,-0.26376 -1.296819,0 -0.305664,0.26375 0.305663,0.85528 0,1.11904 -0.305664,0.26376 -1.29682,0.373 -1.29682,0 0,-0.37302 0.864546,0 1.29682,0 0.864545,0 1.729091,0 2.593637,0 1.296819,0 2.660186,0.35387 3.890456,0 0.41009,-0.11796 -0.305663,-0.85529 0,-1.11904 0.305663,-0.26376 0.864546,0 1.296819,0 0.432273,0 0.991156,-0.26376 1.296819,0 0.305663,0.26375 -0.305663,0.85528 0,1.11904 0.305663,0.26376 0.864545,0 1.296818,0 0.432274,0 0.864546,0 1.296819,0 2.593638,0 5.187271,0 7.780917,0 0.432274,0 0.991148,0.26376 1.296808,0 0.30567,-0.26376 -0.30566,-0.85529 0,-1.11904 0.30567,-0.26376 0.86455,0 1.29683,0 1.29682,0 2.63235,0.27142 3.89045,0 6.40993,-1.38278 -2.71388,-1.11902 2.59364,-1.11902 1.27828,0 3.87193,0 2.59364,0 -0.86456,0 -3.45819,0 -2.59364,0 2.16136,0 4.32273,0 6.48409,0 0.43228,0 0.88674,0.11795 1.29682,0 0.91699,-0.26376 1.65591,-0.91675 2.59364,-1.11905 0.83873,-0.18092 1.72908,0 2.59364,0 1.72909,0 3.45819,0 5.18727,0 0.43228,0 0.86454,0 1.29682,0 0.86456,0 2.59364,-0.74601 2.59364,0 0,0.83409 -1.91015,0.52926 -2.59364,1.11905 -0.61133,0.52751 0.61133,1.71054 0,2.23806 -0.30567,0.26376 -1.29682,0.373 -1.29682,0 0,-0.37302 0.86454,0 1.29682,0"
       id="path5676"
       inkscape:connector-curvature="0" />
    <path
       style="fill:none;fill-rule:evenodd;stroke:#000000;stroke-width:1.19254243px;stroke-linecap:butt;stroke-linejoin:miter;stroke-opacity:1"
       d="m 71.912515,990.50902 c 6.916365,0 13.832732,0 20.749099,0 2.161364,0 4.352133,-0.30662 6.484098,0 0.953438,0.13712 1.655898,0.91673 2.593638,1.11903 0.83873,0.18094 1.82036,-0.33362 2.59363,0 0.38664,0.16682 0,0.74602 0,1.11904 0,0.373 0.38664,0.95221 0,1.11902 -0.77327,0.33364 -1.98231,-0.52751 -2.59363,0 -0.61133,0.52752 0.38664,1.57085 0,2.23805 -0.19332,0.33372 -0.99116,-0.26375 -1.29683,0 -0.30566,0.26375 -0.43227,1.11908 0,1.11908 0.61133,0 0.70376,-0.99115 1.29683,-1.11908 9.83333,-2.1213 -0.39861,2.58198 5.18727,-2.23805 0.30567,-0.26375 0.86454,0 1.29682,0 2.59364,0 5.18727,0 7.78091,0 0.43227,0 0.86454,0 1.29682,0 0.43228,0 0.91018,-0.16681 1.29682,0 1.39404,0.60147 2.44334,1.73854 3.89046,2.23805 0.79577,0.27475 7.78091,-0.75049 7.78091,1.11908 0,0.74594 -1.72908,0 -2.59364,0 -0.43228,0 0.86456,0 1.29682,0"
       id="path5678"
       inkscape:connector-curvature="0" />
    <path
       style="fill:none;fill-rule:evenodd;stroke:#000000;stroke-width:1.19254243px;stroke-linecap:butt;stroke-linejoin:miter;stroke-opacity:1"
       d="m 70.615695,1010.6515 c 5.187275,0 10.374551,0 15.561825,0 5.065958,0 0.136908,-0.3336 5.187275,1.1191 0.82018,0.2359 1.820364,-0.3336 2.593638,0 1.383274,0.5968 2.039096,2.076 1.296819,3.3571 -0.193319,0.3336 -1.729093,0 -1.296819,0 2.593633,0 5.187279,0 7.780917,0 0.86454,0 1.74588,-0.1463 2.59363,0 1.34042,0.2313 2.56431,0.8329 3.89046,1.1191 0.41937,0.091 0.91019,-0.1669 1.29681,0 0.54679,0.2358 0.71687,0.9521 1.29683,1.119 1.23027,0.3539 2.59363,0 3.89045,0 3.45818,0 6.91637,0 10.37456,0 0.43227,0 0.86454,0 1.29681,0 0.43228,0 0.99115,0.2637 1.29682,0 0.95407,-0.8234 -1.0436,-2.0196 -1.29682,-2.2381"
       id="path5680"
       inkscape:connector-curvature="0" />
    <path
       style="fill:none;fill-rule:evenodd;stroke:#000000;stroke-width:1.19254243px;stroke-linecap:butt;stroke-linejoin:miter;stroke-opacity:1"
       d="m 114.05913,1008.4135 c 0,0.746 0,1.4921 0,2.238 -0.21615,0 -0.49558,-0.1319 -0.64842,0 -0.15283,0.1321 0.15284,0.4277 0,0.5596 -0.15283,0.1318 -0.43228,0 -0.6484,0 -0.21614,0 -0.43228,0 -0.64841,0"
       id="path5682"
       inkscape:connector-curvature="0" />
    <path
       style="fill:none;fill-rule:evenodd;stroke:#000000;stroke-width:1.19254243px;stroke-linecap:butt;stroke-linejoin:miter;stroke-opacity:1"
       d="m 90.716386,1005.0564 c -0.216136,0.7461 -0.01826,1.6944 -0.64841,2.238 -0.0213,0.019 -3.32737,0 -3.890456,0"
       id="path5684"
       inkscape:connector-curvature="0" />
  </g>
</svg>
